ISO-10303-21;
HEADER;
FILE_DESCRIPTION(('CATIA V5 STEP Exchange','CAx-IF Rec.Pracs.--- Model Styling and Organization---1.5--- 2016-08-15','CAx-IF Rec.Pracs.---Supplemental Geometry---1.0---2011-11-01','CAx-IF Rec.Pracs.--- Composite Materials ---3.4---2017-06-13','CAx-IF Rec.Pracs.---Tessellated 3D Geometry---1.0---2015-12-17'),'2;1');

FILE_NAME('C:\\Users\\marti\\Documents\\Stage TV\\D\X2\00E9\X0\monstrateur\\motor\\Exports stp dxf\\motor_mount_front.stp','2025-07-02T13:32:02+00:00',('none'),('none'),'CATIA Version 5-6 Release 2023 SP5','CATIA V5 STEP AP242 v3','none');

FILE_SCHEMA(('AP242_MANAGED_MODEL_BASED_3D_ENGINEERING_MIM_LF  {1 0 10303 442 1 1 4}'));

ENDSEC;
DATA;
#5=PRODUCT('motor_mount_front','','',(#2)) ;
#2=PRODUCT_CONTEXT(' ',#1,'mechanical') ;
#1=APPLICATION_CONTEXT('managed model based 3d engineering') ;
#10=PRODUCT_DEFINITION('',' ',#6,#3) ;
#3=PRODUCT_DEFINITION_CONTEXT('part definition',#1,' ') ;
#11=PRODUCT_DEFINITION_SHAPE(' ',' ',#10) ;
#917=MECHANICAL_DESIGN_GEOMETRIC_PRESENTATION_REPRESENTATION(' ',(#29),#16) ;
#7=PRODUCT_CATEGORY('part','specification') ;
#19=SHAPE_REPRESENTATION(' ',(#18),#16) ;
#17=CARTESIAN_POINT(' ',(0.,0.,0.)) ;
#31=CARTESIAN_POINT('Axis2P3D Location',(-1.75,40.5,32.5)) ;
#36=CARTESIAN_POINT('Line Origine',(-1.75,31.,32.5)) ;
#40=CARTESIAN_POINT('Vertex',(0.,31.,32.5)) ;
#42=CARTESIAN_POINT('Vertex',(-3.5,31.,32.5)) ;
#45=CARTESIAN_POINT('Axis2P3D Location',(0.,40.5,32.5)) ;
#49=CARTESIAN_POINT('Vertex',(0.,50.,32.5)) ;
#52=CARTESIAN_POINT('Line Origine',(-1.75,50.,32.5)) ;
#56=CARTESIAN_POINT('Vertex',(-3.5,50.,32.5)) ;
#59=CARTESIAN_POINT('Axis2P3D Location',(-3.5,40.5,32.5)) ;
#71=CARTESIAN_POINT('Axis2P3D Location',(0.,40.5,32.5)) ;
#76=CARTESIAN_POINT('Axis2P3D Location',(-3.5,40.5,32.5)) ;
#88=CARTESIAN_POINT('Axis2P3D Location',(-3.5,0.,0.)) ;
#97=CARTESIAN_POINT('Axis2P3D Location',(-3.5,40.5,32.5)) ;
#101=CARTESIAN_POINT('Vertex',(-3.5,33.,32.5)) ;
#103=CARTESIAN_POINT('Vertex',(-3.5,48.,32.5)) ;
#106=CARTESIAN_POINT('Axis2P3D Location',(-3.5,40.5,32.5)) ;
#116=CARTESIAN_POINT('Axis2P3D Location',(0.,0.,0.)) ;
#121=CARTESIAN_POINT('Line Origine',(1.5,76.,0.)) ;
#125=CARTESIAN_POINT('Vertex',(3.,76.,0.)) ;
#127=CARTESIAN_POINT('Vertex',(0.,76.,0.)) ;
#130=CARTESIAN_POINT('Line Origine',(3.,40.5,0.)) ;
#134=CARTESIAN_POINT('Vertex',(3.,5.,0.)) ;
#137=CARTESIAN_POINT('Axis2P3D Location',(5.,5.,0.)) ;
#141=CARTESIAN_POINT('Vertex',(5.,3.,0.)) ;
#144=CARTESIAN_POINT('Line Origine',(34.685,3.,0.)) ;
#148=CARTESIAN_POINT('Vertex',(64.37,3.,0.)) ;
#151=CARTESIAN_POINT('Line Origine',(64.37,1.5,0.)) ;
#155=CARTESIAN_POINT('Vertex',(64.37,0.,0.)) ;
#158=CARTESIAN_POINT('Line Origine',(34.685,0.,0.)) ;
#162=CARTESIAN_POINT('Vertex',(5.,0.,0.)) ;
#165=CARTESIAN_POINT('Axis2P3D Location',(5.,5.,0.)) ;
#169=CARTESIAN_POINT('Vertex',(3.5527136788E-15,5.,0.)) ;
#172=CARTESIAN_POINT('Line Origine',(0.,40.5,0.)) ;
#188=CARTESIAN_POINT('Axis2P3D Location',(0.,76.,0.)) ;
#193=CARTESIAN_POINT('Line Origine',(0.,76.,32.5)) ;
#197=CARTESIAN_POINT('Vertex',(0.,76.,65.)) ;
#200=CARTESIAN_POINT('Line Origine',(0.,5.,32.5)) ;
#204=CARTESIAN_POINT('Vertex',(3.5527136788E-15,5.,65.)) ;
#207=CARTESIAN_POINT('Line Origine',(0.,40.5,65.)) ;
#223=CARTESIAN_POINT('Axis2P3D Location',(5.,5.,32.5)) ;
#228=CARTESIAN_POINT('Line Origine',(5.,3.5527136788E-15,32.5)) ;
#232=CARTESIAN_POINT('Vertex',(5.,0.,65.)) ;
#235=CARTESIAN_POINT('Axis2P3D Location',(5.,5.,65.)) ;
#247=CARTESIAN_POINT('Axis2P3D Location',(5.,0.,0.)) ;
#252=CARTESIAN_POINT('Line Origine',(64.37,0.,32.5)) ;
#256=CARTESIAN_POINT('Vertex',(64.37,0.,65.)) ;
#259=CARTESIAN_POINT('Line Origine',(34.685,0.,65.)) ;
#270=CARTESIAN_POINT('Line Origine',(10.8686028014,0.,32.4999999901)) ;
#274=CARTESIAN_POINT('Vertex',(10.8686027953,0.,18.7500000101)) ;
#276=CARTESIAN_POINT('Vertex',(10.8686027953,0.,46.2499999899)) ;
#279=CARTESIAN_POINT('Line Origine',(22.7764520928,0.,53.1249999978)) ;
#283=CARTESIAN_POINT('Vertex',(34.6843013802,0.,60.)) ;
#286=CARTESIAN_POINT('Line Origine',(46.5921506963,0.,53.1250000044)) ;
#290=CARTESIAN_POINT('Vertex',(58.5,0.,46.2500000161)) ;
#293=CARTESIAN_POINT('Line Origine',(58.5000000052,0.,32.5000000061)) ;
#297=CARTESIAN_POINT('Vertex',(58.5,0.,18.7499999981)) ;
#300=CARTESIAN_POINT('Line Origine',(46.5921506925,0.,11.8749999934)) ;
#304=CARTESIAN_POINT('Vertex',(34.6843013886,0.,5.00000000486)) ;
#307=CARTESIAN_POINT('Line Origine',(22.7764520827,0.,11.875000008)) ;
#320=CARTESIAN_POINT('Axis2P3D Location',(57.37,0.,8.925)) ;
#324=CARTESIAN_POINT('Vertex',(59.97,-4.4408920985E-16,8.925)) ;
#326=CARTESIAN_POINT('Vertex',(54.77,0.,8.925)) ;
#329=CARTESIAN_POINT('Axis2P3D Location',(57.37,0.,8.925)) ;
#338=CARTESIAN_POINT('Axis2P3D Location',(57.37,0.,56.075)) ;
#342=CARTESIAN_POINT('Vertex',(59.97,-4.4408920985E-16,56.075)) ;
#344=CARTESIAN_POINT('Vertex',(54.77,0.,56.075)) ;
#347=CARTESIAN_POINT('Axis2P3D Location',(57.37,0.,56.075)) ;
#356=CARTESIAN_POINT('Axis2P3D Location',(10.22,0.,8.925)) ;
#360=CARTESIAN_POINT('Vertex',(7.62,-4.4408920985E-16,8.925)) ;
#362=CARTESIAN_POINT('Vertex',(12.82,0.,8.925)) ;
#365=CARTESIAN_POINT('Axis2P3D Location',(10.22,0.,8.925)) ;
#374=CARTESIAN_POINT('Axis2P3D Location',(10.22,0.,56.075)) ;
#378=CARTESIAN_POINT('Vertex',(7.62,-4.4408920985E-16,56.075)) ;
#380=CARTESIAN_POINT('Vertex',(12.82,0.,56.075)) ;
#383=CARTESIAN_POINT('Axis2P3D Location',(10.22,0.,56.075)) ;
#393=CARTESIAN_POINT('Axis2P3D Location',(64.37,0.,0.)) ;
#398=CARTESIAN_POINT('Line Origine',(64.37,3.,32.5)) ;
#402=CARTESIAN_POINT('Vertex',(64.37,3.,65.)) ;
#405=CARTESIAN_POINT('Line Origine',(64.37,1.5,65.)) ;
#417=CARTESIAN_POINT('Axis2P3D Location',(5.,3.,0.)) ;
#422=CARTESIAN_POINT('Line Origine',(34.685,3.,65.)) ;
#426=CARTESIAN_POINT('Vertex',(5.,3.,65.)) ;
#429=CARTESIAN_POINT('Line Origine',(5.,3.,32.5)) ;
#440=CARTESIAN_POINT('Line Origine',(22.7764520877,3.,11.8750000051)) ;
#444=CARTESIAN_POINT('Vertex',(34.6843013802,3.,5.)) ;
#446=CARTESIAN_POINT('Vertex',(10.8686028014,3.,18.7500000101)) ;
#449=CARTESIAN_POINT('Line Origine',(46.5921506943,3.,11.8749999944)) ;
#453=CARTESIAN_POINT('Vertex',(58.5,3.,18.7499999839)) ;
#456=CARTESIAN_POINT('Line Origine',(58.5000000052,3.,32.5000000071)) ;
#460=CARTESIAN_POINT('Vertex',(58.5000000104,3.,46.2500000161)) ;
#463=CARTESIAN_POINT('Line Origine',(46.5921506901,3.,53.125000008)) ;
#467=CARTESIAN_POINT('Vertex',(34.6843013802,3.,60.)) ;
#470=CARTESIAN_POINT('Line Origine',(22.7764520877,3.,53.1249999949)) ;
#474=CARTESIAN_POINT('Vertex',(10.8686027953,3.,46.2499999899)) ;
#477=CARTESIAN_POINT('Line Origine',(10.8686028014,3.,32.5)) ;
#490=CARTESIAN_POINT('Axis2P3D Location',(57.37,3.,8.925)) ;
#494=CARTESIAN_POINT('Vertex',(59.97,3.,8.925)) ;
#496=CARTESIAN_POINT('Vertex',(54.77,3.,8.925)) ;
#499=CARTESIAN_POINT('Axis2P3D Location',(57.37,3.,8.925)) ;
#508=CARTESIAN_POINT('Axis2P3D Location',(57.37,3.,56.075)) ;
#512=CARTESIAN_POINT('Vertex',(59.97,3.,56.075)) ;
#514=CARTESIAN_POINT('Vertex',(54.77,3.,56.075)) ;
#517=CARTESIAN_POINT('Axis2P3D Location',(57.37,3.,56.075)) ;
#526=CARTESIAN_POINT('Axis2P3D Location',(10.22,3.,8.925)) ;
#530=CARTESIAN_POINT('Vertex',(7.62,3.,8.925)) ;
#532=CARTESIAN_POINT('Vertex',(12.82,3.,8.925)) ;
#535=CARTESIAN_POINT('Axis2P3D Location',(10.22,3.,8.925)) ;
#544=CARTESIAN_POINT('Axis2P3D Location',(10.22,3.,56.075)) ;
#548=CARTESIAN_POINT('Vertex',(7.62,3.,56.075)) ;
#550=CARTESIAN_POINT('Vertex',(12.82,3.,56.075)) ;
#553=CARTESIAN_POINT('Axis2P3D Location',(10.22,3.,56.075)) ;
#563=CARTESIAN_POINT('Axis2P3D Location',(5.,5.,32.5)) ;
#568=CARTESIAN_POINT('Axis2P3D Location',(5.,5.,65.)) ;
#572=CARTESIAN_POINT('Vertex',(3.,5.,65.)) ;
#575=CARTESIAN_POINT('Line Origine',(3.,5.,32.5)) ;
#587=CARTESIAN_POINT('Axis2P3D Location',(3.,76.,0.)) ;
#592=CARTESIAN_POINT('Line Origine',(3.,40.5,65.)) ;
#596=CARTESIAN_POINT('Vertex',(3.,76.,65.)) ;
#599=CARTESIAN_POINT('Line Origine',(3.,76.,32.5)) ;
#611=CARTESIAN_POINT('Axis2P3D Location',(3.,76.,0.)) ;
#616=CARTESIAN_POINT('Line Origine',(1.5,76.,65.)) ;
#628=CARTESIAN_POINT('Axis2P3D Location',(0.,0.,65.)) ;
#644=CARTESIAN_POINT('Axis2P3D Location',(10.8686028014,3.,18.7500000101)) ;
#649=CARTESIAN_POINT('Line Origine',(10.8686028014,1.5,18.7500000101)) ;
#654=CARTESIAN_POINT('Line Origine',(10.8686028014,1.5,46.2499999899)) ;
#666=CARTESIAN_POINT('Axis2P3D Location',(10.8686027953,3.,46.2499999899)) ;
#671=CARTESIAN_POINT('Line Origine',(34.6843013802,1.5,60.)) ;
#683=CARTESIAN_POINT('Axis2P3D Location',(34.6843013802,3.,60.)) ;
#688=CARTESIAN_POINT('Line Origine',(58.5,1.5,46.2500000161)) ;
#700=CARTESIAN_POINT('Axis2P3D Location',(58.5000000104,3.,46.2500000161)) ;
#705=CARTESIAN_POINT('Line Origine',(58.5,1.5,18.7499999981)) ;
#717=CARTESIAN_POINT('Axis2P3D Location',(58.5,3.,18.7499999839)) ;
#722=CARTESIAN_POINT('Line Origine',(34.6843013886,1.5,5.00000000486)) ;
#734=CARTESIAN_POINT('Axis2P3D Location',(34.6843013802,3.,5.)) ;
#746=CARTESIAN_POINT('Axis2P3D Location',(57.37,0.839999999575,8.925)) ;
#751=CARTESIAN_POINT('Line Origine',(54.77,0.839999999575,8.925)) ;
#756=CARTESIAN_POINT('Line Origine',(59.97,0.839999999575,8.925)) ;
#775=CARTESIAN_POINT('Axis2P3D Location',(57.37,0.839999999575,56.075)) ;
#780=CARTESIAN_POINT('Line Origine',(54.77,0.839999999575,56.075)) ;
#785=CARTESIAN_POINT('Line Origine',(59.97,0.839999999575,56.075)) ;
#804=CARTESIAN_POINT('Axis2P3D Location',(10.22,0.839999999575,8.925)) ;
#809=CARTESIAN_POINT('Line Origine',(12.82,0.839999999575,8.925)) ;
#814=CARTESIAN_POINT('Line Origine',(7.62,0.839999999575,8.925)) ;
#833=CARTESIAN_POINT('Axis2P3D Location',(10.22,0.839999999575,56.075)) ;
#838=CARTESIAN_POINT('Line Origine',(12.82,0.839999999575,56.075)) ;
#843=CARTESIAN_POINT('Line Origine',(7.62,0.839999999575,56.075)) ;
#862=CARTESIAN_POINT('Axis2P3D Location',(-7.,0.,0.)) ;
#867=CARTESIAN_POINT('Axis2P3D Location',(-7.,40.5,32.5)) ;
#871=CARTESIAN_POINT('Vertex',(-7.,33.,32.5)) ;
#873=CARTESIAN_POINT('Vertex',(-7.,48.,32.5)) ;
#876=CARTESIAN_POINT('Axis2P3D Location',(-7.,40.5,32.5)) ;
#886=CARTESIAN_POINT('Axis2P3D Location',(-3.5,40.5,32.5)) ;
#891=CARTESIAN_POINT('Line Origine',(-3.5,48.,32.5)) ;
#896=CARTESIAN_POINT('Line Origine',(-3.5,33.,32.5)) ;
#8=PRODUCT_RELATED_PRODUCT_CATEGORY('part',$,(#5)) ;
#15=UNCERTAINTY_MEASURE_WITH_UNIT(LENGTH_MEASURE(0.005),#12,'distance_accuracy_value','CONFUSED CURVE UNCERTAINTY') ;
#29=STYLED_ITEM(' ',(#28),#21) ;
#28=PRESENTATION_STYLE_ASSIGNMENT((#27)) ;
#27=SURFACE_STYLE_USAGE(.BOTH.,#26) ;
#26=SURFACE_SIDE_STYLE(' ',(#25)) ;
#25=SURFACE_STYLE_FILL_AREA(#24) ;
#24=FILL_AREA_STYLE(' ',(#23)) ;
#23=FILL_AREA_STYLE_COLOUR(' ',#22) ;
#38=VECTOR('Line Direction',#37,1.) ;
#54=VECTOR('Line Direction',#53,1.) ;
#123=VECTOR('Line Direction',#122,1.) ;
#132=VECTOR('Line Direction',#131,1.) ;
#146=VECTOR('Line Direction',#145,1.) ;
#153=VECTOR('Line Direction',#152,1.) ;
#160=VECTOR('Line Direction',#159,1.) ;
#174=VECTOR('Line Direction',#173,1.) ;
#195=VECTOR('Line Direction',#194,1.) ;
#202=VECTOR('Line Direction',#201,1.) ;
#209=VECTOR('Line Direction',#208,1.) ;
#230=VECTOR('Line Direction',#229,1.) ;
#254=VECTOR('Line Direction',#253,1.) ;
#261=VECTOR('Line Direction',#260,1.) ;
#272=VECTOR('Line Direction',#271,1.) ;
#281=VECTOR('Line Direction',#280,1.) ;
#288=VECTOR('Line Direction',#287,1.) ;
#295=VECTOR('Line Direction',#294,1.) ;
#302=VECTOR('Line Direction',#301,1.) ;
#309=VECTOR('Line Direction',#308,1.) ;
#400=VECTOR('Line Direction',#399,1.) ;
#407=VECTOR('Line Direction',#406,1.) ;
#424=VECTOR('Line Direction',#423,1.) ;
#431=VECTOR('Line Direction',#430,1.) ;
#442=VECTOR('Line Direction',#441,1.) ;
#451=VECTOR('Line Direction',#450,1.) ;
#458=VECTOR('Line Direction',#457,1.) ;
#465=VECTOR('Line Direction',#464,1.) ;
#472=VECTOR('Line Direction',#471,1.) ;
#479=VECTOR('Line Direction',#478,1.) ;
#577=VECTOR('Line Direction',#576,1.) ;
#594=VECTOR('Line Direction',#593,1.) ;
#601=VECTOR('Line Direction',#600,1.) ;
#618=VECTOR('Line Direction',#617,1.) ;
#651=VECTOR('Line Direction',#650,1.) ;
#656=VECTOR('Line Direction',#655,1.) ;
#673=VECTOR('Line Direction',#672,1.) ;
#690=VECTOR('Line Direction',#689,1.) ;
#707=VECTOR('Line Direction',#706,1.) ;
#724=VECTOR('Line Direction',#723,1.) ;
#753=VECTOR('Line Direction',#752,1.) ;
#758=VECTOR('Line Direction',#757,1.) ;
#782=VECTOR('Line Direction',#781,1.) ;
#787=VECTOR('Line Direction',#786,1.) ;
#811=VECTOR('Line Direction',#810,1.) ;
#816=VECTOR('Line Direction',#815,1.) ;
#840=VECTOR('Line Direction',#839,1.) ;
#845=VECTOR('Line Direction',#844,1.) ;
#893=VECTOR('Line Direction',#892,1.) ;
#898=VECTOR('Line Direction',#897,1.) ;
#32=DIRECTION('Axis2P3D Direction',(-1.,0.,0.)) ;
#33=DIRECTION('Axis2P3D XDirection',(0.,-1.,0.)) ;
#37=DIRECTION('Vector Direction',(-1.,0.,0.)) ;
#46=DIRECTION('Axis2P3D Direction',(-1.,0.,0.)) ;
#53=DIRECTION('Vector Direction',(-1.,0.,0.)) ;
#60=DIRECTION('Axis2P3D Direction',(-1.,0.,0.)) ;
#72=DIRECTION('Axis2P3D Direction',(-1.,0.,0.)) ;
#77=DIRECTION('Axis2P3D Direction',(-1.,0.,0.)) ;
#89=DIRECTION('Axis2P3D Direction',(-1.,0.,0.)) ;
#90=DIRECTION('Axis2P3D XDirection',(0.,-1.,0.)) ;
#98=DIRECTION('Axis2P3D Direction',(-1.,0.,0.)) ;
#107=DIRECTION('Axis2P3D Direction',(-1.,0.,0.)) ;
#117=DIRECTION('Axis2P3D Direction',(0.,0.,1.)) ;
#118=DIRECTION('Axis2P3D XDirection',(1.,0.,0.)) ;
#122=DIRECTION('Vector Direction',(-1.,0.,0.)) ;
#131=DIRECTION('Vector Direction',(0.,-1.,0.)) ;
#138=DIRECTION('Axis2P3D Direction',(0.,0.,1.)) ;
#145=DIRECTION('Vector Direction',(1.,0.,0.)) ;
#152=DIRECTION('Vector Direction',(0.,1.,0.)) ;
#159=DIRECTION('Vector Direction',(1.,0.,0.)) ;
#166=DIRECTION('Axis2P3D Direction',(0.,0.,1.)) ;
#173=DIRECTION('Vector Direction',(0.,-1.,0.)) ;
#189=DIRECTION('Axis2P3D Direction',(-1.,0.,0.)) ;
#190=DIRECTION('Axis2P3D XDirection',(0.,-1.,0.)) ;
#194=DIRECTION('Vector Direction',(0.,0.,1.)) ;
#201=DIRECTION('Vector Direction',(0.,0.,1.)) ;
#208=DIRECTION('Vector Direction',(0.,-1.,0.)) ;
#224=DIRECTION('Axis2P3D Direction',(0.,0.,1.)) ;
#225=DIRECTION('Axis2P3D XDirection',(-1.,-3.21624529935E-16,-0.)) ;
#229=DIRECTION('Vector Direction',(0.,0.,1.)) ;
#236=DIRECTION('Axis2P3D Direction',(0.,0.,1.)) ;
#248=DIRECTION('Axis2P3D Direction',(0.,-1.,0.)) ;
#249=DIRECTION('Axis2P3D XDirection',(1.,0.,0.)) ;
#253=DIRECTION('Vector Direction',(0.,0.,1.)) ;
#260=DIRECTION('Vector Direction',(1.,0.,0.)) ;
#271=DIRECTION('Vector Direction',(0.,0.,1.)) ;
#280=DIRECTION('Vector Direction',(0.866025403451,0.,0.500000000578)) ;
#287=DIRECTION('Vector Direction',(0.866025404181,0.,-0.499999999313)) ;
#294=DIRECTION('Vector Direction',(-3.77254784713E-10,0.,-1.)) ;
#301=DIRECTION('Vector Direction',(-0.866025404181,0.,-0.499999999313)) ;
#308=DIRECTION('Vector Direction',(-0.866025403451,0.,0.500000000578)) ;
#321=DIRECTION('Axis2P3D Direction',(0.,-1.,0.)) ;
#330=DIRECTION('Axis2P3D Direction',(0.,-1.,0.)) ;
#339=DIRECTION('Axis2P3D Direction',(0.,-1.,0.)) ;
#348=DIRECTION('Axis2P3D Direction',(0.,-1.,0.)) ;
#357=DIRECTION('Axis2P3D Direction',(0.,-1.,0.)) ;
#366=DIRECTION('Axis2P3D Direction',(0.,-1.,0.)) ;
#375=DIRECTION('Axis2P3D Direction',(0.,-1.,0.)) ;
#384=DIRECTION('Axis2P3D Direction',(0.,-1.,0.)) ;
#394=DIRECTION('Axis2P3D Direction',(1.,0.,0.)) ;
#395=DIRECTION('Axis2P3D XDirection',(0.,1.,0.)) ;
#399=DIRECTION('Vector Direction',(0.,0.,1.)) ;
#406=DIRECTION('Vector Direction',(0.,1.,0.)) ;
#418=DIRECTION('Axis2P3D Direction',(0.,-1.,0.)) ;
#419=DIRECTION('Axis2P3D XDirection',(1.,0.,0.)) ;
#423=DIRECTION('Vector Direction',(1.,0.,0.)) ;
#430=DIRECTION('Vector Direction',(0.,0.,1.)) ;
#441=DIRECTION('Vector Direction',(-0.866025403451,0.,0.500000000578)) ;
#450=DIRECTION('Vector Direction',(-0.866025404181,0.,-0.499999999313)) ;
#457=DIRECTION('Vector Direction',(-3.7725478474E-10,0.,-1.)) ;
#464=DIRECTION('Vector Direction',(0.866025404181,0.,-0.499999999313)) ;
#471=DIRECTION('Vector Direction',(0.866025403451,0.,0.500000000578)) ;
#478=DIRECTION('Vector Direction',(0.,0.,1.)) ;
#491=DIRECTION('Axis2P3D Direction',(0.,-1.,0.)) ;
#500=DIRECTION('Axis2P3D Direction',(0.,-1.,0.)) ;
#509=DIRECTION('Axis2P3D Direction',(0.,-1.,0.)) ;
#518=DIRECTION('Axis2P3D Direction',(0.,-1.,0.)) ;
#527=DIRECTION('Axis2P3D Direction',(0.,-1.,0.)) ;
#536=DIRECTION('Axis2P3D Direction',(0.,-1.,0.)) ;
#545=DIRECTION('Axis2P3D Direction',(0.,-1.,0.)) ;
#554=DIRECTION('Axis2P3D Direction',(0.,-1.,0.)) ;
#564=DIRECTION('Axis2P3D Direction',(0.,0.,1.)) ;
#565=DIRECTION('Axis2P3D XDirection',(-1.,-3.21624529935E-16,-0.)) ;
#569=DIRECTION('Axis2P3D Direction',(0.,0.,1.)) ;
#576=DIRECTION('Vector Direction',(0.,0.,1.)) ;
#588=DIRECTION('Axis2P3D Direction',(-1.,0.,0.)) ;
#589=DIRECTION('Axis2P3D XDirection',(0.,-1.,0.)) ;
#593=DIRECTION('Vector Direction',(0.,-1.,0.)) ;
#600=DIRECTION('Vector Direction',(0.,0.,1.)) ;
#612=DIRECTION('Axis2P3D Direction',(4.73695157173E-15,1.,-0.)) ;
#613=DIRECTION('Axis2P3D XDirection',(-1.,4.73695157173E-15,0.)) ;
#617=DIRECTION('Vector Direction',(-1.,4.73695157173E-15,0.)) ;
#629=DIRECTION('Axis2P3D Direction',(0.,0.,1.)) ;
#630=DIRECTION('Axis2P3D XDirection',(1.,0.,0.)) ;
#645=DIRECTION('Axis2P3D Direction',(1.,0.,-0.)) ;
#646=DIRECTION('Axis2P3D XDirection',(0.,0.,1.)) ;
#650=DIRECTION('Vector Direction',(0.,-1.,0.)) ;
#655=DIRECTION('Vector Direction',(0.,-1.,0.)) ;
#667=DIRECTION('Axis2P3D Direction',(0.500000000578,0.,-0.866025403451)) ;
#668=DIRECTION('Axis2P3D XDirection',(0.866025403451,0.,0.500000000578)) ;
#672=DIRECTION('Vector Direction',(0.,-1.,0.)) ;
#684=DIRECTION('Axis2P3D Direction',(-0.499999999313,-0.,-0.866025404181)) ;
#685=DIRECTION('Axis2P3D XDirection',(0.866025404181,0.,-0.499999999313)) ;
#689=DIRECTION('Vector Direction',(0.,-1.,0.)) ;
#701=DIRECTION('Axis2P3D Direction',(-1.,0.,3.7725478474E-10)) ;
#702=DIRECTION('Axis2P3D XDirection',(-3.7725478474E-10,0.,-1.)) ;
#706=DIRECTION('Vector Direction',(0.,-1.,0.)) ;
#718=DIRECTION('Axis2P3D Direction',(-0.499999999313,0.,0.866025404181)) ;
#719=DIRECTION('Axis2P3D XDirection',(-0.866025404181,0.,-0.499999999313)) ;
#723=DIRECTION('Vector Direction',(0.,-1.,0.)) ;
#735=DIRECTION('Axis2P3D Direction',(0.500000000578,0.,0.866025403451)) ;
#736=DIRECTION('Axis2P3D XDirection',(-0.866025403451,0.,0.500000000578)) ;
#747=DIRECTION('Axis2P3D Direction',(0.,1.,-0.)) ;
#748=DIRECTION('Axis2P3D XDirection',(-1.,0.,0.)) ;
#752=DIRECTION('Vector Direction',(0.,1.,0.)) ;
#757=DIRECTION('Vector Direction',(0.,1.,0.)) ;
#776=DIRECTION('Axis2P3D Direction',(0.,1.,-0.)) ;
#777=DIRECTION('Axis2P3D XDirection',(-1.,0.,0.)) ;
#781=DIRECTION('Vector Direction',(0.,1.,0.)) ;
#786=DIRECTION('Vector Direction',(0.,1.,0.)) ;
#805=DIRECTION('Axis2P3D Direction',(0.,1.,-0.)) ;
#806=DIRECTION('Axis2P3D XDirection',(1.,0.,5.66553889765E-16)) ;
#810=DIRECTION('Vector Direction',(0.,1.,0.)) ;
#815=DIRECTION('Vector Direction',(0.,1.,0.)) ;
#834=DIRECTION('Axis2P3D Direction',(0.,1.,-0.)) ;
#835=DIRECTION('Axis2P3D XDirection',(1.,0.,5.66553889765E-16)) ;
#839=DIRECTION('Vector Direction',(0.,1.,0.)) ;
#844=DIRECTION('Vector Direction',(0.,1.,0.)) ;
#863=DIRECTION('Axis2P3D Direction',(-1.,0.,0.)) ;
#864=DIRECTION('Axis2P3D XDirection',(0.,-1.,0.)) ;
#868=DIRECTION('Axis2P3D Direction',(-1.,0.,0.)) ;
#877=DIRECTION('Axis2P3D Direction',(-1.,0.,0.)) ;
#887=DIRECTION('Axis2P3D Direction',(-1.,0.,0.)) ;
#888=DIRECTION('Axis2P3D XDirection',(0.,-1.,0.)) ;
#892=DIRECTION('Vector Direction',(-1.,0.,0.)) ;
#897=DIRECTION('Vector Direction',(-1.,0.,0.)) ;
#916=SHAPE_REPRESENTATION_RELATIONSHIP(' ',' ',#19,#915) ;
#18=AXIS2_PLACEMENT_3D(' ',#17,$,$) ;
#34=AXIS2_PLACEMENT_3D('Cylinder Axis2P3D',#31,#32,#33) ;
#47=AXIS2_PLACEMENT_3D('Circle Axis2P3D',#45,#46,$) ;
#61=AXIS2_PLACEMENT_3D('Circle Axis2P3D',#59,#60,$) ;
#73=AXIS2_PLACEMENT_3D('Circle Axis2P3D',#71,#72,$) ;
#78=AXIS2_PLACEMENT_3D('Circle Axis2P3D',#76,#77,$) ;
#91=AXIS2_PLACEMENT_3D('Plane Axis2P3D',#88,#89,#90) ;
#99=AXIS2_PLACEMENT_3D('Circle Axis2P3D',#97,#98,$) ;
#108=AXIS2_PLACEMENT_3D('Circle Axis2P3D',#106,#107,$) ;
#119=AXIS2_PLACEMENT_3D('Plane Axis2P3D',#116,#117,#118) ;
#139=AXIS2_PLACEMENT_3D('Circle Axis2P3D',#137,#138,$) ;
#167=AXIS2_PLACEMENT_3D('Circle Axis2P3D',#165,#166,$) ;
#191=AXIS2_PLACEMENT_3D('Plane Axis2P3D',#188,#189,#190) ;
#226=AXIS2_PLACEMENT_3D('Cylinder Axis2P3D',#223,#224,#225) ;
#237=AXIS2_PLACEMENT_3D('Circle Axis2P3D',#235,#236,$) ;
#250=AXIS2_PLACEMENT_3D('Plane Axis2P3D',#247,#248,#249) ;
#322=AXIS2_PLACEMENT_3D('Circle Axis2P3D',#320,#321,$) ;
#331=AXIS2_PLACEMENT_3D('Circle Axis2P3D',#329,#330,$) ;
#340=AXIS2_PLACEMENT_3D('Circle Axis2P3D',#338,#339,$) ;
#349=AXIS2_PLACEMENT_3D('Circle Axis2P3D',#347,#348,$) ;
#358=AXIS2_PLACEMENT_3D('Circle Axis2P3D',#356,#357,$) ;
#367=AXIS2_PLACEMENT_3D('Circle Axis2P3D',#365,#366,$) ;
#376=AXIS2_PLACEMENT_3D('Circle Axis2P3D',#374,#375,$) ;
#385=AXIS2_PLACEMENT_3D('Circle Axis2P3D',#383,#384,$) ;
#396=AXIS2_PLACEMENT_3D('Plane Axis2P3D',#393,#394,#395) ;
#420=AXIS2_PLACEMENT_3D('Plane Axis2P3D',#417,#418,#419) ;
#492=AXIS2_PLACEMENT_3D('Circle Axis2P3D',#490,#491,$) ;
#501=AXIS2_PLACEMENT_3D('Circle Axis2P3D',#499,#500,$) ;
#510=AXIS2_PLACEMENT_3D('Circle Axis2P3D',#508,#509,$) ;
#519=AXIS2_PLACEMENT_3D('Circle Axis2P3D',#517,#518,$) ;
#528=AXIS2_PLACEMENT_3D('Circle Axis2P3D',#526,#527,$) ;
#537=AXIS2_PLACEMENT_3D('Circle Axis2P3D',#535,#536,$) ;
#546=AXIS2_PLACEMENT_3D('Circle Axis2P3D',#544,#545,$) ;
#555=AXIS2_PLACEMENT_3D('Circle Axis2P3D',#553,#554,$) ;
#566=AXIS2_PLACEMENT_3D('Cylinder Axis2P3D',#563,#564,#565) ;
#570=AXIS2_PLACEMENT_3D('Circle Axis2P3D',#568,#569,$) ;
#590=AXIS2_PLACEMENT_3D('Plane Axis2P3D',#587,#588,#589) ;
#614=AXIS2_PLACEMENT_3D('Plane Axis2P3D',#611,#612,#613) ;
#631=AXIS2_PLACEMENT_3D('Plane Axis2P3D',#628,#629,#630) ;
#647=AXIS2_PLACEMENT_3D('Plane Axis2P3D',#644,#645,#646) ;
#669=AXIS2_PLACEMENT_3D('Plane Axis2P3D',#666,#667,#668) ;
#686=AXIS2_PLACEMENT_3D('Plane Axis2P3D',#683,#684,#685) ;
#703=AXIS2_PLACEMENT_3D('Plane Axis2P3D',#700,#701,#702) ;
#720=AXIS2_PLACEMENT_3D('Plane Axis2P3D',#717,#718,#719) ;
#737=AXIS2_PLACEMENT_3D('Plane Axis2P3D',#734,#735,#736) ;
#749=AXIS2_PLACEMENT_3D('Cylinder Axis2P3D',#746,#747,#748) ;
#778=AXIS2_PLACEMENT_3D('Cylinder Axis2P3D',#775,#776,#777) ;
#807=AXIS2_PLACEMENT_3D('Cylinder Axis2P3D',#804,#805,#806) ;
#836=AXIS2_PLACEMENT_3D('Cylinder Axis2P3D',#833,#834,#835) ;
#865=AXIS2_PLACEMENT_3D('Plane Axis2P3D',#862,#863,#864) ;
#869=AXIS2_PLACEMENT_3D('Circle Axis2P3D',#867,#868,$) ;
#878=AXIS2_PLACEMENT_3D('Circle Axis2P3D',#876,#877,$) ;
#889=AXIS2_PLACEMENT_3D('Cylinder Axis2P3D',#886,#887,#888) ;
#39=LINE('Line',#36,#38) ;
#55=LINE('Line',#52,#54) ;
#124=LINE('Line',#121,#123) ;
#133=LINE('Line',#130,#132) ;
#147=LINE('Line',#144,#146) ;
#154=LINE('Line',#151,#153) ;
#161=LINE('Line',#158,#160) ;
#175=LINE('Line',#172,#174) ;
#196=LINE('Line',#193,#195) ;
#203=LINE('Line',#200,#202) ;
#210=LINE('Line',#207,#209) ;
#231=LINE('Line',#228,#230) ;
#255=LINE('Line',#252,#254) ;
#262=LINE('Line',#259,#261) ;
#273=LINE('Line',#270,#272) ;
#282=LINE('Line',#279,#281) ;
#289=LINE('Line',#286,#288) ;
#296=LINE('Line',#293,#295) ;
#303=LINE('Line',#300,#302) ;
#310=LINE('Line',#307,#309) ;
#401=LINE('Line',#398,#400) ;
#408=LINE('Line',#405,#407) ;
#425=LINE('Line',#422,#424) ;
#432=LINE('Line',#429,#431) ;
#443=LINE('Line',#440,#442) ;
#452=LINE('Line',#449,#451) ;
#459=LINE('Line',#456,#458) ;
#466=LINE('Line',#463,#465) ;
#473=LINE('Line',#470,#472) ;
#480=LINE('Line',#477,#479) ;
#578=LINE('Line',#575,#577) ;
#595=LINE('Line',#592,#594) ;
#602=LINE('Line',#599,#601) ;
#619=LINE('Line',#616,#618) ;
#652=LINE('Line',#649,#651) ;
#657=LINE('Line',#654,#656) ;
#674=LINE('Line',#671,#673) ;
#691=LINE('Line',#688,#690) ;
#708=LINE('Line',#705,#707) ;
#725=LINE('Line',#722,#724) ;
#754=LINE('Line',#751,#753) ;
#759=LINE('Line',#756,#758) ;
#783=LINE('Line',#780,#782) ;
#788=LINE('Line',#785,#787) ;
#812=LINE('Line',#809,#811) ;
#817=LINE('Line',#814,#816) ;
#841=LINE('Line',#838,#840) ;
#846=LINE('Line',#843,#845) ;
#894=LINE('Line',#891,#893) ;
#899=LINE('Line',#896,#898) ;
#48=CIRCLE('generated circle',#47,9.5) ;
#62=CIRCLE('generated circle',#61,9.5) ;
#74=CIRCLE('generated circle',#73,9.5) ;
#79=CIRCLE('generated circle',#78,9.5) ;
#100=CIRCLE('generated circle',#99,7.5) ;
#109=CIRCLE('generated circle',#108,7.5) ;
#140=CIRCLE('generated circle',#139,2.) ;
#168=CIRCLE('generated circle',#167,5.) ;
#238=CIRCLE('generated circle',#237,5.) ;
#323=CIRCLE('generated circle',#322,2.6) ;
#332=CIRCLE('generated circle',#331,2.6) ;
#341=CIRCLE('generated circle',#340,2.6) ;
#350=CIRCLE('generated circle',#349,2.6) ;
#359=CIRCLE('generated circle',#358,2.6) ;
#368=CIRCLE('generated circle',#367,2.6) ;
#377=CIRCLE('generated circle',#376,2.6) ;
#386=CIRCLE('generated circle',#385,2.6) ;
#493=CIRCLE('generated circle',#492,2.6) ;
#502=CIRCLE('generated circle',#501,2.6) ;
#511=CIRCLE('generated circle',#510,2.6) ;
#520=CIRCLE('generated circle',#519,2.6) ;
#529=CIRCLE('generated circle',#528,2.6) ;
#538=CIRCLE('generated circle',#537,2.6) ;
#547=CIRCLE('generated circle',#546,2.6) ;
#556=CIRCLE('generated circle',#555,2.6) ;
#571=CIRCLE('generated circle',#570,2.) ;
#870=CIRCLE('generated circle',#869,7.5) ;
#879=CIRCLE('generated circle',#878,7.5) ;
#92=PLANE('',#91) ;
#120=PLANE('',#119) ;
#192=PLANE('',#191) ;
#251=PLANE('',#250) ;
#397=PLANE('',#396) ;
#421=PLANE('',#420) ;
#591=PLANE('',#590) ;
#615=PLANE('',#614) ;
#632=PLANE('',#631) ;
#648=PLANE('',#647) ;
#670=PLANE('',#669) ;
#687=PLANE('',#686) ;
#704=PLANE('',#703) ;
#721=PLANE('',#720) ;
#738=PLANE('',#737) ;
#866=PLANE('',#865) ;
#35=CYLINDRICAL_SURFACE('generated cylinder',#34,9.5) ;
#227=CYLINDRICAL_SURFACE('generated cylinder',#226,5.) ;
#567=CYLINDRICAL_SURFACE('generated cylinder',#566,2.) ;
#750=CYLINDRICAL_SURFACE('generated cylinder',#749,2.6) ;
#779=CYLINDRICAL_SURFACE('generated cylinder',#778,2.6) ;
#808=CYLINDRICAL_SURFACE('generated cylinder',#807,2.6) ;
#837=CYLINDRICAL_SURFACE('generated cylinder',#836,2.6) ;
#890=CYLINDRICAL_SURFACE('generated cylinder',#889,7.5) ;
#114=FACE_BOUND('',#111,.T.) ;
#221=FACE_BOUND('',#218,.T.) ;
#319=FACE_BOUND('',#312,.T.) ;
#337=FACE_BOUND('',#334,.T.) ;
#355=FACE_BOUND('',#352,.T.) ;
#373=FACE_BOUND('',#370,.T.) ;
#391=FACE_BOUND('',#388,.T.) ;
#489=FACE_BOUND('',#482,.T.) ;
#507=FACE_BOUND('',#504,.T.) ;
#525=FACE_BOUND('',#522,.T.) ;
#543=FACE_BOUND('',#540,.T.) ;
#561=FACE_BOUND('',#558,.T.) ;
#44=EDGE_CURVE('',#41,#43,#39,.T.) ;
#51=EDGE_CURVE('',#41,#50,#48,.T.) ;
#58=EDGE_CURVE('',#50,#57,#55,.T.) ;
#63=EDGE_CURVE('',#43,#57,#62,.T.) ;
#75=EDGE_CURVE('',#50,#41,#74,.T.) ;
#80=EDGE_CURVE('',#57,#43,#79,.T.) ;
#105=EDGE_CURVE('',#102,#104,#100,.T.) ;
#110=EDGE_CURVE('',#104,#102,#109,.T.) ;
#129=EDGE_CURVE('',#126,#128,#124,.T.) ;
#136=EDGE_CURVE('',#126,#135,#133,.T.) ;
#143=EDGE_CURVE('',#135,#142,#140,.T.) ;
#150=EDGE_CURVE('',#142,#149,#147,.T.) ;
#157=EDGE_CURVE('',#156,#149,#154,.T.) ;
#164=EDGE_CURVE('',#163,#156,#161,.T.) ;
#171=EDGE_CURVE('',#170,#163,#168,.T.) ;
#176=EDGE_CURVE('',#128,#170,#175,.T.) ;
#199=EDGE_CURVE('',#128,#198,#196,.T.) ;
#206=EDGE_CURVE('',#170,#205,#203,.T.) ;
#211=EDGE_CURVE('',#198,#205,#210,.T.) ;
#234=EDGE_CURVE('',#163,#233,#231,.T.) ;
#239=EDGE_CURVE('',#205,#233,#238,.T.) ;
#258=EDGE_CURVE('',#156,#257,#255,.T.) ;
#263=EDGE_CURVE('',#233,#257,#262,.T.) ;
#278=EDGE_CURVE('',#275,#277,#273,.T.) ;
#285=EDGE_CURVE('',#277,#284,#282,.T.) ;
#292=EDGE_CURVE('',#284,#291,#289,.T.) ;
#299=EDGE_CURVE('',#291,#298,#296,.T.) ;
#306=EDGE_CURVE('',#298,#305,#303,.T.) ;
#311=EDGE_CURVE('',#305,#275,#310,.T.) ;
#328=EDGE_CURVE('',#325,#327,#323,.T.) ;
#333=EDGE_CURVE('',#327,#325,#332,.T.) ;
#346=EDGE_CURVE('',#343,#345,#341,.T.) ;
#351=EDGE_CURVE('',#345,#343,#350,.T.) ;
#364=EDGE_CURVE('',#361,#363,#359,.T.) ;
#369=EDGE_CURVE('',#363,#361,#368,.T.) ;
#382=EDGE_CURVE('',#379,#381,#377,.T.) ;
#387=EDGE_CURVE('',#381,#379,#386,.T.) ;
#404=EDGE_CURVE('',#149,#403,#401,.T.) ;
#409=EDGE_CURVE('',#257,#403,#408,.T.) ;
#428=EDGE_CURVE('',#427,#403,#425,.T.) ;
#433=EDGE_CURVE('',#142,#427,#432,.T.) ;
#448=EDGE_CURVE('',#445,#447,#443,.T.) ;
#455=EDGE_CURVE('',#454,#445,#452,.T.) ;
#462=EDGE_CURVE('',#461,#454,#459,.T.) ;
#469=EDGE_CURVE('',#468,#461,#466,.T.) ;
#476=EDGE_CURVE('',#475,#468,#473,.T.) ;
#481=EDGE_CURVE('',#447,#475,#480,.T.) ;
#498=EDGE_CURVE('',#495,#497,#493,.F.) ;
#503=EDGE_CURVE('',#497,#495,#502,.F.) ;
#516=EDGE_CURVE('',#513,#515,#511,.F.) ;
#521=EDGE_CURVE('',#515,#513,#520,.F.) ;
#534=EDGE_CURVE('',#531,#533,#529,.F.) ;
#539=EDGE_CURVE('',#533,#531,#538,.F.) ;
#552=EDGE_CURVE('',#549,#551,#547,.F.) ;
#557=EDGE_CURVE('',#551,#549,#556,.F.) ;
#574=EDGE_CURVE('',#573,#427,#571,.T.) ;
#579=EDGE_CURVE('',#135,#573,#578,.T.) ;
#598=EDGE_CURVE('',#597,#573,#595,.T.) ;
#603=EDGE_CURVE('',#126,#597,#602,.T.) ;
#620=EDGE_CURVE('',#597,#198,#619,.T.) ;
#653=EDGE_CURVE('',#447,#275,#652,.T.) ;
#658=EDGE_CURVE('',#475,#277,#657,.T.) ;
#675=EDGE_CURVE('',#468,#284,#674,.T.) ;
#692=EDGE_CURVE('',#461,#291,#691,.T.) ;
#709=EDGE_CURVE('',#454,#298,#708,.T.) ;
#726=EDGE_CURVE('',#445,#305,#725,.T.) ;
#755=EDGE_CURVE('',#497,#327,#754,.F.) ;
#760=EDGE_CURVE('',#495,#325,#759,.F.) ;
#784=EDGE_CURVE('',#515,#345,#783,.F.) ;
#789=EDGE_CURVE('',#513,#343,#788,.F.) ;
#813=EDGE_CURVE('',#533,#363,#812,.F.) ;
#818=EDGE_CURVE('',#531,#361,#817,.F.) ;
#842=EDGE_CURVE('',#551,#381,#841,.F.) ;
#847=EDGE_CURVE('',#549,#379,#846,.F.) ;
#875=EDGE_CURVE('',#872,#874,#870,.T.) ;
#880=EDGE_CURVE('',#874,#872,#879,.T.) ;
#895=EDGE_CURVE('',#104,#874,#894,.T.) ;
#900=EDGE_CURVE('',#102,#872,#899,.T.) ;
#30=CLOSED_SHELL('Closed Shell',(#70,#87,#115,#187,#222,#246,#392,#416,#562,#586,#610,#627,#643,#665,#682,#699,#716,#733,#745,#767,#774,#796,#803,#825,#832,#854,#861,#885,#907,#914)) ;
#65=ORIENTED_EDGE('',*,*,#44,.F.) ;
#66=ORIENTED_EDGE('',*,*,#51,.T.) ;
#67=ORIENTED_EDGE('',*,*,#58,.T.) ;
#68=ORIENTED_EDGE('',*,*,#63,.F.) ;
#82=ORIENTED_EDGE('',*,*,#58,.F.) ;
#83=ORIENTED_EDGE('',*,*,#75,.T.) ;
#84=ORIENTED_EDGE('',*,*,#44,.T.) ;
#85=ORIENTED_EDGE('',*,*,#80,.F.) ;
#94=ORIENTED_EDGE('',*,*,#63,.T.) ;
#95=ORIENTED_EDGE('',*,*,#80,.T.) ;
#112=ORIENTED_EDGE('',*,*,#105,.F.) ;
#113=ORIENTED_EDGE('',*,*,#110,.F.) ;
#178=ORIENTED_EDGE('',*,*,#129,.F.) ;
#179=ORIENTED_EDGE('',*,*,#136,.T.) ;
#180=ORIENTED_EDGE('',*,*,#143,.T.) ;
#181=ORIENTED_EDGE('',*,*,#150,.T.) ;
#182=ORIENTED_EDGE('',*,*,#157,.F.) ;
#183=ORIENTED_EDGE('',*,*,#164,.F.) ;
#184=ORIENTED_EDGE('',*,*,#171,.F.) ;
#185=ORIENTED_EDGE('',*,*,#176,.F.) ;
#213=ORIENTED_EDGE('',*,*,#199,.F.) ;
#214=ORIENTED_EDGE('',*,*,#176,.T.) ;
#215=ORIENTED_EDGE('',*,*,#206,.T.) ;
#216=ORIENTED_EDGE('',*,*,#211,.F.) ;
#219=ORIENTED_EDGE('',*,*,#51,.F.) ;
#220=ORIENTED_EDGE('',*,*,#75,.F.) ;
#241=ORIENTED_EDGE('',*,*,#206,.F.) ;
#242=ORIENTED_EDGE('',*,*,#171,.T.) ;
#243=ORIENTED_EDGE('',*,*,#234,.T.) ;
#244=ORIENTED_EDGE('',*,*,#239,.F.) ;
#265=ORIENTED_EDGE('',*,*,#234,.F.) ;
#266=ORIENTED_EDGE('',*,*,#164,.T.) ;
#267=ORIENTED_EDGE('',*,*,#258,.T.) ;
#268=ORIENTED_EDGE('',*,*,#263,.F.) ;
#313=ORIENTED_EDGE('',*,*,#278,.T.) ;
#314=ORIENTED_EDGE('',*,*,#285,.T.) ;
#315=ORIENTED_EDGE('',*,*,#292,.T.) ;
#316=ORIENTED_EDGE('',*,*,#299,.T.) ;
#317=ORIENTED_EDGE('',*,*,#306,.T.) ;
#318=ORIENTED_EDGE('',*,*,#311,.T.) ;
#335=ORIENTED_EDGE('',*,*,#328,.F.) ;
#336=ORIENTED_EDGE('',*,*,#333,.F.) ;
#353=ORIENTED_EDGE('',*,*,#346,.F.) ;
#354=ORIENTED_EDGE('',*,*,#351,.F.) ;
#371=ORIENTED_EDGE('',*,*,#364,.F.) ;
#372=ORIENTED_EDGE('',*,*,#369,.F.) ;
#389=ORIENTED_EDGE('',*,*,#382,.F.) ;
#390=ORIENTED_EDGE('',*,*,#387,.F.) ;
#411=ORIENTED_EDGE('',*,*,#258,.F.) ;
#412=ORIENTED_EDGE('',*,*,#157,.T.) ;
#413=ORIENTED_EDGE('',*,*,#404,.T.) ;
#414=ORIENTED_EDGE('',*,*,#409,.F.) ;
#435=ORIENTED_EDGE('',*,*,#428,.T.) ;
#436=ORIENTED_EDGE('',*,*,#404,.F.) ;
#437=ORIENTED_EDGE('',*,*,#150,.F.) ;
#438=ORIENTED_EDGE('',*,*,#433,.T.) ;
#483=ORIENTED_EDGE('',*,*,#448,.F.) ;
#484=ORIENTED_EDGE('',*,*,#455,.F.) ;
#485=ORIENTED_EDGE('',*,*,#462,.F.) ;
#486=ORIENTED_EDGE('',*,*,#469,.F.) ;
#487=ORIENTED_EDGE('',*,*,#476,.F.) ;
#488=ORIENTED_EDGE('',*,*,#481,.F.) ;
#505=ORIENTED_EDGE('',*,*,#498,.F.) ;
#506=ORIENTED_EDGE('',*,*,#503,.F.) ;
#523=ORIENTED_EDGE('',*,*,#516,.F.) ;
#524=ORIENTED_EDGE('',*,*,#521,.F.) ;
#541=ORIENTED_EDGE('',*,*,#534,.F.) ;
#542=ORIENTED_EDGE('',*,*,#539,.F.) ;
#559=ORIENTED_EDGE('',*,*,#552,.F.) ;
#560=ORIENTED_EDGE('',*,*,#557,.F.) ;
#581=ORIENTED_EDGE('',*,*,#574,.T.) ;
#582=ORIENTED_EDGE('',*,*,#433,.F.) ;
#583=ORIENTED_EDGE('',*,*,#143,.F.) ;
#584=ORIENTED_EDGE('',*,*,#579,.T.) ;
#605=ORIENTED_EDGE('',*,*,#598,.T.) ;
#606=ORIENTED_EDGE('',*,*,#579,.F.) ;
#607=ORIENTED_EDGE('',*,*,#136,.F.) ;
#608=ORIENTED_EDGE('',*,*,#603,.T.) ;
#622=ORIENTED_EDGE('',*,*,#603,.F.) ;
#623=ORIENTED_EDGE('',*,*,#129,.T.) ;
#624=ORIENTED_EDGE('',*,*,#199,.T.) ;
#625=ORIENTED_EDGE('',*,*,#620,.F.) ;
#634=ORIENTED_EDGE('',*,*,#211,.T.) ;
#635=ORIENTED_EDGE('',*,*,#239,.T.) ;
#636=ORIENTED_EDGE('',*,*,#263,.T.) ;
#637=ORIENTED_EDGE('',*,*,#409,.T.) ;
#638=ORIENTED_EDGE('',*,*,#428,.F.) ;
#639=ORIENTED_EDGE('',*,*,#574,.F.) ;
#640=ORIENTED_EDGE('',*,*,#598,.F.) ;
#641=ORIENTED_EDGE('',*,*,#620,.T.) ;
#660=ORIENTED_EDGE('',*,*,#653,.F.) ;
#661=ORIENTED_EDGE('',*,*,#481,.T.) ;
#662=ORIENTED_EDGE('',*,*,#658,.T.) ;
#663=ORIENTED_EDGE('',*,*,#278,.F.) ;
#677=ORIENTED_EDGE('',*,*,#658,.F.) ;
#678=ORIENTED_EDGE('',*,*,#476,.T.) ;
#679=ORIENTED_EDGE('',*,*,#675,.T.) ;
#680=ORIENTED_EDGE('',*,*,#285,.F.) ;
#694=ORIENTED_EDGE('',*,*,#675,.F.) ;
#695=ORIENTED_EDGE('',*,*,#469,.T.) ;
#696=ORIENTED_EDGE('',*,*,#692,.T.) ;
#697=ORIENTED_EDGE('',*,*,#292,.F.) ;
#711=ORIENTED_EDGE('',*,*,#692,.F.) ;
#712=ORIENTED_EDGE('',*,*,#462,.T.) ;
#713=ORIENTED_EDGE('',*,*,#709,.T.) ;
#714=ORIENTED_EDGE('',*,*,#299,.F.) ;
#728=ORIENTED_EDGE('',*,*,#709,.F.) ;
#729=ORIENTED_EDGE('',*,*,#455,.T.) ;
#730=ORIENTED_EDGE('',*,*,#726,.T.) ;
#731=ORIENTED_EDGE('',*,*,#306,.F.) ;
#740=ORIENTED_EDGE('',*,*,#726,.F.) ;
#741=ORIENTED_EDGE('',*,*,#448,.T.) ;
#742=ORIENTED_EDGE('',*,*,#653,.T.) ;
#743=ORIENTED_EDGE('',*,*,#311,.F.) ;
#762=ORIENTED_EDGE('',*,*,#328,.T.) ;
#763=ORIENTED_EDGE('',*,*,#755,.F.) ;
#764=ORIENTED_EDGE('',*,*,#503,.T.) ;
#765=ORIENTED_EDGE('',*,*,#760,.T.) ;
#769=ORIENTED_EDGE('',*,*,#333,.T.) ;
#770=ORIENTED_EDGE('',*,*,#760,.F.) ;
#771=ORIENTED_EDGE('',*,*,#498,.T.) ;
#772=ORIENTED_EDGE('',*,*,#755,.T.) ;
#791=ORIENTED_EDGE('',*,*,#346,.T.) ;
#792=ORIENTED_EDGE('',*,*,#784,.F.) ;
#793=ORIENTED_EDGE('',*,*,#521,.T.) ;
#794=ORIENTED_EDGE('',*,*,#789,.T.) ;
#798=ORIENTED_EDGE('',*,*,#351,.T.) ;
#799=ORIENTED_EDGE('',*,*,#789,.F.) ;
#800=ORIENTED_EDGE('',*,*,#516,.T.) ;
#801=ORIENTED_EDGE('',*,*,#784,.T.) ;
#820=ORIENTED_EDGE('',*,*,#364,.T.) ;
#821=ORIENTED_EDGE('',*,*,#813,.F.) ;
#822=ORIENTED_EDGE('',*,*,#539,.T.) ;
#823=ORIENTED_EDGE('',*,*,#818,.T.) ;
#827=ORIENTED_EDGE('',*,*,#369,.T.) ;
#828=ORIENTED_EDGE('',*,*,#818,.F.) ;
#829=ORIENTED_EDGE('',*,*,#534,.T.) ;
#830=ORIENTED_EDGE('',*,*,#813,.T.) ;
#849=ORIENTED_EDGE('',*,*,#382,.T.) ;
#850=ORIENTED_EDGE('',*,*,#842,.F.) ;
#851=ORIENTED_EDGE('',*,*,#557,.T.) ;
#852=ORIENTED_EDGE('',*,*,#847,.T.) ;
#856=ORIENTED_EDGE('',*,*,#387,.T.) ;
#857=ORIENTED_EDGE('',*,*,#847,.F.) ;
#858=ORIENTED_EDGE('',*,*,#552,.T.) ;
#859=ORIENTED_EDGE('',*,*,#842,.T.) ;
#882=ORIENTED_EDGE('',*,*,#875,.T.) ;
#883=ORIENTED_EDGE('',*,*,#880,.T.) ;
#902=ORIENTED_EDGE('',*,*,#895,.T.) ;
#903=ORIENTED_EDGE('',*,*,#875,.F.) ;
#904=ORIENTED_EDGE('',*,*,#900,.F.) ;
#905=ORIENTED_EDGE('',*,*,#105,.T.) ;
#909=ORIENTED_EDGE('',*,*,#900,.T.) ;
#910=ORIENTED_EDGE('',*,*,#880,.F.) ;
#911=ORIENTED_EDGE('',*,*,#895,.F.) ;
#912=ORIENTED_EDGE('',*,*,#110,.T.) ;
#64=EDGE_LOOP('',(#65,#66,#67,#68)) ;
#81=EDGE_LOOP('',(#82,#83,#84,#85)) ;
#93=EDGE_LOOP('',(#94,#95)) ;
#111=EDGE_LOOP('',(#112,#113)) ;
#177=EDGE_LOOP('',(#178,#179,#180,#181,#182,#183,#184,#185)) ;
#212=EDGE_LOOP('',(#213,#214,#215,#216)) ;
#218=EDGE_LOOP('',(#219,#220)) ;
#240=EDGE_LOOP('',(#241,#242,#243,#244)) ;
#264=EDGE_LOOP('',(#265,#266,#267,#268)) ;
#312=EDGE_LOOP('',(#313,#314,#315,#316,#317,#318)) ;
#334=EDGE_LOOP('',(#335,#336)) ;
#352=EDGE_LOOP('',(#353,#354)) ;
#370=EDGE_LOOP('',(#371,#372)) ;
#388=EDGE_LOOP('',(#389,#390)) ;
#410=EDGE_LOOP('',(#411,#412,#413,#414)) ;
#434=EDGE_LOOP('',(#435,#436,#437,#438)) ;
#482=EDGE_LOOP('',(#483,#484,#485,#486,#487,#488)) ;
#504=EDGE_LOOP('',(#505,#506)) ;
#522=EDGE_LOOP('',(#523,#524)) ;
#540=EDGE_LOOP('',(#541,#542)) ;
#558=EDGE_LOOP('',(#559,#560)) ;
#580=EDGE_LOOP('',(#581,#582,#583,#584)) ;
#604=EDGE_LOOP('',(#605,#606,#607,#608)) ;
#621=EDGE_LOOP('',(#622,#623,#624,#625)) ;
#633=EDGE_LOOP('',(#634,#635,#636,#637,#638,#639,#640,#641)) ;
#659=EDGE_LOOP('',(#660,#661,#662,#663)) ;
#676=EDGE_LOOP('',(#677,#678,#679,#680)) ;
#693=EDGE_LOOP('',(#694,#695,#696,#697)) ;
#710=EDGE_LOOP('',(#711,#712,#713,#714)) ;
#727=EDGE_LOOP('',(#728,#729,#730,#731)) ;
#739=EDGE_LOOP('',(#740,#741,#742,#743)) ;
#761=EDGE_LOOP('',(#762,#763,#764,#765)) ;
#768=EDGE_LOOP('',(#769,#770,#771,#772)) ;
#790=EDGE_LOOP('',(#791,#792,#793,#794)) ;
#797=EDGE_LOOP('',(#798,#799,#800,#801)) ;
#819=EDGE_LOOP('',(#820,#821,#822,#823)) ;
#826=EDGE_LOOP('',(#827,#828,#829,#830)) ;
#848=EDGE_LOOP('',(#849,#850,#851,#852)) ;
#855=EDGE_LOOP('',(#856,#857,#858,#859)) ;
#881=EDGE_LOOP('',(#882,#883)) ;
#901=EDGE_LOOP('',(#902,#903,#904,#905)) ;
#908=EDGE_LOOP('',(#909,#910,#911,#912)) ;
#21=MANIFOLD_SOLID_BREP('Corps principal',#30) ;
#41=VERTEX_POINT('',#40) ;
#43=VERTEX_POINT('',#42) ;
#50=VERTEX_POINT('',#49) ;
#57=VERTEX_POINT('',#56) ;
#102=VERTEX_POINT('',#101) ;
#104=VERTEX_POINT('',#103) ;
#126=VERTEX_POINT('',#125) ;
#128=VERTEX_POINT('',#127) ;
#135=VERTEX_POINT('',#134) ;
#142=VERTEX_POINT('',#141) ;
#149=VERTEX_POINT('',#148) ;
#156=VERTEX_POINT('',#155) ;
#163=VERTEX_POINT('',#162) ;
#170=VERTEX_POINT('',#169) ;
#198=VERTEX_POINT('',#197) ;
#205=VERTEX_POINT('',#204) ;
#233=VERTEX_POINT('',#232) ;
#257=VERTEX_POINT('',#256) ;
#275=VERTEX_POINT('',#274) ;
#277=VERTEX_POINT('',#276) ;
#284=VERTEX_POINT('',#283) ;
#291=VERTEX_POINT('',#290) ;
#298=VERTEX_POINT('',#297) ;
#305=VERTEX_POINT('',#304) ;
#325=VERTEX_POINT('',#324) ;
#327=VERTEX_POINT('',#326) ;
#343=VERTEX_POINT('',#342) ;
#345=VERTEX_POINT('',#344) ;
#361=VERTEX_POINT('',#360) ;
#363=VERTEX_POINT('',#362) ;
#379=VERTEX_POINT('',#378) ;
#381=VERTEX_POINT('',#380) ;
#403=VERTEX_POINT('',#402) ;
#427=VERTEX_POINT('',#426) ;
#445=VERTEX_POINT('',#444) ;
#447=VERTEX_POINT('',#446) ;
#454=VERTEX_POINT('',#453) ;
#461=VERTEX_POINT('',#460) ;
#468=VERTEX_POINT('',#467) ;
#475=VERTEX_POINT('',#474) ;
#495=VERTEX_POINT('',#494) ;
#497=VERTEX_POINT('',#496) ;
#513=VERTEX_POINT('',#512) ;
#515=VERTEX_POINT('',#514) ;
#531=VERTEX_POINT('',#530) ;
#533=VERTEX_POINT('',#532) ;
#549=VERTEX_POINT('',#548) ;
#551=VERTEX_POINT('',#550) ;
#573=VERTEX_POINT('',#572) ;
#597=VERTEX_POINT('',#596) ;
#872=VERTEX_POINT('',#871) ;
#874=VERTEX_POINT('',#873) ;
#915=ADVANCED_BREP_SHAPE_REPRESENTATION('NONE',(#21),#16) ;
#70=ADVANCED_FACE('Corps principal',(#69),#35,.T.) ;
#87=ADVANCED_FACE('Corps principal',(#86),#35,.T.) ;
#115=ADVANCED_FACE('Corps principal',(#96,#114),#92,.T.) ;
#187=ADVANCED_FACE('Corps principal',(#186),#120,.F.) ;
#222=ADVANCED_FACE('Corps principal',(#217,#221),#192,.T.) ;
#246=ADVANCED_FACE('Corps principal',(#245),#227,.T.) ;
#392=ADVANCED_FACE('Corps principal',(#269,#319,#337,#355,#373,#391),#251,.T.) ;
#416=ADVANCED_FACE('Corps principal',(#415),#397,.T.) ;
#562=ADVANCED_FACE('Corps principal',(#439,#489,#507,#525,#543,#561),#421,.F.) ;
#586=ADVANCED_FACE('Corps principal',(#585),#567,.F.) ;
#610=ADVANCED_FACE('Corps principal',(#609),#591,.F.) ;
#627=ADVANCED_FACE('Corps principal',(#626),#615,.T.) ;
#643=ADVANCED_FACE('Corps principal',(#642),#632,.T.) ;
#665=ADVANCED_FACE('Corps principal',(#664),#648,.T.) ;
#682=ADVANCED_FACE('Corps principal',(#681),#670,.T.) ;
#699=ADVANCED_FACE('Corps principal',(#698),#687,.T.) ;
#716=ADVANCED_FACE('Corps principal',(#715),#704,.T.) ;
#733=ADVANCED_FACE('Corps principal',(#732),#721,.T.) ;
#745=ADVANCED_FACE('Corps principal',(#744),#738,.T.) ;
#767=ADVANCED_FACE('Corps principal',(#766),#750,.F.) ;
#774=ADVANCED_FACE('Corps principal',(#773),#750,.F.) ;
#796=ADVANCED_FACE('Corps principal',(#795),#779,.F.) ;
#803=ADVANCED_FACE('Corps principal',(#802),#779,.F.) ;
#825=ADVANCED_FACE('Corps principal',(#824),#808,.F.) ;
#832=ADVANCED_FACE('Corps principal',(#831),#808,.F.) ;
#854=ADVANCED_FACE('Corps principal',(#853),#837,.F.) ;
#861=ADVANCED_FACE('Corps principal',(#860),#837,.F.) ;
#885=ADVANCED_FACE('Corps principal',(#884),#866,.T.) ;
#907=ADVANCED_FACE('Corps principal',(#906),#890,.T.) ;
#914=ADVANCED_FACE('Corps principal',(#913),#890,.T.) ;
#4=APPLICATION_PROTOCOL_DEFINITION('international standard','ap242_managed_model_based_3d_engineering',2014,#1) ;
#22=COLOUR_RGB('Colour',0.823529411765,0.823529411765,1.) ;
#69=FACE_OUTER_BOUND('',#64,.T.) ;
#86=FACE_OUTER_BOUND('',#81,.T.) ;
#96=FACE_OUTER_BOUND('',#93,.T.) ;
#186=FACE_OUTER_BOUND('',#177,.T.) ;
#217=FACE_OUTER_BOUND('',#212,.T.) ;
#245=FACE_OUTER_BOUND('',#240,.T.) ;
#269=FACE_OUTER_BOUND('',#264,.T.) ;
#415=FACE_OUTER_BOUND('',#410,.T.) ;
#439=FACE_OUTER_BOUND('',#434,.T.) ;
#585=FACE_OUTER_BOUND('',#580,.T.) ;
#609=FACE_OUTER_BOUND('',#604,.T.) ;
#626=FACE_OUTER_BOUND('',#621,.T.) ;
#642=FACE_OUTER_BOUND('',#633,.T.) ;
#664=FACE_OUTER_BOUND('',#659,.T.) ;
#681=FACE_OUTER_BOUND('',#676,.T.) ;
#698=FACE_OUTER_BOUND('',#693,.T.) ;
#715=FACE_OUTER_BOUND('',#710,.T.) ;
#732=FACE_OUTER_BOUND('',#727,.T.) ;
#744=FACE_OUTER_BOUND('',#739,.T.) ;
#766=FACE_OUTER_BOUND('',#761,.T.) ;
#773=FACE_OUTER_BOUND('',#768,.T.) ;
#795=FACE_OUTER_BOUND('',#790,.T.) ;
#802=FACE_OUTER_BOUND('',#797,.T.) ;
#824=FACE_OUTER_BOUND('',#819,.T.) ;
#831=FACE_OUTER_BOUND('',#826,.T.) ;
#853=FACE_OUTER_BOUND('',#848,.T.) ;
#860=FACE_OUTER_BOUND('',#855,.T.) ;
#884=FACE_OUTER_BOUND('',#881,.T.) ;
#906=FACE_OUTER_BOUND('',#901,.T.) ;
#913=FACE_OUTER_BOUND('',#908,.T.) ;
#9=PRODUCT_CATEGORY_RELATIONSHIP(' ',' ',#7,#8) ;
#6=PRODUCT_DEFINITION_FORMATION_WITH_SPECIFIED_SOURCE('',' ',#5,.NOT_KNOWN.) ;
#20=SHAPE_DEFINITION_REPRESENTATION(#11,#19) ;
#12=(LENGTH_UNIT()NAMED_UNIT(*)SI_UNIT(.MILLI.,.METRE.)) ;
#13=(NAMED_UNIT(*)PLANE_ANGLE_UNIT()SI_UNIT($,.RADIAN.)) ;
#14=(NAMED_UNIT(*)SI_UNIT($,.STERADIAN.)SOLID_ANGLE_UNIT()) ;
#16=(GEOMETRIC_REPRESENTATION_CONTEXT(3)GLOBAL_UNCERTAINTY_ASSIGNED_CONTEXT((#15))GLOBAL_UNIT_ASSIGNED_CONTEXT((#12,#13,#14))REPRESENTATION_CONTEXT(' ',' ')) ;
ENDSEC;
END-ISO-10303-21;
