ISO-10303-21;
HEADER;
FILE_DESCRIPTION(('CATIA V5 STEP Exchange','CAx-IF Rec.Pracs.--- Model Styling and Organization---1.5--- 2016-08-15','CAx-IF Rec.Pracs.---Supplemental Geometry---1.0---2011-11-01','CAx-IF Rec.Pracs.--- Composite Materials ---3.4---2017-06-13','CAx-IF Rec.Pracs.---Tessellated 3D Geometry---1.0---2015-12-17'),'2;1');

FILE_NAME('C:\\Users\\marti\\Documents\\Stage TV\\D\X2\00E9\X0\monstrateur\\motor\\Exports stp dxf\\motor_mount_rear.stp','2025-07-02T13:32:16+00:00',('none'),('none'),'CATIA Version 5-6 Release 2023 SP5','CATIA V5 STEP AP242 v3','none');

FILE_SCHEMA(('AP242_MANAGED_MODEL_BASED_3D_ENGINEERING_MIM_LF  {1 0 10303 442 1 1 4}'));

ENDSEC;
DATA;
#5=PRODUCT('motor_mount_front.1','','',(#2)) ;
#2=PRODUCT_CONTEXT(' ',#1,'mechanical') ;
#1=APPLICATION_CONTEXT('managed model based 3d engineering') ;
#10=PRODUCT_DEFINITION('',' ',#6,#3) ;
#3=PRODUCT_DEFINITION_CONTEXT('part definition',#1,' ') ;
#11=PRODUCT_DEFINITION_SHAPE(' ',' ',#10) ;
#1035=MECHANICAL_DESIGN_GEOMETRIC_PRESENTATION_REPRESENTATION(' ',(#29),#16) ;
#7=PRODUCT_CATEGORY('part','specification') ;
#19=SHAPE_REPRESENTATION(' ',(#18),#16) ;
#17=CARTESIAN_POINT(' ',(0.,0.,0.)) ;
#31=CARTESIAN_POINT('Axis2P3D Location',(0.839999999633,69.6,6.4)) ;
#36=CARTESIAN_POINT('Axis2P3D Location',(0.,69.6,6.4)) ;
#40=CARTESIAN_POINT('Vertex',(0.,71.7,6.4)) ;
#42=CARTESIAN_POINT('Vertex',(1.11022302463E-16,67.5,6.4)) ;
#45=CARTESIAN_POINT('Line Origine',(0.839999999633,67.5,6.4)) ;
#49=CARTESIAN_POINT('Vertex',(3.,67.5,6.4)) ;
#52=CARTESIAN_POINT('Axis2P3D Location',(3.,69.6,6.4)) ;
#56=CARTESIAN_POINT('Vertex',(3.,71.7,6.4)) ;
#59=CARTESIAN_POINT('Line Origine',(0.839999999633,71.7,6.4)) ;
#71=CARTESIAN_POINT('Axis2P3D Location',(0.,69.6,6.4)) ;
#76=CARTESIAN_POINT('Axis2P3D Location',(3.,69.6,6.4)) ;
#88=CARTESIAN_POINT('Axis2P3D Location',(3.,76.,0.)) ;
#93=CARTESIAN_POINT('Line Origine',(3.,40.5,65.)) ;
#97=CARTESIAN_POINT('Vertex',(3.,76.,65.)) ;
#99=CARTESIAN_POINT('Vertex',(3.,5.,65.)) ;
#102=CARTESIAN_POINT('Line Origine',(3.,5.,32.5)) ;
#106=CARTESIAN_POINT('Vertex',(3.,5.,0.)) ;
#109=CARTESIAN_POINT('Line Origine',(3.,40.5,0.)) ;
#113=CARTESIAN_POINT('Vertex',(3.,76.,0.)) ;
#116=CARTESIAN_POINT('Line Origine',(3.,76.,32.5)) ;
#131=CARTESIAN_POINT('Axis2P3D Location',(3.,69.6,58.6)) ;
#135=CARTESIAN_POINT('Vertex',(3.,67.5,58.6)) ;
#137=CARTESIAN_POINT('Vertex',(3.,71.7,58.6)) ;
#140=CARTESIAN_POINT('Axis2P3D Location',(3.,69.6,58.6)) ;
#149=CARTESIAN_POINT('Axis2P3D Location',(3.,11.4,6.4)) ;
#153=CARTESIAN_POINT('Vertex',(3.,13.5,6.4)) ;
#155=CARTESIAN_POINT('Vertex',(3.,9.3,6.4)) ;
#158=CARTESIAN_POINT('Axis2P3D Location',(3.,11.4,6.4)) ;
#167=CARTESIAN_POINT('Axis2P3D Location',(3.,11.4,58.6)) ;
#171=CARTESIAN_POINT('Vertex',(3.,13.5,58.6)) ;
#173=CARTESIAN_POINT('Vertex',(3.,9.3,58.6)) ;
#176=CARTESIAN_POINT('Axis2P3D Location',(3.,11.4,58.6)) ;
#186=CARTESIAN_POINT('Axis2P3D Location',(0.,76.,0.)) ;
#191=CARTESIAN_POINT('Line Origine',(0.,76.,32.5)) ;
#195=CARTESIAN_POINT('Vertex',(0.,76.,0.)) ;
#197=CARTESIAN_POINT('Vertex',(0.,76.,65.)) ;
#200=CARTESIAN_POINT('Line Origine',(0.,40.5,0.)) ;
#204=CARTESIAN_POINT('Vertex',(3.5527136788E-15,5.,0.)) ;
#207=CARTESIAN_POINT('Line Origine',(0.,5.,32.5)) ;
#211=CARTESIAN_POINT('Vertex',(3.5527136788E-15,5.,65.)) ;
#214=CARTESIAN_POINT('Line Origine',(0.,40.5,65.)) ;
#229=CARTESIAN_POINT('Axis2P3D Location',(0.,69.6,58.6)) ;
#233=CARTESIAN_POINT('Vertex',(1.11022302463E-16,67.5,58.6)) ;
#235=CARTESIAN_POINT('Vertex',(0.,71.7,58.6)) ;
#238=CARTESIAN_POINT('Axis2P3D Location',(0.,69.6,58.6)) ;
#247=CARTESIAN_POINT('Axis2P3D Location',(0.,11.4,6.4)) ;
#251=CARTESIAN_POINT('Vertex',(1.11022302463E-16,13.5,6.4)) ;
#253=CARTESIAN_POINT('Vertex',(0.,9.3,6.4)) ;
#256=CARTESIAN_POINT('Axis2P3D Location',(0.,11.4,6.4)) ;
#265=CARTESIAN_POINT('Axis2P3D Location',(0.,11.4,58.6)) ;
#269=CARTESIAN_POINT('Vertex',(1.11022302463E-16,13.5,58.6)) ;
#271=CARTESIAN_POINT('Vertex',(0.,9.3,58.6)) ;
#274=CARTESIAN_POINT('Axis2P3D Location',(0.,11.4,58.6)) ;
#284=CARTESIAN_POINT('Axis2P3D Location',(3.,76.,0.)) ;
#289=CARTESIAN_POINT('Line Origine',(1.5,76.,0.)) ;
#294=CARTESIAN_POINT('Line Origine',(1.5,76.,65.)) ;
#306=CARTESIAN_POINT('Axis2P3D Location',(0.,0.,65.)) ;
#311=CARTESIAN_POINT('Axis2P3D Location',(5.,5.,65.)) ;
#315=CARTESIAN_POINT('Vertex',(5.,0.,65.)) ;
#318=CARTESIAN_POINT('Line Origine',(34.685,0.,65.)) ;
#322=CARTESIAN_POINT('Vertex',(64.37,0.,65.)) ;
#325=CARTESIAN_POINT('Line Origine',(64.37,1.5,65.)) ;
#329=CARTESIAN_POINT('Vertex',(64.37,3.,65.)) ;
#332=CARTESIAN_POINT('Line Origine',(34.685,3.,65.)) ;
#336=CARTESIAN_POINT('Vertex',(5.,3.,65.)) ;
#339=CARTESIAN_POINT('Axis2P3D Location',(5.,5.,65.)) ;
#355=CARTESIAN_POINT('Axis2P3D Location',(5.,5.,32.5)) ;
#360=CARTESIAN_POINT('Axis2P3D Location',(5.,5.,0.)) ;
#364=CARTESIAN_POINT('Vertex',(5.,0.,0.)) ;
#367=CARTESIAN_POINT('Line Origine',(5.,3.5527136788E-15,32.5)) ;
#379=CARTESIAN_POINT('Axis2P3D Location',(5.,0.,0.)) ;
#384=CARTESIAN_POINT('Line Origine',(34.685,0.,0.)) ;
#388=CARTESIAN_POINT('Vertex',(64.37,0.,0.)) ;
#391=CARTESIAN_POINT('Line Origine',(64.37,0.,32.5)) ;
#402=CARTESIAN_POINT('Line Origine',(10.8686028014,0.,32.4999999901)) ;
#406=CARTESIAN_POINT('Vertex',(10.8686027953,0.,18.7500000101)) ;
#408=CARTESIAN_POINT('Vertex',(10.8686027953,0.,46.2499999899)) ;
#411=CARTESIAN_POINT('Line Origine',(22.7764520928,0.,53.1249999978)) ;
#415=CARTESIAN_POINT('Vertex',(34.6843013802,0.,60.)) ;
#418=CARTESIAN_POINT('Line Origine',(46.5921506963,0.,53.1250000044)) ;
#422=CARTESIAN_POINT('Vertex',(58.5,0.,46.2500000161)) ;
#425=CARTESIAN_POINT('Line Origine',(58.5000000052,0.,32.5000000061)) ;
#429=CARTESIAN_POINT('Vertex',(58.5,0.,18.7499999981)) ;
#432=CARTESIAN_POINT('Line Origine',(46.5921506925,0.,11.8749999934)) ;
#436=CARTESIAN_POINT('Vertex',(34.6843013886,0.,5.00000000486)) ;
#439=CARTESIAN_POINT('Line Origine',(22.7764520827,0.,11.875000008)) ;
#452=CARTESIAN_POINT('Axis2P3D Location',(57.37,0.,8.925)) ;
#456=CARTESIAN_POINT('Vertex',(59.97,-4.4408920985E-16,8.925)) ;
#458=CARTESIAN_POINT('Vertex',(54.77,0.,8.925)) ;
#461=CARTESIAN_POINT('Axis2P3D Location',(57.37,0.,8.925)) ;
#470=CARTESIAN_POINT('Axis2P3D Location',(57.37,0.,56.075)) ;
#474=CARTESIAN_POINT('Vertex',(59.97,-4.4408920985E-16,56.075)) ;
#476=CARTESIAN_POINT('Vertex',(54.77,0.,56.075)) ;
#479=CARTESIAN_POINT('Axis2P3D Location',(57.37,0.,56.075)) ;
#488=CARTESIAN_POINT('Axis2P3D Location',(10.22,0.,8.925)) ;
#492=CARTESIAN_POINT('Vertex',(7.62,-4.4408920985E-16,8.925)) ;
#494=CARTESIAN_POINT('Vertex',(12.82,0.,8.925)) ;
#497=CARTESIAN_POINT('Axis2P3D Location',(10.22,0.,8.925)) ;
#506=CARTESIAN_POINT('Axis2P3D Location',(10.22,0.,56.075)) ;
#510=CARTESIAN_POINT('Vertex',(7.62,-4.4408920985E-16,56.075)) ;
#512=CARTESIAN_POINT('Vertex',(12.82,0.,56.075)) ;
#515=CARTESIAN_POINT('Axis2P3D Location',(10.22,0.,56.075)) ;
#525=CARTESIAN_POINT('Axis2P3D Location',(64.37,0.,0.)) ;
#530=CARTESIAN_POINT('Line Origine',(64.37,1.5,0.)) ;
#534=CARTESIAN_POINT('Vertex',(64.37,3.,0.)) ;
#537=CARTESIAN_POINT('Line Origine',(64.37,3.,32.5)) ;
#549=CARTESIAN_POINT('Axis2P3D Location',(10.8686028014,3.,18.7500000101)) ;
#554=CARTESIAN_POINT('Line Origine',(10.8686028014,1.5,18.7500000101)) ;
#558=CARTESIAN_POINT('Vertex',(10.8686028014,3.,18.7500000101)) ;
#561=CARTESIAN_POINT('Line Origine',(10.8686028014,3.,32.5)) ;
#565=CARTESIAN_POINT('Vertex',(10.8686027953,3.,46.2499999899)) ;
#568=CARTESIAN_POINT('Line Origine',(10.8686028014,1.5,46.2499999899)) ;
#580=CARTESIAN_POINT('Axis2P3D Location',(10.8686027953,3.,46.2499999899)) ;
#585=CARTESIAN_POINT('Line Origine',(22.7764520877,3.,53.1249999949)) ;
#589=CARTESIAN_POINT('Vertex',(34.6843013802,3.,60.)) ;
#592=CARTESIAN_POINT('Line Origine',(34.6843013802,1.5,60.)) ;
#604=CARTESIAN_POINT('Axis2P3D Location',(34.6843013802,3.,60.)) ;
#609=CARTESIAN_POINT('Line Origine',(46.5921506901,3.,53.125000008)) ;
#613=CARTESIAN_POINT('Vertex',(58.5000000104,3.,46.2500000161)) ;
#616=CARTESIAN_POINT('Line Origine',(58.5,1.5,46.2500000161)) ;
#628=CARTESIAN_POINT('Axis2P3D Location',(58.5000000104,3.,46.2500000161)) ;
#633=CARTESIAN_POINT('Line Origine',(58.5000000052,3.,32.5000000071)) ;
#637=CARTESIAN_POINT('Vertex',(58.5,3.,18.7499999839)) ;
#640=CARTESIAN_POINT('Line Origine',(58.5,1.5,18.7499999981)) ;
#652=CARTESIAN_POINT('Axis2P3D Location',(58.5,3.,18.7499999839)) ;
#657=CARTESIAN_POINT('Line Origine',(46.5921506943,3.,11.8749999944)) ;
#661=CARTESIAN_POINT('Vertex',(34.6843013802,3.,5.)) ;
#664=CARTESIAN_POINT('Line Origine',(34.6843013886,1.5,5.00000000486)) ;
#676=CARTESIAN_POINT('Axis2P3D Location',(34.6843013802,3.,5.)) ;
#681=CARTESIAN_POINT('Line Origine',(22.7764520877,3.,11.8750000051)) ;
#693=CARTESIAN_POINT('Axis2P3D Location',(10.22,0.839999999575,56.075)) ;
#698=CARTESIAN_POINT('Line Origine',(7.62,0.839999999575,56.075)) ;
#702=CARTESIAN_POINT('Vertex',(7.62,3.,56.075)) ;
#705=CARTESIAN_POINT('Axis2P3D Location',(10.22,3.,56.075)) ;
#709=CARTESIAN_POINT('Vertex',(12.82,3.,56.075)) ;
#712=CARTESIAN_POINT('Line Origine',(12.82,0.839999999575,56.075)) ;
#724=CARTESIAN_POINT('Axis2P3D Location',(10.22,3.,56.075)) ;
#736=CARTESIAN_POINT('Axis2P3D Location',(10.22,0.839999999575,8.925)) ;
#741=CARTESIAN_POINT('Line Origine',(7.62,0.839999999575,8.925)) ;
#745=CARTESIAN_POINT('Vertex',(7.62,3.,8.925)) ;
#748=CARTESIAN_POINT('Axis2P3D Location',(10.22,3.,8.925)) ;
#752=CARTESIAN_POINT('Vertex',(12.82,3.,8.925)) ;
#755=CARTESIAN_POINT('Line Origine',(12.82,0.839999999575,8.925)) ;
#767=CARTESIAN_POINT('Axis2P3D Location',(10.22,3.,8.925)) ;
#779=CARTESIAN_POINT('Axis2P3D Location',(57.37,0.839999999575,56.075)) ;
#784=CARTESIAN_POINT('Line Origine',(59.97,0.839999999575,56.075)) ;
#788=CARTESIAN_POINT('Vertex',(59.97,3.,56.075)) ;
#791=CARTESIAN_POINT('Axis2P3D Location',(57.37,3.,56.075)) ;
#795=CARTESIAN_POINT('Vertex',(54.77,3.,56.075)) ;
#798=CARTESIAN_POINT('Line Origine',(54.77,0.839999999575,56.075)) ;
#810=CARTESIAN_POINT('Axis2P3D Location',(57.37,3.,56.075)) ;
#822=CARTESIAN_POINT('Axis2P3D Location',(57.37,0.839999999575,8.925)) ;
#827=CARTESIAN_POINT('Line Origine',(59.97,0.839999999575,8.925)) ;
#831=CARTESIAN_POINT('Vertex',(59.97,3.,8.925)) ;
#834=CARTESIAN_POINT('Axis2P3D Location',(57.37,3.,8.925)) ;
#838=CARTESIAN_POINT('Vertex',(54.77,3.,8.925)) ;
#841=CARTESIAN_POINT('Line Origine',(54.77,0.839999999575,8.925)) ;
#853=CARTESIAN_POINT('Axis2P3D Location',(57.37,3.,8.925)) ;
#865=CARTESIAN_POINT('Axis2P3D Location',(5.,3.,0.)) ;
#870=CARTESIAN_POINT('Line Origine',(34.685,3.,0.)) ;
#874=CARTESIAN_POINT('Vertex',(5.,3.,0.)) ;
#877=CARTESIAN_POINT('Line Origine',(5.,3.,32.5)) ;
#913=CARTESIAN_POINT('Axis2P3D Location',(0.839999999633,11.4,58.6)) ;
#918=CARTESIAN_POINT('Line Origine',(0.839999999633,13.5,58.6)) ;
#923=CARTESIAN_POINT('Line Origine',(0.839999999633,9.3,58.6)) ;
#942=CARTESIAN_POINT('Axis2P3D Location',(0.839999999633,11.4,6.4)) ;
#947=CARTESIAN_POINT('Line Origine',(0.839999999633,13.5,6.4)) ;
#952=CARTESIAN_POINT('Line Origine',(0.839999999633,9.3,6.4)) ;
#971=CARTESIAN_POINT('Axis2P3D Location',(0.839999999633,69.6,58.6)) ;
#976=CARTESIAN_POINT('Line Origine',(0.839999999633,67.5,58.6)) ;
#981=CARTESIAN_POINT('Line Origine',(0.839999999633,71.7,58.6)) ;
#1000=CARTESIAN_POINT('Axis2P3D Location',(5.,5.,32.5)) ;
#1005=CARTESIAN_POINT('Axis2P3D Location',(5.,5.,0.)) ;
#1017=CARTESIAN_POINT('Axis2P3D Location',(0.,0.,0.)) ;
#8=PRODUCT_RELATED_PRODUCT_CATEGORY('part',$,(#5)) ;
#15=UNCERTAINTY_MEASURE_WITH_UNIT(LENGTH_MEASURE(0.005),#12,'distance_accuracy_value','CONFUSED CURVE UNCERTAINTY') ;
#29=STYLED_ITEM(' ',(#28),#21) ;
#28=PRESENTATION_STYLE_ASSIGNMENT((#27)) ;
#27=SURFACE_STYLE_USAGE(.BOTH.,#26) ;
#26=SURFACE_SIDE_STYLE(' ',(#25)) ;
#25=SURFACE_STYLE_FILL_AREA(#24) ;
#24=FILL_AREA_STYLE(' ',(#23)) ;
#23=FILL_AREA_STYLE_COLOUR(' ',#22) ;
#47=VECTOR('Line Direction',#46,1.) ;
#61=VECTOR('Line Direction',#60,1.) ;
#95=VECTOR('Line Direction',#94,1.) ;
#104=VECTOR('Line Direction',#103,1.) ;
#111=VECTOR('Line Direction',#110,1.) ;
#118=VECTOR('Line Direction',#117,1.) ;
#193=VECTOR('Line Direction',#192,1.) ;
#202=VECTOR('Line Direction',#201,1.) ;
#209=VECTOR('Line Direction',#208,1.) ;
#216=VECTOR('Line Direction',#215,1.) ;
#291=VECTOR('Line Direction',#290,1.) ;
#296=VECTOR('Line Direction',#295,1.) ;
#320=VECTOR('Line Direction',#319,1.) ;
#327=VECTOR('Line Direction',#326,1.) ;
#334=VECTOR('Line Direction',#333,1.) ;
#369=VECTOR('Line Direction',#368,1.) ;
#386=VECTOR('Line Direction',#385,1.) ;
#393=VECTOR('Line Direction',#392,1.) ;
#404=VECTOR('Line Direction',#403,1.) ;
#413=VECTOR('Line Direction',#412,1.) ;
#420=VECTOR('Line Direction',#419,1.) ;
#427=VECTOR('Line Direction',#426,1.) ;
#434=VECTOR('Line Direction',#433,1.) ;
#441=VECTOR('Line Direction',#440,1.) ;
#532=VECTOR('Line Direction',#531,1.) ;
#539=VECTOR('Line Direction',#538,1.) ;
#556=VECTOR('Line Direction',#555,1.) ;
#563=VECTOR('Line Direction',#562,1.) ;
#570=VECTOR('Line Direction',#569,1.) ;
#587=VECTOR('Line Direction',#586,1.) ;
#594=VECTOR('Line Direction',#593,1.) ;
#611=VECTOR('Line Direction',#610,1.) ;
#618=VECTOR('Line Direction',#617,1.) ;
#635=VECTOR('Line Direction',#634,1.) ;
#642=VECTOR('Line Direction',#641,1.) ;
#659=VECTOR('Line Direction',#658,1.) ;
#666=VECTOR('Line Direction',#665,1.) ;
#683=VECTOR('Line Direction',#682,1.) ;
#700=VECTOR('Line Direction',#699,1.) ;
#714=VECTOR('Line Direction',#713,1.) ;
#743=VECTOR('Line Direction',#742,1.) ;
#757=VECTOR('Line Direction',#756,1.) ;
#786=VECTOR('Line Direction',#785,1.) ;
#800=VECTOR('Line Direction',#799,1.) ;
#829=VECTOR('Line Direction',#828,1.) ;
#843=VECTOR('Line Direction',#842,1.) ;
#872=VECTOR('Line Direction',#871,1.) ;
#879=VECTOR('Line Direction',#878,1.) ;
#920=VECTOR('Line Direction',#919,1.) ;
#925=VECTOR('Line Direction',#924,1.) ;
#949=VECTOR('Line Direction',#948,1.) ;
#954=VECTOR('Line Direction',#953,1.) ;
#978=VECTOR('Line Direction',#977,1.) ;
#983=VECTOR('Line Direction',#982,1.) ;
#32=DIRECTION('Axis2P3D Direction',(1.,-0.,0.)) ;
#33=DIRECTION('Axis2P3D XDirection',(0.,1.,0.)) ;
#37=DIRECTION('Axis2P3D Direction',(1.,-0.,0.)) ;
#46=DIRECTION('Vector Direction',(1.,0.,0.)) ;
#53=DIRECTION('Axis2P3D Direction',(1.,-0.,0.)) ;
#60=DIRECTION('Vector Direction',(1.,0.,0.)) ;
#72=DIRECTION('Axis2P3D Direction',(1.,-0.,0.)) ;
#77=DIRECTION('Axis2P3D Direction',(1.,-0.,0.)) ;
#89=DIRECTION('Axis2P3D Direction',(-1.,0.,0.)) ;
#90=DIRECTION('Axis2P3D XDirection',(0.,-1.,0.)) ;
#94=DIRECTION('Vector Direction',(0.,-1.,0.)) ;
#103=DIRECTION('Vector Direction',(0.,0.,1.)) ;
#110=DIRECTION('Vector Direction',(0.,-1.,0.)) ;
#117=DIRECTION('Vector Direction',(0.,0.,1.)) ;
#132=DIRECTION('Axis2P3D Direction',(-1.,0.,0.)) ;
#141=DIRECTION('Axis2P3D Direction',(-1.,0.,0.)) ;
#150=DIRECTION('Axis2P3D Direction',(-1.,0.,0.)) ;
#159=DIRECTION('Axis2P3D Direction',(-1.,0.,0.)) ;
#168=DIRECTION('Axis2P3D Direction',(-1.,0.,0.)) ;
#177=DIRECTION('Axis2P3D Direction',(-1.,0.,0.)) ;
#187=DIRECTION('Axis2P3D Direction',(-1.,0.,0.)) ;
#188=DIRECTION('Axis2P3D XDirection',(0.,-1.,0.)) ;
#192=DIRECTION('Vector Direction',(0.,0.,1.)) ;
#201=DIRECTION('Vector Direction',(0.,-1.,0.)) ;
#208=DIRECTION('Vector Direction',(0.,0.,1.)) ;
#215=DIRECTION('Vector Direction',(0.,-1.,0.)) ;
#230=DIRECTION('Axis2P3D Direction',(-1.,0.,0.)) ;
#239=DIRECTION('Axis2P3D Direction',(-1.,0.,0.)) ;
#248=DIRECTION('Axis2P3D Direction',(-1.,0.,0.)) ;
#257=DIRECTION('Axis2P3D Direction',(-1.,0.,0.)) ;
#266=DIRECTION('Axis2P3D Direction',(-1.,0.,0.)) ;
#275=DIRECTION('Axis2P3D Direction',(-1.,0.,0.)) ;
#285=DIRECTION('Axis2P3D Direction',(4.73695157173E-15,1.,-0.)) ;
#286=DIRECTION('Axis2P3D XDirection',(-1.,4.73695157173E-15,0.)) ;
#290=DIRECTION('Vector Direction',(-1.,4.73695157173E-15,0.)) ;
#295=DIRECTION('Vector Direction',(-1.,4.73695157173E-15,0.)) ;
#307=DIRECTION('Axis2P3D Direction',(0.,0.,1.)) ;
#308=DIRECTION('Axis2P3D XDirection',(1.,0.,0.)) ;
#312=DIRECTION('Axis2P3D Direction',(0.,0.,1.)) ;
#319=DIRECTION('Vector Direction',(1.,0.,0.)) ;
#326=DIRECTION('Vector Direction',(0.,1.,0.)) ;
#333=DIRECTION('Vector Direction',(1.,0.,0.)) ;
#340=DIRECTION('Axis2P3D Direction',(0.,0.,1.)) ;
#356=DIRECTION('Axis2P3D Direction',(0.,0.,1.)) ;
#357=DIRECTION('Axis2P3D XDirection',(-1.,-3.21624529935E-16,-0.)) ;
#361=DIRECTION('Axis2P3D Direction',(0.,0.,1.)) ;
#368=DIRECTION('Vector Direction',(0.,0.,1.)) ;
#380=DIRECTION('Axis2P3D Direction',(0.,-1.,0.)) ;
#381=DIRECTION('Axis2P3D XDirection',(1.,0.,0.)) ;
#385=DIRECTION('Vector Direction',(1.,0.,0.)) ;
#392=DIRECTION('Vector Direction',(0.,0.,1.)) ;
#403=DIRECTION('Vector Direction',(0.,0.,1.)) ;
#412=DIRECTION('Vector Direction',(0.866025403451,0.,0.500000000578)) ;
#419=DIRECTION('Vector Direction',(0.866025404181,0.,-0.499999999313)) ;
#426=DIRECTION('Vector Direction',(-3.77254784713E-10,0.,-1.)) ;
#433=DIRECTION('Vector Direction',(-0.866025404181,0.,-0.499999999313)) ;
#440=DIRECTION('Vector Direction',(-0.866025403451,0.,0.500000000578)) ;
#453=DIRECTION('Axis2P3D Direction',(0.,-1.,0.)) ;
#462=DIRECTION('Axis2P3D Direction',(0.,-1.,0.)) ;
#471=DIRECTION('Axis2P3D Direction',(0.,-1.,0.)) ;
#480=DIRECTION('Axis2P3D Direction',(0.,-1.,0.)) ;
#489=DIRECTION('Axis2P3D Direction',(0.,-1.,0.)) ;
#498=DIRECTION('Axis2P3D Direction',(0.,-1.,0.)) ;
#507=DIRECTION('Axis2P3D Direction',(0.,-1.,0.)) ;
#516=DIRECTION('Axis2P3D Direction',(0.,-1.,0.)) ;
#526=DIRECTION('Axis2P3D Direction',(1.,0.,0.)) ;
#527=DIRECTION('Axis2P3D XDirection',(0.,1.,0.)) ;
#531=DIRECTION('Vector Direction',(0.,1.,0.)) ;
#538=DIRECTION('Vector Direction',(0.,0.,1.)) ;
#550=DIRECTION('Axis2P3D Direction',(1.,0.,-0.)) ;
#551=DIRECTION('Axis2P3D XDirection',(0.,0.,1.)) ;
#555=DIRECTION('Vector Direction',(0.,-1.,0.)) ;
#562=DIRECTION('Vector Direction',(0.,0.,1.)) ;
#569=DIRECTION('Vector Direction',(0.,-1.,0.)) ;
#581=DIRECTION('Axis2P3D Direction',(0.500000000578,0.,-0.866025403451)) ;
#582=DIRECTION('Axis2P3D XDirection',(0.866025403451,0.,0.500000000578)) ;
#586=DIRECTION('Vector Direction',(0.866025403451,0.,0.500000000578)) ;
#593=DIRECTION('Vector Direction',(0.,-1.,0.)) ;
#605=DIRECTION('Axis2P3D Direction',(-0.499999999313,-0.,-0.866025404181)) ;
#606=DIRECTION('Axis2P3D XDirection',(0.866025404181,0.,-0.499999999313)) ;
#610=DIRECTION('Vector Direction',(0.866025404181,0.,-0.499999999313)) ;
#617=DIRECTION('Vector Direction',(0.,-1.,0.)) ;
#629=DIRECTION('Axis2P3D Direction',(-1.,0.,3.7725478474E-10)) ;
#630=DIRECTION('Axis2P3D XDirection',(-3.7725478474E-10,0.,-1.)) ;
#634=DIRECTION('Vector Direction',(-3.7725478474E-10,0.,-1.)) ;
#641=DIRECTION('Vector Direction',(0.,-1.,0.)) ;
#653=DIRECTION('Axis2P3D Direction',(-0.499999999313,0.,0.866025404181)) ;
#654=DIRECTION('Axis2P3D XDirection',(-0.866025404181,0.,-0.499999999313)) ;
#658=DIRECTION('Vector Direction',(-0.866025404181,0.,-0.499999999313)) ;
#665=DIRECTION('Vector Direction',(0.,-1.,0.)) ;
#677=DIRECTION('Axis2P3D Direction',(0.500000000578,0.,0.866025403451)) ;
#678=DIRECTION('Axis2P3D XDirection',(-0.866025403451,0.,0.500000000578)) ;
#682=DIRECTION('Vector Direction',(-0.866025403451,0.,0.500000000578)) ;
#694=DIRECTION('Axis2P3D Direction',(0.,1.,-0.)) ;
#695=DIRECTION('Axis2P3D XDirection',(1.,0.,5.66553889765E-16)) ;
#699=DIRECTION('Vector Direction',(0.,1.,0.)) ;
#706=DIRECTION('Axis2P3D Direction',(0.,1.,-0.)) ;
#713=DIRECTION('Vector Direction',(0.,1.,0.)) ;
#725=DIRECTION('Axis2P3D Direction',(0.,1.,-0.)) ;
#737=DIRECTION('Axis2P3D Direction',(0.,1.,-0.)) ;
#738=DIRECTION('Axis2P3D XDirection',(1.,0.,5.66553889765E-16)) ;
#742=DIRECTION('Vector Direction',(0.,1.,0.)) ;
#749=DIRECTION('Axis2P3D Direction',(0.,1.,-0.)) ;
#756=DIRECTION('Vector Direction',(0.,1.,0.)) ;
#768=DIRECTION('Axis2P3D Direction',(0.,1.,-0.)) ;
#780=DIRECTION('Axis2P3D Direction',(0.,1.,-0.)) ;
#781=DIRECTION('Axis2P3D XDirection',(-1.,0.,0.)) ;
#785=DIRECTION('Vector Direction',(0.,1.,0.)) ;
#792=DIRECTION('Axis2P3D Direction',(0.,1.,-0.)) ;
#799=DIRECTION('Vector Direction',(0.,1.,0.)) ;
#811=DIRECTION('Axis2P3D Direction',(0.,1.,-0.)) ;
#823=DIRECTION('Axis2P3D Direction',(0.,1.,-0.)) ;
#824=DIRECTION('Axis2P3D XDirection',(-1.,0.,0.)) ;
#828=DIRECTION('Vector Direction',(0.,1.,0.)) ;
#835=DIRECTION('Axis2P3D Direction',(0.,1.,-0.)) ;
#842=DIRECTION('Vector Direction',(0.,1.,0.)) ;
#854=DIRECTION('Axis2P3D Direction',(0.,1.,-0.)) ;
#866=DIRECTION('Axis2P3D Direction',(0.,-1.,0.)) ;
#867=DIRECTION('Axis2P3D XDirection',(1.,0.,0.)) ;
#871=DIRECTION('Vector Direction',(1.,0.,0.)) ;
#878=DIRECTION('Vector Direction',(0.,0.,1.)) ;
#914=DIRECTION('Axis2P3D Direction',(1.,-0.,0.)) ;
#915=DIRECTION('Axis2P3D XDirection',(0.,-1.,1.22464679915E-16)) ;
#919=DIRECTION('Vector Direction',(1.,0.,0.)) ;
#924=DIRECTION('Vector Direction',(1.,0.,0.)) ;
#943=DIRECTION('Axis2P3D Direction',(1.,-0.,0.)) ;
#944=DIRECTION('Axis2P3D XDirection',(0.,-1.,1.22464679915E-16)) ;
#948=DIRECTION('Vector Direction',(1.,0.,0.)) ;
#953=DIRECTION('Vector Direction',(1.,0.,0.)) ;
#972=DIRECTION('Axis2P3D Direction',(1.,-0.,0.)) ;
#973=DIRECTION('Axis2P3D XDirection',(0.,1.,0.)) ;
#977=DIRECTION('Vector Direction',(1.,0.,0.)) ;
#982=DIRECTION('Vector Direction',(1.,0.,0.)) ;
#1001=DIRECTION('Axis2P3D Direction',(0.,0.,1.)) ;
#1002=DIRECTION('Axis2P3D XDirection',(-1.,-3.21624529935E-16,-0.)) ;
#1006=DIRECTION('Axis2P3D Direction',(0.,0.,1.)) ;
#1018=DIRECTION('Axis2P3D Direction',(0.,0.,1.)) ;
#1019=DIRECTION('Axis2P3D XDirection',(1.,0.,0.)) ;
#1034=SHAPE_REPRESENTATION_RELATIONSHIP(' ',' ',#19,#1033) ;
#18=AXIS2_PLACEMENT_3D(' ',#17,$,$) ;
#34=AXIS2_PLACEMENT_3D('Cylinder Axis2P3D',#31,#32,#33) ;
#38=AXIS2_PLACEMENT_3D('Circle Axis2P3D',#36,#37,$) ;
#54=AXIS2_PLACEMENT_3D('Circle Axis2P3D',#52,#53,$) ;
#73=AXIS2_PLACEMENT_3D('Circle Axis2P3D',#71,#72,$) ;
#78=AXIS2_PLACEMENT_3D('Circle Axis2P3D',#76,#77,$) ;
#91=AXIS2_PLACEMENT_3D('Plane Axis2P3D',#88,#89,#90) ;
#133=AXIS2_PLACEMENT_3D('Circle Axis2P3D',#131,#132,$) ;
#142=AXIS2_PLACEMENT_3D('Circle Axis2P3D',#140,#141,$) ;
#151=AXIS2_PLACEMENT_3D('Circle Axis2P3D',#149,#150,$) ;
#160=AXIS2_PLACEMENT_3D('Circle Axis2P3D',#158,#159,$) ;
#169=AXIS2_PLACEMENT_3D('Circle Axis2P3D',#167,#168,$) ;
#178=AXIS2_PLACEMENT_3D('Circle Axis2P3D',#176,#177,$) ;
#189=AXIS2_PLACEMENT_3D('Plane Axis2P3D',#186,#187,#188) ;
#231=AXIS2_PLACEMENT_3D('Circle Axis2P3D',#229,#230,$) ;
#240=AXIS2_PLACEMENT_3D('Circle Axis2P3D',#238,#239,$) ;
#249=AXIS2_PLACEMENT_3D('Circle Axis2P3D',#247,#248,$) ;
#258=AXIS2_PLACEMENT_3D('Circle Axis2P3D',#256,#257,$) ;
#267=AXIS2_PLACEMENT_3D('Circle Axis2P3D',#265,#266,$) ;
#276=AXIS2_PLACEMENT_3D('Circle Axis2P3D',#274,#275,$) ;
#287=AXIS2_PLACEMENT_3D('Plane Axis2P3D',#284,#285,#286) ;
#309=AXIS2_PLACEMENT_3D('Plane Axis2P3D',#306,#307,#308) ;
#313=AXIS2_PLACEMENT_3D('Circle Axis2P3D',#311,#312,$) ;
#341=AXIS2_PLACEMENT_3D('Circle Axis2P3D',#339,#340,$) ;
#358=AXIS2_PLACEMENT_3D('Cylinder Axis2P3D',#355,#356,#357) ;
#362=AXIS2_PLACEMENT_3D('Circle Axis2P3D',#360,#361,$) ;
#382=AXIS2_PLACEMENT_3D('Plane Axis2P3D',#379,#380,#381) ;
#454=AXIS2_PLACEMENT_3D('Circle Axis2P3D',#452,#453,$) ;
#463=AXIS2_PLACEMENT_3D('Circle Axis2P3D',#461,#462,$) ;
#472=AXIS2_PLACEMENT_3D('Circle Axis2P3D',#470,#471,$) ;
#481=AXIS2_PLACEMENT_3D('Circle Axis2P3D',#479,#480,$) ;
#490=AXIS2_PLACEMENT_3D('Circle Axis2P3D',#488,#489,$) ;
#499=AXIS2_PLACEMENT_3D('Circle Axis2P3D',#497,#498,$) ;
#508=AXIS2_PLACEMENT_3D('Circle Axis2P3D',#506,#507,$) ;
#517=AXIS2_PLACEMENT_3D('Circle Axis2P3D',#515,#516,$) ;
#528=AXIS2_PLACEMENT_3D('Plane Axis2P3D',#525,#526,#527) ;
#552=AXIS2_PLACEMENT_3D('Plane Axis2P3D',#549,#550,#551) ;
#583=AXIS2_PLACEMENT_3D('Plane Axis2P3D',#580,#581,#582) ;
#607=AXIS2_PLACEMENT_3D('Plane Axis2P3D',#604,#605,#606) ;
#631=AXIS2_PLACEMENT_3D('Plane Axis2P3D',#628,#629,#630) ;
#655=AXIS2_PLACEMENT_3D('Plane Axis2P3D',#652,#653,#654) ;
#679=AXIS2_PLACEMENT_3D('Plane Axis2P3D',#676,#677,#678) ;
#696=AXIS2_PLACEMENT_3D('Cylinder Axis2P3D',#693,#694,#695) ;
#707=AXIS2_PLACEMENT_3D('Circle Axis2P3D',#705,#706,$) ;
#726=AXIS2_PLACEMENT_3D('Circle Axis2P3D',#724,#725,$) ;
#739=AXIS2_PLACEMENT_3D('Cylinder Axis2P3D',#736,#737,#738) ;
#750=AXIS2_PLACEMENT_3D('Circle Axis2P3D',#748,#749,$) ;
#769=AXIS2_PLACEMENT_3D('Circle Axis2P3D',#767,#768,$) ;
#782=AXIS2_PLACEMENT_3D('Cylinder Axis2P3D',#779,#780,#781) ;
#793=AXIS2_PLACEMENT_3D('Circle Axis2P3D',#791,#792,$) ;
#812=AXIS2_PLACEMENT_3D('Circle Axis2P3D',#810,#811,$) ;
#825=AXIS2_PLACEMENT_3D('Cylinder Axis2P3D',#822,#823,#824) ;
#836=AXIS2_PLACEMENT_3D('Circle Axis2P3D',#834,#835,$) ;
#855=AXIS2_PLACEMENT_3D('Circle Axis2P3D',#853,#854,$) ;
#868=AXIS2_PLACEMENT_3D('Plane Axis2P3D',#865,#866,#867) ;
#916=AXIS2_PLACEMENT_3D('Cylinder Axis2P3D',#913,#914,#915) ;
#945=AXIS2_PLACEMENT_3D('Cylinder Axis2P3D',#942,#943,#944) ;
#974=AXIS2_PLACEMENT_3D('Cylinder Axis2P3D',#971,#972,#973) ;
#1003=AXIS2_PLACEMENT_3D('Cylinder Axis2P3D',#1000,#1001,#1002) ;
#1007=AXIS2_PLACEMENT_3D('Circle Axis2P3D',#1005,#1006,$) ;
#1020=AXIS2_PLACEMENT_3D('Plane Axis2P3D',#1017,#1018,#1019) ;
#48=LINE('Line',#45,#47) ;
#62=LINE('Line',#59,#61) ;
#96=LINE('Line',#93,#95) ;
#105=LINE('Line',#102,#104) ;
#112=LINE('Line',#109,#111) ;
#119=LINE('Line',#116,#118) ;
#194=LINE('Line',#191,#193) ;
#203=LINE('Line',#200,#202) ;
#210=LINE('Line',#207,#209) ;
#217=LINE('Line',#214,#216) ;
#292=LINE('Line',#289,#291) ;
#297=LINE('Line',#294,#296) ;
#321=LINE('Line',#318,#320) ;
#328=LINE('Line',#325,#327) ;
#335=LINE('Line',#332,#334) ;
#370=LINE('Line',#367,#369) ;
#387=LINE('Line',#384,#386) ;
#394=LINE('Line',#391,#393) ;
#405=LINE('Line',#402,#404) ;
#414=LINE('Line',#411,#413) ;
#421=LINE('Line',#418,#420) ;
#428=LINE('Line',#425,#427) ;
#435=LINE('Line',#432,#434) ;
#442=LINE('Line',#439,#441) ;
#533=LINE('Line',#530,#532) ;
#540=LINE('Line',#537,#539) ;
#557=LINE('Line',#554,#556) ;
#564=LINE('Line',#561,#563) ;
#571=LINE('Line',#568,#570) ;
#588=LINE('Line',#585,#587) ;
#595=LINE('Line',#592,#594) ;
#612=LINE('Line',#609,#611) ;
#619=LINE('Line',#616,#618) ;
#636=LINE('Line',#633,#635) ;
#643=LINE('Line',#640,#642) ;
#660=LINE('Line',#657,#659) ;
#667=LINE('Line',#664,#666) ;
#684=LINE('Line',#681,#683) ;
#701=LINE('Line',#698,#700) ;
#715=LINE('Line',#712,#714) ;
#744=LINE('Line',#741,#743) ;
#758=LINE('Line',#755,#757) ;
#787=LINE('Line',#784,#786) ;
#801=LINE('Line',#798,#800) ;
#830=LINE('Line',#827,#829) ;
#844=LINE('Line',#841,#843) ;
#873=LINE('Line',#870,#872) ;
#880=LINE('Line',#877,#879) ;
#921=LINE('Line',#918,#920) ;
#926=LINE('Line',#923,#925) ;
#950=LINE('Line',#947,#949) ;
#955=LINE('Line',#952,#954) ;
#979=LINE('Line',#976,#978) ;
#984=LINE('Line',#981,#983) ;
#39=CIRCLE('generated circle',#38,2.1) ;
#55=CIRCLE('generated circle',#54,2.1) ;
#74=CIRCLE('generated circle',#73,2.1) ;
#79=CIRCLE('generated circle',#78,2.1) ;
#134=CIRCLE('generated circle',#133,2.1) ;
#143=CIRCLE('generated circle',#142,2.1) ;
#152=CIRCLE('generated circle',#151,2.1) ;
#161=CIRCLE('generated circle',#160,2.1) ;
#170=CIRCLE('generated circle',#169,2.1) ;
#179=CIRCLE('generated circle',#178,2.1) ;
#232=CIRCLE('generated circle',#231,2.1) ;
#241=CIRCLE('generated circle',#240,2.1) ;
#250=CIRCLE('generated circle',#249,2.1) ;
#259=CIRCLE('generated circle',#258,2.1) ;
#268=CIRCLE('generated circle',#267,2.1) ;
#277=CIRCLE('generated circle',#276,2.1) ;
#314=CIRCLE('generated circle',#313,5.) ;
#342=CIRCLE('generated circle',#341,2.) ;
#363=CIRCLE('generated circle',#362,5.) ;
#455=CIRCLE('generated circle',#454,2.6) ;
#464=CIRCLE('generated circle',#463,2.6) ;
#473=CIRCLE('generated circle',#472,2.6) ;
#482=CIRCLE('generated circle',#481,2.6) ;
#491=CIRCLE('generated circle',#490,2.6) ;
#500=CIRCLE('generated circle',#499,2.6) ;
#509=CIRCLE('generated circle',#508,2.6) ;
#518=CIRCLE('generated circle',#517,2.6) ;
#708=CIRCLE('generated circle',#707,2.6) ;
#727=CIRCLE('generated circle',#726,2.6) ;
#751=CIRCLE('generated circle',#750,2.6) ;
#770=CIRCLE('generated circle',#769,2.6) ;
#794=CIRCLE('generated circle',#793,2.6) ;
#813=CIRCLE('generated circle',#812,2.6) ;
#837=CIRCLE('generated circle',#836,2.6) ;
#856=CIRCLE('generated circle',#855,2.6) ;
#1008=CIRCLE('generated circle',#1007,2.) ;
#92=PLANE('',#91) ;
#190=PLANE('',#189) ;
#288=PLANE('',#287) ;
#310=PLANE('',#309) ;
#383=PLANE('',#382) ;
#529=PLANE('',#528) ;
#553=PLANE('',#552) ;
#584=PLANE('',#583) ;
#608=PLANE('',#607) ;
#632=PLANE('',#631) ;
#656=PLANE('',#655) ;
#680=PLANE('',#679) ;
#869=PLANE('',#868) ;
#1021=PLANE('',#1020) ;
#35=CYLINDRICAL_SURFACE('generated cylinder',#34,2.1) ;
#359=CYLINDRICAL_SURFACE('generated cylinder',#358,5.) ;
#697=CYLINDRICAL_SURFACE('generated cylinder',#696,2.6) ;
#740=CYLINDRICAL_SURFACE('generated cylinder',#739,2.6) ;
#783=CYLINDRICAL_SURFACE('generated cylinder',#782,2.6) ;
#826=CYLINDRICAL_SURFACE('generated cylinder',#825,2.6) ;
#917=CYLINDRICAL_SURFACE('generated cylinder',#916,2.1) ;
#946=CYLINDRICAL_SURFACE('generated cylinder',#945,2.1) ;
#975=CYLINDRICAL_SURFACE('generated cylinder',#974,2.1) ;
#1004=CYLINDRICAL_SURFACE('generated cylinder',#1003,2.) ;
#130=FACE_BOUND('',#127,.T.) ;
#148=FACE_BOUND('',#145,.T.) ;
#166=FACE_BOUND('',#163,.T.) ;
#184=FACE_BOUND('',#181,.T.) ;
#228=FACE_BOUND('',#225,.T.) ;
#246=FACE_BOUND('',#243,.T.) ;
#264=FACE_BOUND('',#261,.T.) ;
#282=FACE_BOUND('',#279,.T.) ;
#451=FACE_BOUND('',#444,.T.) ;
#469=FACE_BOUND('',#466,.T.) ;
#487=FACE_BOUND('',#484,.T.) ;
#505=FACE_BOUND('',#502,.T.) ;
#523=FACE_BOUND('',#520,.T.) ;
#895=FACE_BOUND('',#888,.T.) ;
#899=FACE_BOUND('',#896,.T.) ;
#903=FACE_BOUND('',#900,.T.) ;
#907=FACE_BOUND('',#904,.T.) ;
#911=FACE_BOUND('',#908,.T.) ;
#44=EDGE_CURVE('',#41,#43,#39,.F.) ;
#51=EDGE_CURVE('',#50,#43,#48,.F.) ;
#58=EDGE_CURVE('',#50,#57,#55,.T.) ;
#63=EDGE_CURVE('',#57,#41,#62,.F.) ;
#75=EDGE_CURVE('',#43,#41,#74,.F.) ;
#80=EDGE_CURVE('',#57,#50,#79,.T.) ;
#101=EDGE_CURVE('',#98,#100,#96,.T.) ;
#108=EDGE_CURVE('',#107,#100,#105,.T.) ;
#115=EDGE_CURVE('',#114,#107,#112,.T.) ;
#120=EDGE_CURVE('',#114,#98,#119,.T.) ;
#139=EDGE_CURVE('',#136,#138,#134,.F.) ;
#144=EDGE_CURVE('',#138,#136,#143,.F.) ;
#157=EDGE_CURVE('',#154,#156,#152,.F.) ;
#162=EDGE_CURVE('',#156,#154,#161,.F.) ;
#175=EDGE_CURVE('',#172,#174,#170,.F.) ;
#180=EDGE_CURVE('',#174,#172,#179,.F.) ;
#199=EDGE_CURVE('',#196,#198,#194,.T.) ;
#206=EDGE_CURVE('',#196,#205,#203,.T.) ;
#213=EDGE_CURVE('',#205,#212,#210,.T.) ;
#218=EDGE_CURVE('',#198,#212,#217,.T.) ;
#237=EDGE_CURVE('',#234,#236,#232,.T.) ;
#242=EDGE_CURVE('',#236,#234,#241,.T.) ;
#255=EDGE_CURVE('',#252,#254,#250,.T.) ;
#260=EDGE_CURVE('',#254,#252,#259,.T.) ;
#273=EDGE_CURVE('',#270,#272,#268,.T.) ;
#278=EDGE_CURVE('',#272,#270,#277,.T.) ;
#293=EDGE_CURVE('',#114,#196,#292,.T.) ;
#298=EDGE_CURVE('',#98,#198,#297,.T.) ;
#317=EDGE_CURVE('',#212,#316,#314,.T.) ;
#324=EDGE_CURVE('',#316,#323,#321,.T.) ;
#331=EDGE_CURVE('',#323,#330,#328,.T.) ;
#338=EDGE_CURVE('',#337,#330,#335,.T.) ;
#343=EDGE_CURVE('',#100,#337,#342,.T.) ;
#366=EDGE_CURVE('',#205,#365,#363,.T.) ;
#371=EDGE_CURVE('',#365,#316,#370,.T.) ;
#390=EDGE_CURVE('',#365,#389,#387,.T.) ;
#395=EDGE_CURVE('',#389,#323,#394,.T.) ;
#410=EDGE_CURVE('',#407,#409,#405,.T.) ;
#417=EDGE_CURVE('',#409,#416,#414,.T.) ;
#424=EDGE_CURVE('',#416,#423,#421,.T.) ;
#431=EDGE_CURVE('',#423,#430,#428,.T.) ;
#438=EDGE_CURVE('',#430,#437,#435,.T.) ;
#443=EDGE_CURVE('',#437,#407,#442,.T.) ;
#460=EDGE_CURVE('',#457,#459,#455,.T.) ;
#465=EDGE_CURVE('',#459,#457,#464,.T.) ;
#478=EDGE_CURVE('',#475,#477,#473,.T.) ;
#483=EDGE_CURVE('',#477,#475,#482,.T.) ;
#496=EDGE_CURVE('',#493,#495,#491,.T.) ;
#501=EDGE_CURVE('',#495,#493,#500,.T.) ;
#514=EDGE_CURVE('',#511,#513,#509,.T.) ;
#519=EDGE_CURVE('',#513,#511,#518,.T.) ;
#536=EDGE_CURVE('',#389,#535,#533,.T.) ;
#541=EDGE_CURVE('',#535,#330,#540,.T.) ;
#560=EDGE_CURVE('',#559,#407,#557,.T.) ;
#567=EDGE_CURVE('',#559,#566,#564,.T.) ;
#572=EDGE_CURVE('',#566,#409,#571,.T.) ;
#591=EDGE_CURVE('',#566,#590,#588,.T.) ;
#596=EDGE_CURVE('',#590,#416,#595,.T.) ;
#615=EDGE_CURVE('',#590,#614,#612,.T.) ;
#620=EDGE_CURVE('',#614,#423,#619,.T.) ;
#639=EDGE_CURVE('',#614,#638,#636,.T.) ;
#644=EDGE_CURVE('',#638,#430,#643,.T.) ;
#663=EDGE_CURVE('',#638,#662,#660,.T.) ;
#668=EDGE_CURVE('',#662,#437,#667,.T.) ;
#685=EDGE_CURVE('',#662,#559,#684,.T.) ;
#704=EDGE_CURVE('',#703,#511,#701,.F.) ;
#711=EDGE_CURVE('',#703,#710,#708,.T.) ;
#716=EDGE_CURVE('',#710,#513,#715,.F.) ;
#728=EDGE_CURVE('',#710,#703,#727,.T.) ;
#747=EDGE_CURVE('',#746,#493,#744,.F.) ;
#754=EDGE_CURVE('',#746,#753,#751,.T.) ;
#759=EDGE_CURVE('',#753,#495,#758,.F.) ;
#771=EDGE_CURVE('',#753,#746,#770,.T.) ;
#790=EDGE_CURVE('',#789,#475,#787,.F.) ;
#797=EDGE_CURVE('',#789,#796,#794,.T.) ;
#802=EDGE_CURVE('',#796,#477,#801,.F.) ;
#814=EDGE_CURVE('',#796,#789,#813,.T.) ;
#833=EDGE_CURVE('',#832,#457,#830,.F.) ;
#840=EDGE_CURVE('',#832,#839,#837,.T.) ;
#845=EDGE_CURVE('',#839,#459,#844,.F.) ;
#857=EDGE_CURVE('',#839,#832,#856,.T.) ;
#876=EDGE_CURVE('',#875,#535,#873,.T.) ;
#881=EDGE_CURVE('',#875,#337,#880,.T.) ;
#922=EDGE_CURVE('',#172,#270,#921,.F.) ;
#927=EDGE_CURVE('',#174,#272,#926,.F.) ;
#951=EDGE_CURVE('',#154,#252,#950,.F.) ;
#956=EDGE_CURVE('',#156,#254,#955,.F.) ;
#980=EDGE_CURVE('',#136,#234,#979,.F.) ;
#985=EDGE_CURVE('',#138,#236,#984,.F.) ;
#1009=EDGE_CURVE('',#107,#875,#1008,.T.) ;
#30=CLOSED_SHELL('Closed Shell',(#70,#87,#185,#283,#305,#354,#378,#524,#548,#579,#603,#627,#651,#675,#692,#723,#735,#766,#778,#809,#821,#852,#864,#912,#934,#941,#963,#970,#992,#999,#1016,#1032)) ;
#65=ORIENTED_EDGE('',*,*,#44,.T.) ;
#66=ORIENTED_EDGE('',*,*,#51,.F.) ;
#67=ORIENTED_EDGE('',*,*,#58,.T.) ;
#68=ORIENTED_EDGE('',*,*,#63,.T.) ;
#82=ORIENTED_EDGE('',*,*,#75,.T.) ;
#83=ORIENTED_EDGE('',*,*,#63,.F.) ;
#84=ORIENTED_EDGE('',*,*,#80,.T.) ;
#85=ORIENTED_EDGE('',*,*,#51,.T.) ;
#122=ORIENTED_EDGE('',*,*,#101,.T.) ;
#123=ORIENTED_EDGE('',*,*,#108,.F.) ;
#124=ORIENTED_EDGE('',*,*,#115,.F.) ;
#125=ORIENTED_EDGE('',*,*,#120,.T.) ;
#128=ORIENTED_EDGE('',*,*,#58,.F.) ;
#129=ORIENTED_EDGE('',*,*,#80,.F.) ;
#146=ORIENTED_EDGE('',*,*,#139,.F.) ;
#147=ORIENTED_EDGE('',*,*,#144,.F.) ;
#164=ORIENTED_EDGE('',*,*,#157,.F.) ;
#165=ORIENTED_EDGE('',*,*,#162,.F.) ;
#182=ORIENTED_EDGE('',*,*,#175,.F.) ;
#183=ORIENTED_EDGE('',*,*,#180,.F.) ;
#220=ORIENTED_EDGE('',*,*,#199,.F.) ;
#221=ORIENTED_EDGE('',*,*,#206,.T.) ;
#222=ORIENTED_EDGE('',*,*,#213,.T.) ;
#223=ORIENTED_EDGE('',*,*,#218,.F.) ;
#226=ORIENTED_EDGE('',*,*,#75,.F.) ;
#227=ORIENTED_EDGE('',*,*,#44,.F.) ;
#244=ORIENTED_EDGE('',*,*,#237,.F.) ;
#245=ORIENTED_EDGE('',*,*,#242,.F.) ;
#262=ORIENTED_EDGE('',*,*,#255,.F.) ;
#263=ORIENTED_EDGE('',*,*,#260,.F.) ;
#280=ORIENTED_EDGE('',*,*,#273,.F.) ;
#281=ORIENTED_EDGE('',*,*,#278,.F.) ;
#300=ORIENTED_EDGE('',*,*,#120,.F.) ;
#301=ORIENTED_EDGE('',*,*,#293,.T.) ;
#302=ORIENTED_EDGE('',*,*,#199,.T.) ;
#303=ORIENTED_EDGE('',*,*,#298,.F.) ;
#345=ORIENTED_EDGE('',*,*,#218,.T.) ;
#346=ORIENTED_EDGE('',*,*,#317,.T.) ;
#347=ORIENTED_EDGE('',*,*,#324,.T.) ;
#348=ORIENTED_EDGE('',*,*,#331,.T.) ;
#349=ORIENTED_EDGE('',*,*,#338,.F.) ;
#350=ORIENTED_EDGE('',*,*,#343,.F.) ;
#351=ORIENTED_EDGE('',*,*,#101,.F.) ;
#352=ORIENTED_EDGE('',*,*,#298,.T.) ;
#373=ORIENTED_EDGE('',*,*,#213,.F.) ;
#374=ORIENTED_EDGE('',*,*,#366,.T.) ;
#375=ORIENTED_EDGE('',*,*,#371,.T.) ;
#376=ORIENTED_EDGE('',*,*,#317,.F.) ;
#397=ORIENTED_EDGE('',*,*,#371,.F.) ;
#398=ORIENTED_EDGE('',*,*,#390,.T.) ;
#399=ORIENTED_EDGE('',*,*,#395,.T.) ;
#400=ORIENTED_EDGE('',*,*,#324,.F.) ;
#445=ORIENTED_EDGE('',*,*,#410,.T.) ;
#446=ORIENTED_EDGE('',*,*,#417,.T.) ;
#447=ORIENTED_EDGE('',*,*,#424,.T.) ;
#448=ORIENTED_EDGE('',*,*,#431,.T.) ;
#449=ORIENTED_EDGE('',*,*,#438,.T.) ;
#450=ORIENTED_EDGE('',*,*,#443,.T.) ;
#467=ORIENTED_EDGE('',*,*,#460,.F.) ;
#468=ORIENTED_EDGE('',*,*,#465,.F.) ;
#485=ORIENTED_EDGE('',*,*,#478,.F.) ;
#486=ORIENTED_EDGE('',*,*,#483,.F.) ;
#503=ORIENTED_EDGE('',*,*,#496,.F.) ;
#504=ORIENTED_EDGE('',*,*,#501,.F.) ;
#521=ORIENTED_EDGE('',*,*,#514,.F.) ;
#522=ORIENTED_EDGE('',*,*,#519,.F.) ;
#543=ORIENTED_EDGE('',*,*,#395,.F.) ;
#544=ORIENTED_EDGE('',*,*,#536,.T.) ;
#545=ORIENTED_EDGE('',*,*,#541,.T.) ;
#546=ORIENTED_EDGE('',*,*,#331,.F.) ;
#574=ORIENTED_EDGE('',*,*,#560,.F.) ;
#575=ORIENTED_EDGE('',*,*,#567,.T.) ;
#576=ORIENTED_EDGE('',*,*,#572,.T.) ;
#577=ORIENTED_EDGE('',*,*,#410,.F.) ;
#598=ORIENTED_EDGE('',*,*,#572,.F.) ;
#599=ORIENTED_EDGE('',*,*,#591,.T.) ;
#600=ORIENTED_EDGE('',*,*,#596,.T.) ;
#601=ORIENTED_EDGE('',*,*,#417,.F.) ;
#622=ORIENTED_EDGE('',*,*,#596,.F.) ;
#623=ORIENTED_EDGE('',*,*,#615,.T.) ;
#624=ORIENTED_EDGE('',*,*,#620,.T.) ;
#625=ORIENTED_EDGE('',*,*,#424,.F.) ;
#646=ORIENTED_EDGE('',*,*,#620,.F.) ;
#647=ORIENTED_EDGE('',*,*,#639,.T.) ;
#648=ORIENTED_EDGE('',*,*,#644,.T.) ;
#649=ORIENTED_EDGE('',*,*,#431,.F.) ;
#670=ORIENTED_EDGE('',*,*,#644,.F.) ;
#671=ORIENTED_EDGE('',*,*,#663,.T.) ;
#672=ORIENTED_EDGE('',*,*,#668,.T.) ;
#673=ORIENTED_EDGE('',*,*,#438,.F.) ;
#687=ORIENTED_EDGE('',*,*,#668,.F.) ;
#688=ORIENTED_EDGE('',*,*,#685,.T.) ;
#689=ORIENTED_EDGE('',*,*,#560,.T.) ;
#690=ORIENTED_EDGE('',*,*,#443,.F.) ;
#718=ORIENTED_EDGE('',*,*,#519,.T.) ;
#719=ORIENTED_EDGE('',*,*,#704,.F.) ;
#720=ORIENTED_EDGE('',*,*,#711,.T.) ;
#721=ORIENTED_EDGE('',*,*,#716,.T.) ;
#730=ORIENTED_EDGE('',*,*,#514,.T.) ;
#731=ORIENTED_EDGE('',*,*,#716,.F.) ;
#732=ORIENTED_EDGE('',*,*,#728,.T.) ;
#733=ORIENTED_EDGE('',*,*,#704,.T.) ;
#761=ORIENTED_EDGE('',*,*,#501,.T.) ;
#762=ORIENTED_EDGE('',*,*,#747,.F.) ;
#763=ORIENTED_EDGE('',*,*,#754,.T.) ;
#764=ORIENTED_EDGE('',*,*,#759,.T.) ;
#773=ORIENTED_EDGE('',*,*,#496,.T.) ;
#774=ORIENTED_EDGE('',*,*,#759,.F.) ;
#775=ORIENTED_EDGE('',*,*,#771,.T.) ;
#776=ORIENTED_EDGE('',*,*,#747,.T.) ;
#804=ORIENTED_EDGE('',*,*,#483,.T.) ;
#805=ORIENTED_EDGE('',*,*,#790,.F.) ;
#806=ORIENTED_EDGE('',*,*,#797,.T.) ;
#807=ORIENTED_EDGE('',*,*,#802,.T.) ;
#816=ORIENTED_EDGE('',*,*,#478,.T.) ;
#817=ORIENTED_EDGE('',*,*,#802,.F.) ;
#818=ORIENTED_EDGE('',*,*,#814,.T.) ;
#819=ORIENTED_EDGE('',*,*,#790,.T.) ;
#847=ORIENTED_EDGE('',*,*,#465,.T.) ;
#848=ORIENTED_EDGE('',*,*,#833,.F.) ;
#849=ORIENTED_EDGE('',*,*,#840,.T.) ;
#850=ORIENTED_EDGE('',*,*,#845,.T.) ;
#859=ORIENTED_EDGE('',*,*,#460,.T.) ;
#860=ORIENTED_EDGE('',*,*,#845,.F.) ;
#861=ORIENTED_EDGE('',*,*,#857,.T.) ;
#862=ORIENTED_EDGE('',*,*,#833,.T.) ;
#883=ORIENTED_EDGE('',*,*,#338,.T.) ;
#884=ORIENTED_EDGE('',*,*,#541,.F.) ;
#885=ORIENTED_EDGE('',*,*,#876,.F.) ;
#886=ORIENTED_EDGE('',*,*,#881,.T.) ;
#889=ORIENTED_EDGE('',*,*,#685,.F.) ;
#890=ORIENTED_EDGE('',*,*,#663,.F.) ;
#891=ORIENTED_EDGE('',*,*,#639,.F.) ;
#892=ORIENTED_EDGE('',*,*,#615,.F.) ;
#893=ORIENTED_EDGE('',*,*,#591,.F.) ;
#894=ORIENTED_EDGE('',*,*,#567,.F.) ;
#897=ORIENTED_EDGE('',*,*,#840,.F.) ;
#898=ORIENTED_EDGE('',*,*,#857,.F.) ;
#901=ORIENTED_EDGE('',*,*,#797,.F.) ;
#902=ORIENTED_EDGE('',*,*,#814,.F.) ;
#905=ORIENTED_EDGE('',*,*,#754,.F.) ;
#906=ORIENTED_EDGE('',*,*,#771,.F.) ;
#909=ORIENTED_EDGE('',*,*,#711,.F.) ;
#910=ORIENTED_EDGE('',*,*,#728,.F.) ;
#929=ORIENTED_EDGE('',*,*,#278,.T.) ;
#930=ORIENTED_EDGE('',*,*,#922,.F.) ;
#931=ORIENTED_EDGE('',*,*,#175,.T.) ;
#932=ORIENTED_EDGE('',*,*,#927,.T.) ;
#936=ORIENTED_EDGE('',*,*,#273,.T.) ;
#937=ORIENTED_EDGE('',*,*,#927,.F.) ;
#938=ORIENTED_EDGE('',*,*,#180,.T.) ;
#939=ORIENTED_EDGE('',*,*,#922,.T.) ;
#958=ORIENTED_EDGE('',*,*,#260,.T.) ;
#959=ORIENTED_EDGE('',*,*,#951,.F.) ;
#960=ORIENTED_EDGE('',*,*,#157,.T.) ;
#961=ORIENTED_EDGE('',*,*,#956,.T.) ;
#965=ORIENTED_EDGE('',*,*,#255,.T.) ;
#966=ORIENTED_EDGE('',*,*,#956,.F.) ;
#967=ORIENTED_EDGE('',*,*,#162,.T.) ;
#968=ORIENTED_EDGE('',*,*,#951,.T.) ;
#987=ORIENTED_EDGE('',*,*,#242,.T.) ;
#988=ORIENTED_EDGE('',*,*,#980,.F.) ;
#989=ORIENTED_EDGE('',*,*,#139,.T.) ;
#990=ORIENTED_EDGE('',*,*,#985,.T.) ;
#994=ORIENTED_EDGE('',*,*,#237,.T.) ;
#995=ORIENTED_EDGE('',*,*,#985,.F.) ;
#996=ORIENTED_EDGE('',*,*,#144,.T.) ;
#997=ORIENTED_EDGE('',*,*,#980,.T.) ;
#1011=ORIENTED_EDGE('',*,*,#343,.T.) ;
#1012=ORIENTED_EDGE('',*,*,#881,.F.) ;
#1013=ORIENTED_EDGE('',*,*,#1009,.F.) ;
#1014=ORIENTED_EDGE('',*,*,#108,.T.) ;
#1023=ORIENTED_EDGE('',*,*,#293,.F.) ;
#1024=ORIENTED_EDGE('',*,*,#115,.T.) ;
#1025=ORIENTED_EDGE('',*,*,#1009,.T.) ;
#1026=ORIENTED_EDGE('',*,*,#876,.T.) ;
#1027=ORIENTED_EDGE('',*,*,#536,.F.) ;
#1028=ORIENTED_EDGE('',*,*,#390,.F.) ;
#1029=ORIENTED_EDGE('',*,*,#366,.F.) ;
#1030=ORIENTED_EDGE('',*,*,#206,.F.) ;
#64=EDGE_LOOP('',(#65,#66,#67,#68)) ;
#81=EDGE_LOOP('',(#82,#83,#84,#85)) ;
#121=EDGE_LOOP('',(#122,#123,#124,#125)) ;
#127=EDGE_LOOP('',(#128,#129)) ;
#145=EDGE_LOOP('',(#146,#147)) ;
#163=EDGE_LOOP('',(#164,#165)) ;
#181=EDGE_LOOP('',(#182,#183)) ;
#219=EDGE_LOOP('',(#220,#221,#222,#223)) ;
#225=EDGE_LOOP('',(#226,#227)) ;
#243=EDGE_LOOP('',(#244,#245)) ;
#261=EDGE_LOOP('',(#262,#263)) ;
#279=EDGE_LOOP('',(#280,#281)) ;
#299=EDGE_LOOP('',(#300,#301,#302,#303)) ;
#344=EDGE_LOOP('',(#345,#346,#347,#348,#349,#350,#351,#352)) ;
#372=EDGE_LOOP('',(#373,#374,#375,#376)) ;
#396=EDGE_LOOP('',(#397,#398,#399,#400)) ;
#444=EDGE_LOOP('',(#445,#446,#447,#448,#449,#450)) ;
#466=EDGE_LOOP('',(#467,#468)) ;
#484=EDGE_LOOP('',(#485,#486)) ;
#502=EDGE_LOOP('',(#503,#504)) ;
#520=EDGE_LOOP('',(#521,#522)) ;
#542=EDGE_LOOP('',(#543,#544,#545,#546)) ;
#573=EDGE_LOOP('',(#574,#575,#576,#577)) ;
#597=EDGE_LOOP('',(#598,#599,#600,#601)) ;
#621=EDGE_LOOP('',(#622,#623,#624,#625)) ;
#645=EDGE_LOOP('',(#646,#647,#648,#649)) ;
#669=EDGE_LOOP('',(#670,#671,#672,#673)) ;
#686=EDGE_LOOP('',(#687,#688,#689,#690)) ;
#717=EDGE_LOOP('',(#718,#719,#720,#721)) ;
#729=EDGE_LOOP('',(#730,#731,#732,#733)) ;
#760=EDGE_LOOP('',(#761,#762,#763,#764)) ;
#772=EDGE_LOOP('',(#773,#774,#775,#776)) ;
#803=EDGE_LOOP('',(#804,#805,#806,#807)) ;
#815=EDGE_LOOP('',(#816,#817,#818,#819)) ;
#846=EDGE_LOOP('',(#847,#848,#849,#850)) ;
#858=EDGE_LOOP('',(#859,#860,#861,#862)) ;
#882=EDGE_LOOP('',(#883,#884,#885,#886)) ;
#888=EDGE_LOOP('',(#889,#890,#891,#892,#893,#894)) ;
#896=EDGE_LOOP('',(#897,#898)) ;
#900=EDGE_LOOP('',(#901,#902)) ;
#904=EDGE_LOOP('',(#905,#906)) ;
#908=EDGE_LOOP('',(#909,#910)) ;
#928=EDGE_LOOP('',(#929,#930,#931,#932)) ;
#935=EDGE_LOOP('',(#936,#937,#938,#939)) ;
#957=EDGE_LOOP('',(#958,#959,#960,#961)) ;
#964=EDGE_LOOP('',(#965,#966,#967,#968)) ;
#986=EDGE_LOOP('',(#987,#988,#989,#990)) ;
#993=EDGE_LOOP('',(#994,#995,#996,#997)) ;
#1010=EDGE_LOOP('',(#1011,#1012,#1013,#1014)) ;
#1022=EDGE_LOOP('',(#1023,#1024,#1025,#1026,#1027,#1028,#1029,#1030)) ;
#21=MANIFOLD_SOLID_BREP('Corps principal',#30) ;
#41=VERTEX_POINT('',#40) ;
#43=VERTEX_POINT('',#42) ;
#50=VERTEX_POINT('',#49) ;
#57=VERTEX_POINT('',#56) ;
#98=VERTEX_POINT('',#97) ;
#100=VERTEX_POINT('',#99) ;
#107=VERTEX_POINT('',#106) ;
#114=VERTEX_POINT('',#113) ;
#136=VERTEX_POINT('',#135) ;
#138=VERTEX_POINT('',#137) ;
#154=VERTEX_POINT('',#153) ;
#156=VERTEX_POINT('',#155) ;
#172=VERTEX_POINT('',#171) ;
#174=VERTEX_POINT('',#173) ;
#196=VERTEX_POINT('',#195) ;
#198=VERTEX_POINT('',#197) ;
#205=VERTEX_POINT('',#204) ;
#212=VERTEX_POINT('',#211) ;
#234=VERTEX_POINT('',#233) ;
#236=VERTEX_POINT('',#235) ;
#252=VERTEX_POINT('',#251) ;
#254=VERTEX_POINT('',#253) ;
#270=VERTEX_POINT('',#269) ;
#272=VERTEX_POINT('',#271) ;
#316=VERTEX_POINT('',#315) ;
#323=VERTEX_POINT('',#322) ;
#330=VERTEX_POINT('',#329) ;
#337=VERTEX_POINT('',#336) ;
#365=VERTEX_POINT('',#364) ;
#389=VERTEX_POINT('',#388) ;
#407=VERTEX_POINT('',#406) ;
#409=VERTEX_POINT('',#408) ;
#416=VERTEX_POINT('',#415) ;
#423=VERTEX_POINT('',#422) ;
#430=VERTEX_POINT('',#429) ;
#437=VERTEX_POINT('',#436) ;
#457=VERTEX_POINT('',#456) ;
#459=VERTEX_POINT('',#458) ;
#475=VERTEX_POINT('',#474) ;
#477=VERTEX_POINT('',#476) ;
#493=VERTEX_POINT('',#492) ;
#495=VERTEX_POINT('',#494) ;
#511=VERTEX_POINT('',#510) ;
#513=VERTEX_POINT('',#512) ;
#535=VERTEX_POINT('',#534) ;
#559=VERTEX_POINT('',#558) ;
#566=VERTEX_POINT('',#565) ;
#590=VERTEX_POINT('',#589) ;
#614=VERTEX_POINT('',#613) ;
#638=VERTEX_POINT('',#637) ;
#662=VERTEX_POINT('',#661) ;
#703=VERTEX_POINT('',#702) ;
#710=VERTEX_POINT('',#709) ;
#746=VERTEX_POINT('',#745) ;
#753=VERTEX_POINT('',#752) ;
#789=VERTEX_POINT('',#788) ;
#796=VERTEX_POINT('',#795) ;
#832=VERTEX_POINT('',#831) ;
#839=VERTEX_POINT('',#838) ;
#875=VERTEX_POINT('',#874) ;
#1033=ADVANCED_BREP_SHAPE_REPRESENTATION('NONE',(#21),#16) ;
#70=ADVANCED_FACE('Corps principal',(#69),#35,.F.) ;
#87=ADVANCED_FACE('Corps principal',(#86),#35,.F.) ;
#185=ADVANCED_FACE('Corps principal',(#126,#130,#148,#166,#184),#92,.F.) ;
#283=ADVANCED_FACE('Corps principal',(#224,#228,#246,#264,#282),#190,.T.) ;
#305=ADVANCED_FACE('Corps principal',(#304),#288,.T.) ;
#354=ADVANCED_FACE('Corps principal',(#353),#310,.T.) ;
#378=ADVANCED_FACE('Corps principal',(#377),#359,.T.) ;
#524=ADVANCED_FACE('Corps principal',(#401,#451,#469,#487,#505,#523),#383,.T.) ;
#548=ADVANCED_FACE('Corps principal',(#547),#529,.T.) ;
#579=ADVANCED_FACE('Corps principal',(#578),#553,.T.) ;
#603=ADVANCED_FACE('Corps principal',(#602),#584,.T.) ;
#627=ADVANCED_FACE('Corps principal',(#626),#608,.T.) ;
#651=ADVANCED_FACE('Corps principal',(#650),#632,.T.) ;
#675=ADVANCED_FACE('Corps principal',(#674),#656,.T.) ;
#692=ADVANCED_FACE('Corps principal',(#691),#680,.T.) ;
#723=ADVANCED_FACE('Corps principal',(#722),#697,.F.) ;
#735=ADVANCED_FACE('Corps principal',(#734),#697,.F.) ;
#766=ADVANCED_FACE('Corps principal',(#765),#740,.F.) ;
#778=ADVANCED_FACE('Corps principal',(#777),#740,.F.) ;
#809=ADVANCED_FACE('Corps principal',(#808),#783,.F.) ;
#821=ADVANCED_FACE('Corps principal',(#820),#783,.F.) ;
#852=ADVANCED_FACE('Corps principal',(#851),#826,.F.) ;
#864=ADVANCED_FACE('Corps principal',(#863),#826,.F.) ;
#912=ADVANCED_FACE('Corps principal',(#887,#895,#899,#903,#907,#911),#869,.F.) ;
#934=ADVANCED_FACE('Corps principal',(#933),#917,.F.) ;
#941=ADVANCED_FACE('Corps principal',(#940),#917,.F.) ;
#963=ADVANCED_FACE('Corps principal',(#962),#946,.F.) ;
#970=ADVANCED_FACE('Corps principal',(#969),#946,.F.) ;
#992=ADVANCED_FACE('Corps principal',(#991),#975,.F.) ;
#999=ADVANCED_FACE('Corps principal',(#998),#975,.F.) ;
#1016=ADVANCED_FACE('Corps principal',(#1015),#1004,.F.) ;
#1032=ADVANCED_FACE('Corps principal',(#1031),#1021,.F.) ;
#4=APPLICATION_PROTOCOL_DEFINITION('international standard','ap242_managed_model_based_3d_engineering',2014,#1) ;
#22=COLOUR_RGB('Colour',0.823529411765,0.823529411765,1.) ;
#69=FACE_OUTER_BOUND('',#64,.T.) ;
#86=FACE_OUTER_BOUND('',#81,.T.) ;
#126=FACE_OUTER_BOUND('',#121,.T.) ;
#224=FACE_OUTER_BOUND('',#219,.T.) ;
#304=FACE_OUTER_BOUND('',#299,.T.) ;
#353=FACE_OUTER_BOUND('',#344,.T.) ;
#377=FACE_OUTER_BOUND('',#372,.T.) ;
#401=FACE_OUTER_BOUND('',#396,.T.) ;
#547=FACE_OUTER_BOUND('',#542,.T.) ;
#578=FACE_OUTER_BOUND('',#573,.T.) ;
#602=FACE_OUTER_BOUND('',#597,.T.) ;
#626=FACE_OUTER_BOUND('',#621,.T.) ;
#650=FACE_OUTER_BOUND('',#645,.T.) ;
#674=FACE_OUTER_BOUND('',#669,.T.) ;
#691=FACE_OUTER_BOUND('',#686,.T.) ;
#722=FACE_OUTER_BOUND('',#717,.T.) ;
#734=FACE_OUTER_BOUND('',#729,.T.) ;
#765=FACE_OUTER_BOUND('',#760,.T.) ;
#777=FACE_OUTER_BOUND('',#772,.T.) ;
#808=FACE_OUTER_BOUND('',#803,.T.) ;
#820=FACE_OUTER_BOUND('',#815,.T.) ;
#851=FACE_OUTER_BOUND('',#846,.T.) ;
#863=FACE_OUTER_BOUND('',#858,.T.) ;
#887=FACE_OUTER_BOUND('',#882,.T.) ;
#933=FACE_OUTER_BOUND('',#928,.T.) ;
#940=FACE_OUTER_BOUND('',#935,.T.) ;
#962=FACE_OUTER_BOUND('',#957,.T.) ;
#969=FACE_OUTER_BOUND('',#964,.T.) ;
#991=FACE_OUTER_BOUND('',#986,.T.) ;
#998=FACE_OUTER_BOUND('',#993,.T.) ;
#1015=FACE_OUTER_BOUND('',#1010,.T.) ;
#1031=FACE_OUTER_BOUND('',#1022,.T.) ;
#9=PRODUCT_CATEGORY_RELATIONSHIP(' ',' ',#7,#8) ;
#6=PRODUCT_DEFINITION_FORMATION_WITH_SPECIFIED_SOURCE('',' ',#5,.NOT_KNOWN.) ;
#20=SHAPE_DEFINITION_REPRESENTATION(#11,#19) ;
#12=(LENGTH_UNIT()NAMED_UNIT(*)SI_UNIT(.MILLI.,.METRE.)) ;
#13=(NAMED_UNIT(*)PLANE_ANGLE_UNIT()SI_UNIT($,.RADIAN.)) ;
#14=(NAMED_UNIT(*)SI_UNIT($,.STERADIAN.)SOLID_ANGLE_UNIT()) ;
#16=(GEOMETRIC_REPRESENTATION_CONTEXT(3)GLOBAL_UNCERTAINTY_ASSIGNED_CONTEXT((#15))GLOBAL_UNIT_ASSIGNED_CONTEXT((#12,#13,#14))REPRESENTATION_CONTEXT(' ',' ')) ;
ENDSEC;
END-ISO-10303-21;
