ISO-10303-21;
HEADER;
FILE_DESCRIPTION(('CATIA V5 STEP Exchange','CAx-IF Rec.Pracs.--- Model Styling and Organization---1.5--- 2016-08-15','CAx-IF Rec.Pracs.---Supplemental Geometry---1.0---2011-11-01','CAx-IF Rec.Pracs.--- Composite Materials ---3.4---2017-06-13','CAx-IF Rec.Pracs.---Tessellated 3D Geometry---1.0---2015-12-17'),'2;1');

FILE_NAME('C:\\Users\\marti\\Documents\\Stage TV\\D\X2\00E9\X0\monstrateur\\Accu\\MEP+stp\\accu_mount.stp','2025-07-02T10:41:16+00:00',('none'),('none'),'CATIA Version 5-6 Release 2023 SP5','CATIA V5 STEP AP242 v3','none');

FILE_SCHEMA(('AP242_MANAGED_MODEL_BASED_3D_ENGINEERING_MIM_LF  {1 0 10303 442 1 1 4}'));

ENDSEC;
DATA;
#5=PRODUCT('accu_mount','','',(#2)) ;
#2=PRODUCT_CONTEXT(' ',#1,'mechanical') ;
#1=APPLICATION_CONTEXT('managed model based 3d engineering') ;
#10=PRODUCT_DEFINITION('',' ',#6,#3) ;
#3=PRODUCT_DEFINITION_CONTEXT('part definition',#1,' ') ;
#11=PRODUCT_DEFINITION_SHAPE(' ',' ',#10) ;
#1073=MECHANICAL_DESIGN_GEOMETRIC_PRESENTATION_REPRESENTATION(' ',(#29),#16) ;
#7=PRODUCT_CATEGORY('part','specification') ;
#19=SHAPE_REPRESENTATION(' ',(#18),#16) ;
#17=CARTESIAN_POINT(' ',(0.,0.,0.)) ;
#31=CARTESIAN_POINT('Axis2P3D Location',(8.9,-21.652803004,4.)) ;
#36=CARTESIAN_POINT('Line Origine',(8.9,-8.7,2.)) ;
#40=CARTESIAN_POINT('Vertex',(8.9,-8.7,4.)) ;
#42=CARTESIAN_POINT('Vertex',(8.9,-8.7,0.)) ;
#45=CARTESIAN_POINT('Line Origine',(8.9,-9.82359849798,4.)) ;
#49=CARTESIAN_POINT('Vertex',(8.9,-10.947196996,4.)) ;
#52=CARTESIAN_POINT('Line Origine',(8.9,-10.947196996,2.)) ;
#56=CARTESIAN_POINT('Vertex',(8.9,-10.947196996,0.)) ;
#59=CARTESIAN_POINT('Line Origine',(8.9,-9.82359849,0.)) ;
#71=CARTESIAN_POINT('Axis2P3D Location',(0.,86.3,4.)) ;
#76=CARTESIAN_POINT('Line Origine',(11.,-5.3,4.)) ;
#80=CARTESIAN_POINT('Vertex',(0.,-5.3,4.)) ;
#82=CARTESIAN_POINT('Vertex',(22.,-5.3,4.)) ;
#85=CARTESIAN_POINT('Line Origine',(0.,-16.3,4.)) ;
#89=CARTESIAN_POINT('Vertex',(0.,-27.3,4.)) ;
#92=CARTESIAN_POINT('Line Origine',(11.,-27.3,4.)) ;
#96=CARTESIAN_POINT('Vertex',(22.,-27.3,4.)) ;
#99=CARTESIAN_POINT('Line Origine',(22.,-16.3,4.)) ;
#110=CARTESIAN_POINT('Line Origine',(11.,-8.7,4.)) ;
#114=CARTESIAN_POINT('Vertex',(13.1,-8.7,4.)) ;
#117=CARTESIAN_POINT('Line Origine',(13.1,-9.82359849798,4.)) ;
#121=CARTESIAN_POINT('Vertex',(13.1,-10.947196996,4.)) ;
#124=CARTESIAN_POINT('Axis2P3D Location',(11.,-16.3,4.)) ;
#128=CARTESIAN_POINT('Vertex',(13.1,-21.652803004,4.)) ;
#131=CARTESIAN_POINT('Line Origine',(13.1,-22.776401502,4.)) ;
#135=CARTESIAN_POINT('Vertex',(13.1,-23.9,4.)) ;
#138=CARTESIAN_POINT('Line Origine',(11.,-23.9,4.)) ;
#142=CARTESIAN_POINT('Vertex',(8.9,-23.9,4.)) ;
#145=CARTESIAN_POINT('Line Origine',(8.9,-22.776401502,4.)) ;
#149=CARTESIAN_POINT('Vertex',(8.9,-21.652803004,4.)) ;
#152=CARTESIAN_POINT('Axis2P3D Location',(11.,-16.3,4.)) ;
#168=CARTESIAN_POINT('Axis2P3D Location',(11.,-16.3,1.3399999997)) ;
#173=CARTESIAN_POINT('Axis2P3D Location',(11.,-16.3,0.)) ;
#177=CARTESIAN_POINT('Vertex',(8.9,-21.652803004,0.)) ;
#180=CARTESIAN_POINT('Line Origine',(8.9,-21.652803004,1.3399999997)) ;
#192=CARTESIAN_POINT('Axis2P3D Location',(0.,0.,0.)) ;
#197=CARTESIAN_POINT('Line Origine',(0.,108.3,2.)) ;
#201=CARTESIAN_POINT('Vertex',(0.,108.3,0.)) ;
#203=CARTESIAN_POINT('Vertex',(0.,108.3,4.)) ;
#206=CARTESIAN_POINT('Line Origine',(0.,97.3,0.)) ;
#210=CARTESIAN_POINT('Vertex',(0.,86.3,0.)) ;
#213=CARTESIAN_POINT('Axis2P3D Location',(0.,86.3,5.3)) ;
#217=CARTESIAN_POINT('Vertex',(0.,81.,5.3)) ;
#220=CARTESIAN_POINT('Line Origine',(0.,81.,25.3)) ;
#224=CARTESIAN_POINT('Vertex',(0.,81.,45.3)) ;
#227=CARTESIAN_POINT('Line Origine',(0.,40.5,45.3)) ;
#231=CARTESIAN_POINT('Vertex',(0.,0.,45.3)) ;
#234=CARTESIAN_POINT('Line Origine',(0.,0.,25.3)) ;
#238=CARTESIAN_POINT('Vertex',(0.,0.,5.3)) ;
#241=CARTESIAN_POINT('Axis2P3D Location',(0.,-5.3,5.3)) ;
#245=CARTESIAN_POINT('Vertex',(0.,-5.3,0.)) ;
#248=CARTESIAN_POINT('Line Origine',(0.,-16.3,0.)) ;
#252=CARTESIAN_POINT('Vertex',(0.,-27.3,0.)) ;
#255=CARTESIAN_POINT('Line Origine',(0.,-27.3,2.)) ;
#260=CARTESIAN_POINT('Axis2P3D Location',(0.,-5.3,5.3)) ;
#264=CARTESIAN_POINT('Vertex',(0.,-4.,5.3)) ;
#267=CARTESIAN_POINT('Line Origine',(0.,-4.,27.3)) ;
#271=CARTESIAN_POINT('Vertex',(0.,-4.,49.3)) ;
#274=CARTESIAN_POINT('Line Origine',(0.,40.4999999999,49.3)) ;
#278=CARTESIAN_POINT('Vertex',(0.,85.,49.3)) ;
#281=CARTESIAN_POINT('Line Origine',(0.,85.,27.3)) ;
#285=CARTESIAN_POINT('Vertex',(0.,85.,5.3)) ;
#288=CARTESIAN_POINT('Axis2P3D Location',(0.,86.3,5.3)) ;
#292=CARTESIAN_POINT('Vertex',(0.,86.3,4.)) ;
#295=CARTESIAN_POINT('Line Origine',(0.,97.3,4.)) ;
#319=CARTESIAN_POINT('Axis2P3D Location',(0.,-27.3,4.)) ;
#324=CARTESIAN_POINT('Line Origine',(11.,-27.3,0.)) ;
#328=CARTESIAN_POINT('Vertex',(22.,-27.3,0.)) ;
#331=CARTESIAN_POINT('Line Origine',(22.,-27.3,2.)) ;
#343=CARTESIAN_POINT('Line Origine',(22.,97.3,4.)) ;
#347=CARTESIAN_POINT('Vertex',(22.,86.3,4.)) ;
#349=CARTESIAN_POINT('Vertex',(22.,108.3,4.)) ;
#352=CARTESIAN_POINT('Line Origine',(11.,108.3,4.)) ;
#357=CARTESIAN_POINT('Line Origine',(11.,86.3,4.)) ;
#368=CARTESIAN_POINT('Line Origine',(8.9,102.776401502,4.)) ;
#372=CARTESIAN_POINT('Vertex',(8.9,103.9,4.)) ;
#374=CARTESIAN_POINT('Vertex',(8.9,101.652803004,4.)) ;
#377=CARTESIAN_POINT('Line Origine',(11.,103.9,4.)) ;
#381=CARTESIAN_POINT('Vertex',(13.1,103.9,4.)) ;
#384=CARTESIAN_POINT('Line Origine',(13.1,102.776401502,4.)) ;
#388=CARTESIAN_POINT('Vertex',(13.1,101.652803004,4.)) ;
#391=CARTESIAN_POINT('Axis2P3D Location',(11.,96.3,4.)) ;
#395=CARTESIAN_POINT('Vertex',(13.1,90.947196996,4.)) ;
#398=CARTESIAN_POINT('Line Origine',(13.1,89.823598498,4.)) ;
#402=CARTESIAN_POINT('Vertex',(13.1,88.7,4.)) ;
#405=CARTESIAN_POINT('Line Origine',(11.,88.7,4.)) ;
#409=CARTESIAN_POINT('Vertex',(8.9,88.7,4.)) ;
#412=CARTESIAN_POINT('Line Origine',(8.9,89.823598498,4.)) ;
#416=CARTESIAN_POINT('Vertex',(8.9,90.947196996,4.)) ;
#419=CARTESIAN_POINT('Axis2P3D Location',(11.,96.3,4.)) ;
#435=CARTESIAN_POINT('Axis2P3D Location',(11.,86.3,5.3)) ;
#440=CARTESIAN_POINT('Axis2P3D Location',(22.,86.3,5.3)) ;
#444=CARTESIAN_POINT('Vertex',(22.,85.,5.3)) ;
#447=CARTESIAN_POINT('Line Origine',(11.,85.,5.3)) ;
#459=CARTESIAN_POINT('Axis2P3D Location',(0.,85.,49.3)) ;
#464=CARTESIAN_POINT('Line Origine',(22.,85.,27.3)) ;
#468=CARTESIAN_POINT('Vertex',(22.,85.,49.3)) ;
#471=CARTESIAN_POINT('Line Origine',(11.,85.,49.3)) ;
#483=CARTESIAN_POINT('Axis2P3D Location',(0.,-4.00000000012,49.3)) ;
#488=CARTESIAN_POINT('Line Origine',(22.,40.4999999999,49.3)) ;
#492=CARTESIAN_POINT('Vertex',(22.,-4.,49.3)) ;
#495=CARTESIAN_POINT('Line Origine',(11.,-4.00000000012,49.3)) ;
#507=CARTESIAN_POINT('Axis2P3D Location',(0.,0.,45.3)) ;
#512=CARTESIAN_POINT('Line Origine',(22.,0.,25.3)) ;
#516=CARTESIAN_POINT('Vertex',(22.,0.,45.3)) ;
#518=CARTESIAN_POINT('Vertex',(22.,0.,5.3)) ;
#521=CARTESIAN_POINT('Line Origine',(11.,0.,5.3)) ;
#526=CARTESIAN_POINT('Line Origine',(11.,0.,45.3)) ;
#538=CARTESIAN_POINT('Line Origine',(8.9,103.9,2.)) ;
#542=CARTESIAN_POINT('Vertex',(8.9,103.9,0.)) ;
#545=CARTESIAN_POINT('Line Origine',(8.9,101.652803004,2.)) ;
#549=CARTESIAN_POINT('Vertex',(8.9,101.652803004,0.)) ;
#552=CARTESIAN_POINT('Line Origine',(8.9,102.77640151,0.)) ;
#564=CARTESIAN_POINT('Axis2P3D Location',(8.9,103.9,4.)) ;
#569=CARTESIAN_POINT('Line Origine',(11.,103.9,0.)) ;
#573=CARTESIAN_POINT('Vertex',(13.1,103.9,0.)) ;
#576=CARTESIAN_POINT('Line Origine',(13.1,103.9,2.)) ;
#588=CARTESIAN_POINT('Axis2P3D Location',(13.1,-23.9,4.)) ;
#593=CARTESIAN_POINT('Line Origine',(13.1,101.652803004,2.)) ;
#597=CARTESIAN_POINT('Vertex',(13.1,101.652803004,0.)) ;
#600=CARTESIAN_POINT('Line Origine',(13.1,102.776401512,0.)) ;
#612=CARTESIAN_POINT('Axis2P3D Location',(11.,96.3,1.3399999997)) ;
#617=CARTESIAN_POINT('Axis2P3D Location',(11.,96.3,0.)) ;
#621=CARTESIAN_POINT('Vertex',(13.1,90.947196996,0.)) ;
#624=CARTESIAN_POINT('Line Origine',(13.1,90.947196996,1.3399999997)) ;
#636=CARTESIAN_POINT('Line Origine',(13.1,88.7,2.)) ;
#640=CARTESIAN_POINT('Vertex',(13.1,88.7,0.)) ;
#643=CARTESIAN_POINT('Line Origine',(13.1,89.823598488,0.)) ;
#655=CARTESIAN_POINT('Axis2P3D Location',(8.9,88.7,4.)) ;
#660=CARTESIAN_POINT('Line Origine',(8.9,88.7,2.)) ;
#664=CARTESIAN_POINT('Vertex',(8.9,88.7,0.)) ;
#667=CARTESIAN_POINT('Line Origine',(11.,88.7,0.)) ;
#679=CARTESIAN_POINT('Line Origine',(8.9,90.947196996,2.)) ;
#683=CARTESIAN_POINT('Vertex',(8.9,90.947196996,0.)) ;
#686=CARTESIAN_POINT('Line Origine',(8.9,89.823598496,0.)) ;
#698=CARTESIAN_POINT('Axis2P3D Location',(11.,96.3,1.3399999997)) ;
#703=CARTESIAN_POINT('Axis2P3D Location',(11.,96.3,0.)) ;
#715=CARTESIAN_POINT('Axis2P3D Location',(0.,108.3,0.)) ;
#720=CARTESIAN_POINT('Line Origine',(11.,108.3,0.)) ;
#724=CARTESIAN_POINT('Vertex',(22.,108.3,0.)) ;
#727=CARTESIAN_POINT('Line Origine',(22.,108.3,2.)) ;
#739=CARTESIAN_POINT('Axis2P3D Location',(0.,-5.3,0.)) ;
#744=CARTESIAN_POINT('Line Origine',(11.,86.3,0.)) ;
#748=CARTESIAN_POINT('Vertex',(22.,86.3,0.)) ;
#751=CARTESIAN_POINT('Line Origine',(22.,97.3,0.)) ;
#773=CARTESIAN_POINT('Axis2P3D Location',(11.,86.3,5.3)) ;
#778=CARTESIAN_POINT('Line Origine',(11.,81.,5.3)) ;
#782=CARTESIAN_POINT('Vertex',(22.,81.,5.3)) ;
#785=CARTESIAN_POINT('Axis2P3D Location',(22.,86.3,5.3)) ;
#797=CARTESIAN_POINT('Axis2P3D Location',(0.,81.,45.3)) ;
#802=CARTESIAN_POINT('Line Origine',(11.,81.,45.3)) ;
#806=CARTESIAN_POINT('Vertex',(22.,81.,45.3)) ;
#809=CARTESIAN_POINT('Line Origine',(22.,81.,25.3)) ;
#821=CARTESIAN_POINT('Axis2P3D Location',(0.,0.,45.3)) ;
#826=CARTESIAN_POINT('Line Origine',(22.,40.5,45.3)) ;
#838=CARTESIAN_POINT('Axis2P3D Location',(11.,-5.3,5.3)) ;
#843=CARTESIAN_POINT('Line Origine',(11.,-5.3,0.)) ;
#847=CARTESIAN_POINT('Vertex',(22.,-5.3,0.)) ;
#850=CARTESIAN_POINT('Axis2P3D Location',(22.,-5.3,5.3)) ;
#862=CARTESIAN_POINT('Axis2P3D Location',(0.,-4.,49.3)) ;
#867=CARTESIAN_POINT('Line Origine',(11.,-4.,5.3)) ;
#871=CARTESIAN_POINT('Vertex',(22.,-4.,5.3)) ;
#874=CARTESIAN_POINT('Line Origine',(22.,-4.,27.3)) ;
#886=CARTESIAN_POINT('Line Origine',(13.1,-10.947196996,2.)) ;
#890=CARTESIAN_POINT('Vertex',(13.1,-10.947196996,0.)) ;
#893=CARTESIAN_POINT('Line Origine',(13.1,-8.7,2.)) ;
#897=CARTESIAN_POINT('Vertex',(13.1,-8.7,0.)) ;
#900=CARTESIAN_POINT('Line Origine',(13.1,-9.82359849798,0.)) ;
#912=CARTESIAN_POINT('Axis2P3D Location',(11.,-16.3,1.3399999997)) ;
#917=CARTESIAN_POINT('Axis2P3D Location',(11.,-16.3,0.)) ;
#921=CARTESIAN_POINT('Vertex',(13.1,-21.652803004,0.)) ;
#924=CARTESIAN_POINT('Line Origine',(13.1,-21.652803004,1.3399999997)) ;
#936=CARTESIAN_POINT('Line Origine',(13.1,-23.9,2.)) ;
#940=CARTESIAN_POINT('Vertex',(13.1,-23.9,0.)) ;
#943=CARTESIAN_POINT('Line Origine',(13.1,-22.776401502,0.)) ;
#955=CARTESIAN_POINT('Axis2P3D Location',(8.9,-23.9,4.)) ;
#960=CARTESIAN_POINT('Line Origine',(8.9,-23.9,2.)) ;
#964=CARTESIAN_POINT('Vertex',(8.9,-23.9,0.)) ;
#967=CARTESIAN_POINT('Line Origine',(11.,-23.9,0.)) ;
#979=CARTESIAN_POINT('Line Origine',(8.9,-22.776401504,0.)) ;
#991=CARTESIAN_POINT('Axis2P3D Location',(22.,0.,0.)) ;
#996=CARTESIAN_POINT('Axis2P3D Location',(22.,-5.3,5.3)) ;
#1001=CARTESIAN_POINT('Line Origine',(22.,-16.3,0.)) ;
#1025=CARTESIAN_POINT('Axis2P3D Location',(11.,-5.3,5.3)) ;
#1043=CARTESIAN_POINT('Line Origine',(11.,-8.7,0.)) ;
#1059=CARTESIAN_POINT('Axis2P3D Location',(8.9,-8.7,4.)) ;
#8=PRODUCT_RELATED_PRODUCT_CATEGORY('part',$,(#5)) ;
#15=UNCERTAINTY_MEASURE_WITH_UNIT(LENGTH_MEASURE(0.005),#12,'distance_accuracy_value','CONFUSED CURVE UNCERTAINTY') ;
#29=STYLED_ITEM(' ',(#28),#21) ;
#28=PRESENTATION_STYLE_ASSIGNMENT((#27)) ;
#27=SURFACE_STYLE_USAGE(.BOTH.,#26) ;
#26=SURFACE_SIDE_STYLE(' ',(#25)) ;
#25=SURFACE_STYLE_FILL_AREA(#24) ;
#24=FILL_AREA_STYLE(' ',(#23)) ;
#23=FILL_AREA_STYLE_COLOUR(' ',#22) ;
#38=VECTOR('Line Direction',#37,1.) ;
#47=VECTOR('Line Direction',#46,1.) ;
#54=VECTOR('Line Direction',#53,1.) ;
#61=VECTOR('Line Direction',#60,1.) ;
#78=VECTOR('Line Direction',#77,1.) ;
#87=VECTOR('Line Direction',#86,1.) ;
#94=VECTOR('Line Direction',#93,1.) ;
#101=VECTOR('Line Direction',#100,1.) ;
#112=VECTOR('Line Direction',#111,1.) ;
#119=VECTOR('Line Direction',#118,1.) ;
#133=VECTOR('Line Direction',#132,1.) ;
#140=VECTOR('Line Direction',#139,1.) ;
#147=VECTOR('Line Direction',#146,1.) ;
#182=VECTOR('Line Direction',#181,1.) ;
#199=VECTOR('Line Direction',#198,1.) ;
#208=VECTOR('Line Direction',#207,1.) ;
#222=VECTOR('Line Direction',#221,1.) ;
#229=VECTOR('Line Direction',#228,1.) ;
#236=VECTOR('Line Direction',#235,1.) ;
#250=VECTOR('Line Direction',#249,1.) ;
#257=VECTOR('Line Direction',#256,1.) ;
#269=VECTOR('Line Direction',#268,1.) ;
#276=VECTOR('Line Direction',#275,1.) ;
#283=VECTOR('Line Direction',#282,1.) ;
#297=VECTOR('Line Direction',#296,1.) ;
#326=VECTOR('Line Direction',#325,1.) ;
#333=VECTOR('Line Direction',#332,1.) ;
#345=VECTOR('Line Direction',#344,1.) ;
#354=VECTOR('Line Direction',#353,1.) ;
#359=VECTOR('Line Direction',#358,1.) ;
#370=VECTOR('Line Direction',#369,1.) ;
#379=VECTOR('Line Direction',#378,1.) ;
#386=VECTOR('Line Direction',#385,1.) ;
#400=VECTOR('Line Direction',#399,1.) ;
#407=VECTOR('Line Direction',#406,1.) ;
#414=VECTOR('Line Direction',#413,1.) ;
#449=VECTOR('Line Direction',#448,1.) ;
#466=VECTOR('Line Direction',#465,1.) ;
#473=VECTOR('Line Direction',#472,1.) ;
#490=VECTOR('Line Direction',#489,1.) ;
#497=VECTOR('Line Direction',#496,1.) ;
#514=VECTOR('Line Direction',#513,1.) ;
#523=VECTOR('Line Direction',#522,1.) ;
#528=VECTOR('Line Direction',#527,1.) ;
#540=VECTOR('Line Direction',#539,1.) ;
#547=VECTOR('Line Direction',#546,1.) ;
#554=VECTOR('Line Direction',#553,1.) ;
#571=VECTOR('Line Direction',#570,1.) ;
#578=VECTOR('Line Direction',#577,1.) ;
#595=VECTOR('Line Direction',#594,1.) ;
#602=VECTOR('Line Direction',#601,1.) ;
#626=VECTOR('Line Direction',#625,1.) ;
#638=VECTOR('Line Direction',#637,1.) ;
#645=VECTOR('Line Direction',#644,1.) ;
#662=VECTOR('Line Direction',#661,1.) ;
#669=VECTOR('Line Direction',#668,1.) ;
#681=VECTOR('Line Direction',#680,1.) ;
#688=VECTOR('Line Direction',#687,1.) ;
#722=VECTOR('Line Direction',#721,1.) ;
#729=VECTOR('Line Direction',#728,1.) ;
#746=VECTOR('Line Direction',#745,1.) ;
#753=VECTOR('Line Direction',#752,1.) ;
#780=VECTOR('Line Direction',#779,1.) ;
#804=VECTOR('Line Direction',#803,1.) ;
#811=VECTOR('Line Direction',#810,1.) ;
#828=VECTOR('Line Direction',#827,1.) ;
#845=VECTOR('Line Direction',#844,1.) ;
#869=VECTOR('Line Direction',#868,1.) ;
#876=VECTOR('Line Direction',#875,1.) ;
#888=VECTOR('Line Direction',#887,1.) ;
#895=VECTOR('Line Direction',#894,1.) ;
#902=VECTOR('Line Direction',#901,1.) ;
#926=VECTOR('Line Direction',#925,1.) ;
#938=VECTOR('Line Direction',#937,1.) ;
#945=VECTOR('Line Direction',#944,1.) ;
#962=VECTOR('Line Direction',#961,1.) ;
#969=VECTOR('Line Direction',#968,1.) ;
#981=VECTOR('Line Direction',#980,1.) ;
#1003=VECTOR('Line Direction',#1002,1.) ;
#1045=VECTOR('Line Direction',#1044,1.) ;
#32=DIRECTION('Axis2P3D Direction',(1.,0.,0.)) ;
#33=DIRECTION('Axis2P3D XDirection',(0.,-1.,0.)) ;
#37=DIRECTION('Vector Direction',(0.,0.,-1.)) ;
#46=DIRECTION('Vector Direction',(0.,1.,0.)) ;
#53=DIRECTION('Vector Direction',(0.,0.,-1.)) ;
#60=DIRECTION('Vector Direction',(0.,-1.,0.)) ;
#72=DIRECTION('Axis2P3D Direction',(0.,0.,-1.)) ;
#73=DIRECTION('Axis2P3D XDirection',(0.,1.,0.)) ;
#77=DIRECTION('Vector Direction',(1.,0.,0.)) ;
#86=DIRECTION('Vector Direction',(0.,-1.,0.)) ;
#93=DIRECTION('Vector Direction',(1.,0.,0.)) ;
#100=DIRECTION('Vector Direction',(0.,-1.,0.)) ;
#111=DIRECTION('Vector Direction',(1.,0.,0.)) ;
#118=DIRECTION('Vector Direction',(0.,-1.,0.)) ;
#125=DIRECTION('Axis2P3D Direction',(0.,0.,-1.)) ;
#132=DIRECTION('Vector Direction',(0.,1.,0.)) ;
#139=DIRECTION('Vector Direction',(1.,0.,0.)) ;
#146=DIRECTION('Vector Direction',(0.,-1.,0.)) ;
#153=DIRECTION('Axis2P3D Direction',(0.,0.,-1.)) ;
#169=DIRECTION('Axis2P3D Direction',(0.,0.,1.)) ;
#170=DIRECTION('Axis2P3D XDirection',(-0.365217391304,0.930922261571,0.)) ;
#174=DIRECTION('Axis2P3D Direction',(0.,0.,1.)) ;
#181=DIRECTION('Vector Direction',(0.,0.,1.)) ;
#193=DIRECTION('Axis2P3D Direction',(1.,0.,0.)) ;
#194=DIRECTION('Axis2P3D XDirection',(0.,1.,0.)) ;
#198=DIRECTION('Vector Direction',(0.,0.,1.)) ;
#207=DIRECTION('Vector Direction',(0.,1.,0.)) ;
#214=DIRECTION('Axis2P3D Direction',(1.,0.,0.)) ;
#221=DIRECTION('Vector Direction',(0.,0.,-1.)) ;
#228=DIRECTION('Vector Direction',(0.,1.,0.)) ;
#235=DIRECTION('Vector Direction',(0.,0.,-1.)) ;
#242=DIRECTION('Axis2P3D Direction',(1.,0.,0.)) ;
#249=DIRECTION('Vector Direction',(0.,-1.,0.)) ;
#256=DIRECTION('Vector Direction',(0.,0.,-1.)) ;
#261=DIRECTION('Axis2P3D Direction',(1.,0.,0.)) ;
#268=DIRECTION('Vector Direction',(0.,0.,-1.)) ;
#275=DIRECTION('Vector Direction',(0.,1.,0.)) ;
#282=DIRECTION('Vector Direction',(0.,0.,-1.)) ;
#289=DIRECTION('Axis2P3D Direction',(1.,0.,0.)) ;
#296=DIRECTION('Vector Direction',(0.,1.,0.)) ;
#320=DIRECTION('Axis2P3D Direction',(0.,-1.,0.)) ;
#321=DIRECTION('Axis2P3D XDirection',(0.,0.,-1.)) ;
#325=DIRECTION('Vector Direction',(1.,0.,0.)) ;
#332=DIRECTION('Vector Direction',(0.,0.,-1.)) ;
#344=DIRECTION('Vector Direction',(0.,1.,0.)) ;
#353=DIRECTION('Vector Direction',(1.,0.,0.)) ;
#358=DIRECTION('Vector Direction',(1.,0.,0.)) ;
#369=DIRECTION('Vector Direction',(0.,1.,0.)) ;
#378=DIRECTION('Vector Direction',(1.,0.,0.)) ;
#385=DIRECTION('Vector Direction',(0.,-1.,0.)) ;
#392=DIRECTION('Axis2P3D Direction',(0.,0.,-1.)) ;
#399=DIRECTION('Vector Direction',(0.,1.,0.)) ;
#406=DIRECTION('Vector Direction',(1.,0.,0.)) ;
#413=DIRECTION('Vector Direction',(0.,-1.,0.)) ;
#420=DIRECTION('Axis2P3D Direction',(0.,0.,-1.)) ;
#436=DIRECTION('Axis2P3D Direction',(1.,0.,0.)) ;
#437=DIRECTION('Axis2P3D XDirection',(0.,-1.,1.22464679915E-16)) ;
#441=DIRECTION('Axis2P3D Direction',(1.,0.,0.)) ;
#448=DIRECTION('Vector Direction',(1.,0.,0.)) ;
#460=DIRECTION('Axis2P3D Direction',(0.,-1.,0.)) ;
#461=DIRECTION('Axis2P3D XDirection',(0.,0.,-1.)) ;
#465=DIRECTION('Vector Direction',(0.,0.,-1.)) ;
#472=DIRECTION('Vector Direction',(1.,0.,0.)) ;
#484=DIRECTION('Axis2P3D Direction',(0.,0.,-1.)) ;
#485=DIRECTION('Axis2P3D XDirection',(0.,1.,0.)) ;
#489=DIRECTION('Vector Direction',(0.,1.,0.)) ;
#496=DIRECTION('Vector Direction',(1.,0.,0.)) ;
#508=DIRECTION('Axis2P3D Direction',(0.,-1.,0.)) ;
#509=DIRECTION('Axis2P3D XDirection',(0.,0.,-1.)) ;
#513=DIRECTION('Vector Direction',(0.,0.,-1.)) ;
#522=DIRECTION('Vector Direction',(1.,0.,0.)) ;
#527=DIRECTION('Vector Direction',(1.,0.,0.)) ;
#539=DIRECTION('Vector Direction',(0.,0.,-1.)) ;
#546=DIRECTION('Vector Direction',(0.,0.,-1.)) ;
#553=DIRECTION('Vector Direction',(0.,-1.,0.)) ;
#565=DIRECTION('Axis2P3D Direction',(-0.,1.,0.)) ;
#566=DIRECTION('Axis2P3D XDirection',(1.,0.,0.)) ;
#570=DIRECTION('Vector Direction',(1.,0.,0.)) ;
#577=DIRECTION('Vector Direction',(0.,0.,-1.)) ;
#589=DIRECTION('Axis2P3D Direction',(-1.,0.,0.)) ;
#590=DIRECTION('Axis2P3D XDirection',(0.,1.,0.)) ;
#594=DIRECTION('Vector Direction',(0.,0.,-1.)) ;
#601=DIRECTION('Vector Direction',(0.,1.,0.)) ;
#613=DIRECTION('Axis2P3D Direction',(0.,0.,1.)) ;
#614=DIRECTION('Axis2P3D XDirection',(0.365217391304,-0.930922261571,0.)) ;
#618=DIRECTION('Axis2P3D Direction',(0.,0.,1.)) ;
#625=DIRECTION('Vector Direction',(0.,0.,1.)) ;
#637=DIRECTION('Vector Direction',(0.,0.,-1.)) ;
#644=DIRECTION('Vector Direction',(0.,1.,0.)) ;
#656=DIRECTION('Axis2P3D Direction',(-0.,1.,0.)) ;
#657=DIRECTION('Axis2P3D XDirection',(1.,0.,0.)) ;
#661=DIRECTION('Vector Direction',(0.,0.,-1.)) ;
#668=DIRECTION('Vector Direction',(1.,0.,0.)) ;
#680=DIRECTION('Vector Direction',(0.,0.,-1.)) ;
#687=DIRECTION('Vector Direction',(0.,-1.,0.)) ;
#699=DIRECTION('Axis2P3D Direction',(0.,0.,1.)) ;
#700=DIRECTION('Axis2P3D XDirection',(-0.365217391304,0.930922261571,0.)) ;
#704=DIRECTION('Axis2P3D Direction',(0.,0.,1.)) ;
#716=DIRECTION('Axis2P3D Direction',(0.,1.,0.)) ;
#717=DIRECTION('Axis2P3D XDirection',(0.,0.,1.)) ;
#721=DIRECTION('Vector Direction',(1.,0.,0.)) ;
#728=DIRECTION('Vector Direction',(0.,0.,1.)) ;
#740=DIRECTION('Axis2P3D Direction',(-0.,0.,1.)) ;
#741=DIRECTION('Axis2P3D XDirection',(0.,-1.,0.)) ;
#745=DIRECTION('Vector Direction',(1.,0.,0.)) ;
#752=DIRECTION('Vector Direction',(0.,1.,0.)) ;
#774=DIRECTION('Axis2P3D Direction',(1.,0.,0.)) ;
#775=DIRECTION('Axis2P3D XDirection',(0.,-1.,1.22464679915E-16)) ;
#779=DIRECTION('Vector Direction',(1.,0.,0.)) ;
#786=DIRECTION('Axis2P3D Direction',(1.,0.,0.)) ;
#798=DIRECTION('Axis2P3D Direction',(0.,-1.,0.)) ;
#799=DIRECTION('Axis2P3D XDirection',(0.,0.,-1.)) ;
#803=DIRECTION('Vector Direction',(1.,0.,0.)) ;
#810=DIRECTION('Vector Direction',(0.,0.,-1.)) ;
#822=DIRECTION('Axis2P3D Direction',(0.,0.,-1.)) ;
#823=DIRECTION('Axis2P3D XDirection',(0.,1.,0.)) ;
#827=DIRECTION('Vector Direction',(0.,1.,0.)) ;
#839=DIRECTION('Axis2P3D Direction',(1.,0.,0.)) ;
#840=DIRECTION('Axis2P3D XDirection',(-0.,-1.83697019872E-16,-1.)) ;
#844=DIRECTION('Vector Direction',(1.,0.,0.)) ;
#851=DIRECTION('Axis2P3D Direction',(1.,0.,0.)) ;
#863=DIRECTION('Axis2P3D Direction',(0.,-1.,0.)) ;
#864=DIRECTION('Axis2P3D XDirection',(0.,0.,-1.)) ;
#868=DIRECTION('Vector Direction',(1.,0.,0.)) ;
#875=DIRECTION('Vector Direction',(0.,0.,-1.)) ;
#887=DIRECTION('Vector Direction',(0.,0.,-1.)) ;
#894=DIRECTION('Vector Direction',(0.,0.,-1.)) ;
#901=DIRECTION('Vector Direction',(0.,1.,0.)) ;
#913=DIRECTION('Axis2P3D Direction',(0.,0.,1.)) ;
#914=DIRECTION('Axis2P3D XDirection',(0.365217391304,-0.930922261571,0.)) ;
#918=DIRECTION('Axis2P3D Direction',(0.,0.,1.)) ;
#925=DIRECTION('Vector Direction',(0.,0.,1.)) ;
#937=DIRECTION('Vector Direction',(0.,0.,-1.)) ;
#944=DIRECTION('Vector Direction',(0.,1.,0.)) ;
#956=DIRECTION('Axis2P3D Direction',(-0.,1.,0.)) ;
#957=DIRECTION('Axis2P3D XDirection',(1.,0.,0.)) ;
#961=DIRECTION('Vector Direction',(0.,0.,-1.)) ;
#968=DIRECTION('Vector Direction',(1.,0.,0.)) ;
#980=DIRECTION('Vector Direction',(0.,-1.,0.)) ;
#992=DIRECTION('Axis2P3D Direction',(1.,0.,0.)) ;
#993=DIRECTION('Axis2P3D XDirection',(0.,1.,0.)) ;
#997=DIRECTION('Axis2P3D Direction',(1.,0.,0.)) ;
#1002=DIRECTION('Vector Direction',(0.,-1.,0.)) ;
#1026=DIRECTION('Axis2P3D Direction',(1.,0.,0.)) ;
#1027=DIRECTION('Axis2P3D XDirection',(-0.,-1.83697019872E-16,-1.)) ;
#1044=DIRECTION('Vector Direction',(1.,0.,0.)) ;
#1060=DIRECTION('Axis2P3D Direction',(-0.,1.,0.)) ;
#1061=DIRECTION('Axis2P3D XDirection',(1.,0.,0.)) ;
#1072=SHAPE_REPRESENTATION_RELATIONSHIP(' ',' ',#19,#1071) ;
#18=AXIS2_PLACEMENT_3D(' ',#17,$,$) ;
#34=AXIS2_PLACEMENT_3D('Plane Axis2P3D',#31,#32,#33) ;
#74=AXIS2_PLACEMENT_3D('Plane Axis2P3D',#71,#72,#73) ;
#126=AXIS2_PLACEMENT_3D('Circle Axis2P3D',#124,#125,$) ;
#154=AXIS2_PLACEMENT_3D('Circle Axis2P3D',#152,#153,$) ;
#171=AXIS2_PLACEMENT_3D('Cylinder Axis2P3D',#168,#169,#170) ;
#175=AXIS2_PLACEMENT_3D('Circle Axis2P3D',#173,#174,$) ;
#195=AXIS2_PLACEMENT_3D('Plane Axis2P3D',#192,#193,#194) ;
#215=AXIS2_PLACEMENT_3D('Circle Axis2P3D',#213,#214,$) ;
#243=AXIS2_PLACEMENT_3D('Circle Axis2P3D',#241,#242,$) ;
#262=AXIS2_PLACEMENT_3D('Circle Axis2P3D',#260,#261,$) ;
#290=AXIS2_PLACEMENT_3D('Circle Axis2P3D',#288,#289,$) ;
#322=AXIS2_PLACEMENT_3D('Plane Axis2P3D',#319,#320,#321) ;
#393=AXIS2_PLACEMENT_3D('Circle Axis2P3D',#391,#392,$) ;
#421=AXIS2_PLACEMENT_3D('Circle Axis2P3D',#419,#420,$) ;
#438=AXIS2_PLACEMENT_3D('Cylinder Axis2P3D',#435,#436,#437) ;
#442=AXIS2_PLACEMENT_3D('Circle Axis2P3D',#440,#441,$) ;
#462=AXIS2_PLACEMENT_3D('Plane Axis2P3D',#459,#460,#461) ;
#486=AXIS2_PLACEMENT_3D('Plane Axis2P3D',#483,#484,#485) ;
#510=AXIS2_PLACEMENT_3D('Plane Axis2P3D',#507,#508,#509) ;
#567=AXIS2_PLACEMENT_3D('Plane Axis2P3D',#564,#565,#566) ;
#591=AXIS2_PLACEMENT_3D('Plane Axis2P3D',#588,#589,#590) ;
#615=AXIS2_PLACEMENT_3D('Cylinder Axis2P3D',#612,#613,#614) ;
#619=AXIS2_PLACEMENT_3D('Circle Axis2P3D',#617,#618,$) ;
#658=AXIS2_PLACEMENT_3D('Plane Axis2P3D',#655,#656,#657) ;
#701=AXIS2_PLACEMENT_3D('Cylinder Axis2P3D',#698,#699,#700) ;
#705=AXIS2_PLACEMENT_3D('Circle Axis2P3D',#703,#704,$) ;
#718=AXIS2_PLACEMENT_3D('Plane Axis2P3D',#715,#716,#717) ;
#742=AXIS2_PLACEMENT_3D('Plane Axis2P3D',#739,#740,#741) ;
#776=AXIS2_PLACEMENT_3D('Cylinder Axis2P3D',#773,#774,#775) ;
#787=AXIS2_PLACEMENT_3D('Circle Axis2P3D',#785,#786,$) ;
#800=AXIS2_PLACEMENT_3D('Plane Axis2P3D',#797,#798,#799) ;
#824=AXIS2_PLACEMENT_3D('Plane Axis2P3D',#821,#822,#823) ;
#841=AXIS2_PLACEMENT_3D('Cylinder Axis2P3D',#838,#839,#840) ;
#852=AXIS2_PLACEMENT_3D('Circle Axis2P3D',#850,#851,$) ;
#865=AXIS2_PLACEMENT_3D('Plane Axis2P3D',#862,#863,#864) ;
#915=AXIS2_PLACEMENT_3D('Cylinder Axis2P3D',#912,#913,#914) ;
#919=AXIS2_PLACEMENT_3D('Circle Axis2P3D',#917,#918,$) ;
#958=AXIS2_PLACEMENT_3D('Plane Axis2P3D',#955,#956,#957) ;
#994=AXIS2_PLACEMENT_3D('Plane Axis2P3D',#991,#992,#993) ;
#998=AXIS2_PLACEMENT_3D('Circle Axis2P3D',#996,#997,$) ;
#1028=AXIS2_PLACEMENT_3D('Cylinder Axis2P3D',#1025,#1026,#1027) ;
#1062=AXIS2_PLACEMENT_3D('Plane Axis2P3D',#1059,#1060,#1061) ;
#39=LINE('Line',#36,#38) ;
#48=LINE('Line',#45,#47) ;
#55=LINE('Line',#52,#54) ;
#62=LINE('Line',#59,#61) ;
#79=LINE('Line',#76,#78) ;
#88=LINE('Line',#85,#87) ;
#95=LINE('Line',#92,#94) ;
#102=LINE('Line',#99,#101) ;
#113=LINE('Line',#110,#112) ;
#120=LINE('Line',#117,#119) ;
#134=LINE('Line',#131,#133) ;
#141=LINE('Line',#138,#140) ;
#148=LINE('Line',#145,#147) ;
#183=LINE('Line',#180,#182) ;
#200=LINE('Line',#197,#199) ;
#209=LINE('Line',#206,#208) ;
#223=LINE('Line',#220,#222) ;
#230=LINE('Line',#227,#229) ;
#237=LINE('Line',#234,#236) ;
#251=LINE('Line',#248,#250) ;
#258=LINE('Line',#255,#257) ;
#270=LINE('Line',#267,#269) ;
#277=LINE('Line',#274,#276) ;
#284=LINE('Line',#281,#283) ;
#298=LINE('Line',#295,#297) ;
#327=LINE('Line',#324,#326) ;
#334=LINE('Line',#331,#333) ;
#346=LINE('Line',#343,#345) ;
#355=LINE('Line',#352,#354) ;
#360=LINE('Line',#357,#359) ;
#371=LINE('Line',#368,#370) ;
#380=LINE('Line',#377,#379) ;
#387=LINE('Line',#384,#386) ;
#401=LINE('Line',#398,#400) ;
#408=LINE('Line',#405,#407) ;
#415=LINE('Line',#412,#414) ;
#450=LINE('Line',#447,#449) ;
#467=LINE('Line',#464,#466) ;
#474=LINE('Line',#471,#473) ;
#491=LINE('Line',#488,#490) ;
#498=LINE('Line',#495,#497) ;
#515=LINE('Line',#512,#514) ;
#524=LINE('Line',#521,#523) ;
#529=LINE('Line',#526,#528) ;
#541=LINE('Line',#538,#540) ;
#548=LINE('Line',#545,#547) ;
#555=LINE('Line',#552,#554) ;
#572=LINE('Line',#569,#571) ;
#579=LINE('Line',#576,#578) ;
#596=LINE('Line',#593,#595) ;
#603=LINE('Line',#600,#602) ;
#627=LINE('Line',#624,#626) ;
#639=LINE('Line',#636,#638) ;
#646=LINE('Line',#643,#645) ;
#663=LINE('Line',#660,#662) ;
#670=LINE('Line',#667,#669) ;
#682=LINE('Line',#679,#681) ;
#689=LINE('Line',#686,#688) ;
#723=LINE('Line',#720,#722) ;
#730=LINE('Line',#727,#729) ;
#747=LINE('Line',#744,#746) ;
#754=LINE('Line',#751,#753) ;
#781=LINE('Line',#778,#780) ;
#805=LINE('Line',#802,#804) ;
#812=LINE('Line',#809,#811) ;
#829=LINE('Line',#826,#828) ;
#846=LINE('Line',#843,#845) ;
#870=LINE('Line',#867,#869) ;
#877=LINE('Line',#874,#876) ;
#889=LINE('Line',#886,#888) ;
#896=LINE('Line',#893,#895) ;
#903=LINE('Line',#900,#902) ;
#927=LINE('Line',#924,#926) ;
#939=LINE('Line',#936,#938) ;
#946=LINE('Line',#943,#945) ;
#963=LINE('Line',#960,#962) ;
#970=LINE('Line',#967,#969) ;
#982=LINE('Line',#979,#981) ;
#1004=LINE('Line',#1001,#1003) ;
#1046=LINE('Line',#1043,#1045) ;
#127=CIRCLE('generated circle',#126,5.75) ;
#155=CIRCLE('generated circle',#154,5.75) ;
#176=CIRCLE('generated circle',#175,5.75) ;
#216=CIRCLE('generated circle',#215,5.3) ;
#244=CIRCLE('generated circle',#243,5.3) ;
#263=CIRCLE('generated circle',#262,1.3) ;
#291=CIRCLE('generated circle',#290,1.3) ;
#394=CIRCLE('generated circle',#393,5.75) ;
#422=CIRCLE('generated circle',#421,5.75) ;
#443=CIRCLE('generated circle',#442,1.3) ;
#620=CIRCLE('generated circle',#619,5.75) ;
#706=CIRCLE('generated circle',#705,5.75) ;
#788=CIRCLE('generated circle',#787,5.3) ;
#853=CIRCLE('generated circle',#852,5.3) ;
#920=CIRCLE('generated circle',#919,5.75) ;
#999=CIRCLE('generated circle',#998,1.3) ;
#35=PLANE('',#34) ;
#75=PLANE('',#74) ;
#196=PLANE('',#195) ;
#323=PLANE('',#322) ;
#463=PLANE('',#462) ;
#487=PLANE('',#486) ;
#511=PLANE('',#510) ;
#568=PLANE('',#567) ;
#592=PLANE('',#591) ;
#659=PLANE('',#658) ;
#719=PLANE('',#718) ;
#743=PLANE('',#742) ;
#801=PLANE('',#800) ;
#825=PLANE('',#824) ;
#866=PLANE('',#865) ;
#959=PLANE('',#958) ;
#995=PLANE('',#994) ;
#1063=PLANE('',#1062) ;
#172=CYLINDRICAL_SURFACE('generated cylinder',#171,5.75) ;
#439=CYLINDRICAL_SURFACE('generated cylinder',#438,1.3) ;
#616=CYLINDRICAL_SURFACE('generated cylinder',#615,5.75) ;
#702=CYLINDRICAL_SURFACE('generated cylinder',#701,5.75) ;
#777=CYLINDRICAL_SURFACE('generated cylinder',#776,5.3) ;
#842=CYLINDRICAL_SURFACE('generated cylinder',#841,5.3) ;
#916=CYLINDRICAL_SURFACE('generated cylinder',#915,5.75) ;
#1029=CYLINDRICAL_SURFACE('generated cylinder',#1028,1.3) ;
#166=FACE_BOUND('',#157,.T.) ;
#433=FACE_BOUND('',#424,.T.) ;
#771=FACE_BOUND('',#762,.T.) ;
#1057=FACE_BOUND('',#1048,.T.) ;
#44=EDGE_CURVE('',#41,#43,#39,.T.) ;
#51=EDGE_CURVE('',#41,#50,#48,.F.) ;
#58=EDGE_CURVE('',#50,#57,#55,.T.) ;
#63=EDGE_CURVE('',#43,#57,#62,.T.) ;
#84=EDGE_CURVE('',#81,#83,#79,.T.) ;
#91=EDGE_CURVE('',#81,#90,#88,.T.) ;
#98=EDGE_CURVE('',#90,#97,#95,.T.) ;
#103=EDGE_CURVE('',#83,#97,#102,.T.) ;
#116=EDGE_CURVE('',#115,#41,#113,.F.) ;
#123=EDGE_CURVE('',#122,#115,#120,.F.) ;
#130=EDGE_CURVE('',#129,#122,#127,.F.) ;
#137=EDGE_CURVE('',#136,#129,#134,.T.) ;
#144=EDGE_CURVE('',#143,#136,#141,.T.) ;
#151=EDGE_CURVE('',#150,#143,#148,.T.) ;
#156=EDGE_CURVE('',#50,#150,#155,.F.) ;
#179=EDGE_CURVE('',#57,#178,#176,.T.) ;
#184=EDGE_CURVE('',#150,#178,#183,.F.) ;
#205=EDGE_CURVE('',#202,#204,#200,.T.) ;
#212=EDGE_CURVE('',#211,#202,#209,.T.) ;
#219=EDGE_CURVE('',#218,#211,#216,.T.) ;
#226=EDGE_CURVE('',#225,#218,#223,.T.) ;
#233=EDGE_CURVE('',#232,#225,#230,.T.) ;
#240=EDGE_CURVE('',#232,#239,#237,.T.) ;
#247=EDGE_CURVE('',#246,#239,#244,.T.) ;
#254=EDGE_CURVE('',#246,#253,#251,.T.) ;
#259=EDGE_CURVE('',#90,#253,#258,.T.) ;
#266=EDGE_CURVE('',#81,#265,#263,.T.) ;
#273=EDGE_CURVE('',#272,#265,#270,.T.) ;
#280=EDGE_CURVE('',#272,#279,#277,.T.) ;
#287=EDGE_CURVE('',#279,#286,#284,.T.) ;
#294=EDGE_CURVE('',#286,#293,#291,.T.) ;
#299=EDGE_CURVE('',#293,#204,#298,.T.) ;
#330=EDGE_CURVE('',#253,#329,#327,.T.) ;
#335=EDGE_CURVE('',#97,#329,#334,.T.) ;
#351=EDGE_CURVE('',#348,#350,#346,.T.) ;
#356=EDGE_CURVE('',#204,#350,#355,.T.) ;
#361=EDGE_CURVE('',#293,#348,#360,.T.) ;
#376=EDGE_CURVE('',#373,#375,#371,.F.) ;
#383=EDGE_CURVE('',#382,#373,#380,.F.) ;
#390=EDGE_CURVE('',#389,#382,#387,.F.) ;
#397=EDGE_CURVE('',#396,#389,#394,.F.) ;
#404=EDGE_CURVE('',#403,#396,#401,.T.) ;
#411=EDGE_CURVE('',#410,#403,#408,.T.) ;
#418=EDGE_CURVE('',#417,#410,#415,.T.) ;
#423=EDGE_CURVE('',#375,#417,#422,.F.) ;
#446=EDGE_CURVE('',#445,#348,#443,.T.) ;
#451=EDGE_CURVE('',#286,#445,#450,.T.) ;
#470=EDGE_CURVE('',#469,#445,#467,.T.) ;
#475=EDGE_CURVE('',#279,#469,#474,.T.) ;
#494=EDGE_CURVE('',#493,#469,#491,.T.) ;
#499=EDGE_CURVE('',#272,#493,#498,.T.) ;
#520=EDGE_CURVE('',#517,#519,#515,.T.) ;
#525=EDGE_CURVE('',#239,#519,#524,.T.) ;
#530=EDGE_CURVE('',#232,#517,#529,.T.) ;
#544=EDGE_CURVE('',#373,#543,#541,.T.) ;
#551=EDGE_CURVE('',#375,#550,#548,.T.) ;
#556=EDGE_CURVE('',#543,#550,#555,.T.) ;
#575=EDGE_CURVE('',#543,#574,#572,.T.) ;
#580=EDGE_CURVE('',#382,#574,#579,.T.) ;
#599=EDGE_CURVE('',#389,#598,#596,.T.) ;
#604=EDGE_CURVE('',#598,#574,#603,.T.) ;
#623=EDGE_CURVE('',#622,#598,#620,.T.) ;
#628=EDGE_CURVE('',#396,#622,#627,.F.) ;
#642=EDGE_CURVE('',#403,#641,#639,.T.) ;
#647=EDGE_CURVE('',#641,#622,#646,.T.) ;
#666=EDGE_CURVE('',#410,#665,#663,.T.) ;
#671=EDGE_CURVE('',#665,#641,#670,.T.) ;
#685=EDGE_CURVE('',#417,#684,#682,.T.) ;
#690=EDGE_CURVE('',#684,#665,#689,.T.) ;
#707=EDGE_CURVE('',#550,#684,#706,.T.) ;
#726=EDGE_CURVE('',#202,#725,#723,.T.) ;
#731=EDGE_CURVE('',#725,#350,#730,.T.) ;
#750=EDGE_CURVE('',#211,#749,#747,.T.) ;
#755=EDGE_CURVE('',#749,#725,#754,.T.) ;
#784=EDGE_CURVE('',#218,#783,#781,.T.) ;
#789=EDGE_CURVE('',#783,#749,#788,.T.) ;
#808=EDGE_CURVE('',#225,#807,#805,.T.) ;
#813=EDGE_CURVE('',#807,#783,#812,.T.) ;
#830=EDGE_CURVE('',#517,#807,#829,.T.) ;
#849=EDGE_CURVE('',#246,#848,#846,.T.) ;
#854=EDGE_CURVE('',#848,#519,#853,.T.) ;
#873=EDGE_CURVE('',#265,#872,#870,.T.) ;
#878=EDGE_CURVE('',#493,#872,#877,.T.) ;
#892=EDGE_CURVE('',#122,#891,#889,.T.) ;
#899=EDGE_CURVE('',#115,#898,#896,.T.) ;
#904=EDGE_CURVE('',#891,#898,#903,.T.) ;
#923=EDGE_CURVE('',#922,#891,#920,.T.) ;
#928=EDGE_CURVE('',#129,#922,#927,.F.) ;
#942=EDGE_CURVE('',#136,#941,#939,.T.) ;
#947=EDGE_CURVE('',#941,#922,#946,.T.) ;
#966=EDGE_CURVE('',#143,#965,#963,.T.) ;
#971=EDGE_CURVE('',#965,#941,#970,.T.) ;
#983=EDGE_CURVE('',#178,#965,#982,.T.) ;
#1000=EDGE_CURVE('',#83,#872,#999,.T.) ;
#1005=EDGE_CURVE('',#848,#329,#1004,.T.) ;
#1047=EDGE_CURVE('',#43,#898,#1046,.T.) ;
#30=CLOSED_SHELL('Closed Shell',(#70,#167,#191,#318,#342,#434,#458,#482,#506,#537,#563,#587,#611,#635,#654,#678,#697,#714,#738,#772,#796,#820,#837,#861,#885,#911,#935,#954,#978,#990,#1024,#1036,#1058,#1070)) ;
#65=ORIENTED_EDGE('',*,*,#44,.F.) ;
#66=ORIENTED_EDGE('',*,*,#51,.T.) ;
#67=ORIENTED_EDGE('',*,*,#58,.T.) ;
#68=ORIENTED_EDGE('',*,*,#63,.F.) ;
#105=ORIENTED_EDGE('',*,*,#84,.F.) ;
#106=ORIENTED_EDGE('',*,*,#91,.T.) ;
#107=ORIENTED_EDGE('',*,*,#98,.T.) ;
#108=ORIENTED_EDGE('',*,*,#103,.F.) ;
#158=ORIENTED_EDGE('',*,*,#116,.F.) ;
#159=ORIENTED_EDGE('',*,*,#123,.F.) ;
#160=ORIENTED_EDGE('',*,*,#130,.F.) ;
#161=ORIENTED_EDGE('',*,*,#137,.F.) ;
#162=ORIENTED_EDGE('',*,*,#144,.F.) ;
#163=ORIENTED_EDGE('',*,*,#151,.F.) ;
#164=ORIENTED_EDGE('',*,*,#156,.F.) ;
#165=ORIENTED_EDGE('',*,*,#51,.F.) ;
#186=ORIENTED_EDGE('',*,*,#179,.F.) ;
#187=ORIENTED_EDGE('',*,*,#58,.F.) ;
#188=ORIENTED_EDGE('',*,*,#156,.T.) ;
#189=ORIENTED_EDGE('',*,*,#184,.T.) ;
#301=ORIENTED_EDGE('',*,*,#205,.F.) ;
#302=ORIENTED_EDGE('',*,*,#212,.F.) ;
#303=ORIENTED_EDGE('',*,*,#219,.F.) ;
#304=ORIENTED_EDGE('',*,*,#226,.F.) ;
#305=ORIENTED_EDGE('',*,*,#233,.F.) ;
#306=ORIENTED_EDGE('',*,*,#240,.T.) ;
#307=ORIENTED_EDGE('',*,*,#247,.F.) ;
#308=ORIENTED_EDGE('',*,*,#254,.T.) ;
#309=ORIENTED_EDGE('',*,*,#259,.F.) ;
#310=ORIENTED_EDGE('',*,*,#91,.F.) ;
#311=ORIENTED_EDGE('',*,*,#266,.T.) ;
#312=ORIENTED_EDGE('',*,*,#273,.F.) ;
#313=ORIENTED_EDGE('',*,*,#280,.T.) ;
#314=ORIENTED_EDGE('',*,*,#287,.T.) ;
#315=ORIENTED_EDGE('',*,*,#294,.T.) ;
#316=ORIENTED_EDGE('',*,*,#299,.T.) ;
#337=ORIENTED_EDGE('',*,*,#98,.F.) ;
#338=ORIENTED_EDGE('',*,*,#259,.T.) ;
#339=ORIENTED_EDGE('',*,*,#330,.T.) ;
#340=ORIENTED_EDGE('',*,*,#335,.F.) ;
#363=ORIENTED_EDGE('',*,*,#351,.T.) ;
#364=ORIENTED_EDGE('',*,*,#356,.F.) ;
#365=ORIENTED_EDGE('',*,*,#299,.F.) ;
#366=ORIENTED_EDGE('',*,*,#361,.T.) ;
#425=ORIENTED_EDGE('',*,*,#376,.F.) ;
#426=ORIENTED_EDGE('',*,*,#383,.F.) ;
#427=ORIENTED_EDGE('',*,*,#390,.F.) ;
#428=ORIENTED_EDGE('',*,*,#397,.F.) ;
#429=ORIENTED_EDGE('',*,*,#404,.F.) ;
#430=ORIENTED_EDGE('',*,*,#411,.F.) ;
#431=ORIENTED_EDGE('',*,*,#418,.F.) ;
#432=ORIENTED_EDGE('',*,*,#423,.F.) ;
#453=ORIENTED_EDGE('',*,*,#446,.T.) ;
#454=ORIENTED_EDGE('',*,*,#361,.F.) ;
#455=ORIENTED_EDGE('',*,*,#294,.F.) ;
#456=ORIENTED_EDGE('',*,*,#451,.T.) ;
#477=ORIENTED_EDGE('',*,*,#470,.T.) ;
#478=ORIENTED_EDGE('',*,*,#451,.F.) ;
#479=ORIENTED_EDGE('',*,*,#287,.F.) ;
#480=ORIENTED_EDGE('',*,*,#475,.T.) ;
#501=ORIENTED_EDGE('',*,*,#494,.T.) ;
#502=ORIENTED_EDGE('',*,*,#475,.F.) ;
#503=ORIENTED_EDGE('',*,*,#280,.F.) ;
#504=ORIENTED_EDGE('',*,*,#499,.T.) ;
#532=ORIENTED_EDGE('',*,*,#520,.T.) ;
#533=ORIENTED_EDGE('',*,*,#525,.F.) ;
#534=ORIENTED_EDGE('',*,*,#240,.F.) ;
#535=ORIENTED_EDGE('',*,*,#530,.T.) ;
#558=ORIENTED_EDGE('',*,*,#544,.F.) ;
#559=ORIENTED_EDGE('',*,*,#376,.T.) ;
#560=ORIENTED_EDGE('',*,*,#551,.T.) ;
#561=ORIENTED_EDGE('',*,*,#556,.F.) ;
#582=ORIENTED_EDGE('',*,*,#575,.T.) ;
#583=ORIENTED_EDGE('',*,*,#580,.F.) ;
#584=ORIENTED_EDGE('',*,*,#383,.T.) ;
#585=ORIENTED_EDGE('',*,*,#544,.T.) ;
#606=ORIENTED_EDGE('',*,*,#599,.F.) ;
#607=ORIENTED_EDGE('',*,*,#390,.T.) ;
#608=ORIENTED_EDGE('',*,*,#580,.T.) ;
#609=ORIENTED_EDGE('',*,*,#604,.F.) ;
#630=ORIENTED_EDGE('',*,*,#623,.F.) ;
#631=ORIENTED_EDGE('',*,*,#628,.F.) ;
#632=ORIENTED_EDGE('',*,*,#397,.T.) ;
#633=ORIENTED_EDGE('',*,*,#599,.T.) ;
#649=ORIENTED_EDGE('',*,*,#642,.F.) ;
#650=ORIENTED_EDGE('',*,*,#404,.T.) ;
#651=ORIENTED_EDGE('',*,*,#628,.T.) ;
#652=ORIENTED_EDGE('',*,*,#647,.F.) ;
#673=ORIENTED_EDGE('',*,*,#666,.F.) ;
#674=ORIENTED_EDGE('',*,*,#411,.T.) ;
#675=ORIENTED_EDGE('',*,*,#642,.T.) ;
#676=ORIENTED_EDGE('',*,*,#671,.F.) ;
#692=ORIENTED_EDGE('',*,*,#685,.F.) ;
#693=ORIENTED_EDGE('',*,*,#418,.T.) ;
#694=ORIENTED_EDGE('',*,*,#666,.T.) ;
#695=ORIENTED_EDGE('',*,*,#690,.F.) ;
#709=ORIENTED_EDGE('',*,*,#707,.F.) ;
#710=ORIENTED_EDGE('',*,*,#551,.F.) ;
#711=ORIENTED_EDGE('',*,*,#423,.T.) ;
#712=ORIENTED_EDGE('',*,*,#685,.T.) ;
#733=ORIENTED_EDGE('',*,*,#726,.F.) ;
#734=ORIENTED_EDGE('',*,*,#205,.T.) ;
#735=ORIENTED_EDGE('',*,*,#356,.T.) ;
#736=ORIENTED_EDGE('',*,*,#731,.F.) ;
#757=ORIENTED_EDGE('',*,*,#750,.F.) ;
#758=ORIENTED_EDGE('',*,*,#212,.T.) ;
#759=ORIENTED_EDGE('',*,*,#726,.T.) ;
#760=ORIENTED_EDGE('',*,*,#755,.F.) ;
#763=ORIENTED_EDGE('',*,*,#707,.T.) ;
#764=ORIENTED_EDGE('',*,*,#690,.T.) ;
#765=ORIENTED_EDGE('',*,*,#671,.T.) ;
#766=ORIENTED_EDGE('',*,*,#647,.T.) ;
#767=ORIENTED_EDGE('',*,*,#623,.T.) ;
#768=ORIENTED_EDGE('',*,*,#604,.T.) ;
#769=ORIENTED_EDGE('',*,*,#575,.F.) ;
#770=ORIENTED_EDGE('',*,*,#556,.T.) ;
#791=ORIENTED_EDGE('',*,*,#784,.F.) ;
#792=ORIENTED_EDGE('',*,*,#219,.T.) ;
#793=ORIENTED_EDGE('',*,*,#750,.T.) ;
#794=ORIENTED_EDGE('',*,*,#789,.F.) ;
#815=ORIENTED_EDGE('',*,*,#808,.F.) ;
#816=ORIENTED_EDGE('',*,*,#226,.T.) ;
#817=ORIENTED_EDGE('',*,*,#784,.T.) ;
#818=ORIENTED_EDGE('',*,*,#813,.F.) ;
#832=ORIENTED_EDGE('',*,*,#530,.F.) ;
#833=ORIENTED_EDGE('',*,*,#233,.T.) ;
#834=ORIENTED_EDGE('',*,*,#808,.T.) ;
#835=ORIENTED_EDGE('',*,*,#830,.F.) ;
#856=ORIENTED_EDGE('',*,*,#849,.F.) ;
#857=ORIENTED_EDGE('',*,*,#247,.T.) ;
#858=ORIENTED_EDGE('',*,*,#525,.T.) ;
#859=ORIENTED_EDGE('',*,*,#854,.F.) ;
#880=ORIENTED_EDGE('',*,*,#499,.F.) ;
#881=ORIENTED_EDGE('',*,*,#273,.T.) ;
#882=ORIENTED_EDGE('',*,*,#873,.T.) ;
#883=ORIENTED_EDGE('',*,*,#878,.F.) ;
#906=ORIENTED_EDGE('',*,*,#892,.F.) ;
#907=ORIENTED_EDGE('',*,*,#123,.T.) ;
#908=ORIENTED_EDGE('',*,*,#899,.T.) ;
#909=ORIENTED_EDGE('',*,*,#904,.F.) ;
#930=ORIENTED_EDGE('',*,*,#923,.F.) ;
#931=ORIENTED_EDGE('',*,*,#928,.F.) ;
#932=ORIENTED_EDGE('',*,*,#130,.T.) ;
#933=ORIENTED_EDGE('',*,*,#892,.T.) ;
#949=ORIENTED_EDGE('',*,*,#942,.F.) ;
#950=ORIENTED_EDGE('',*,*,#137,.T.) ;
#951=ORIENTED_EDGE('',*,*,#928,.T.) ;
#952=ORIENTED_EDGE('',*,*,#947,.F.) ;
#973=ORIENTED_EDGE('',*,*,#966,.F.) ;
#974=ORIENTED_EDGE('',*,*,#144,.T.) ;
#975=ORIENTED_EDGE('',*,*,#942,.T.) ;
#976=ORIENTED_EDGE('',*,*,#971,.F.) ;
#985=ORIENTED_EDGE('',*,*,#184,.F.) ;
#986=ORIENTED_EDGE('',*,*,#151,.T.) ;
#987=ORIENTED_EDGE('',*,*,#966,.T.) ;
#988=ORIENTED_EDGE('',*,*,#983,.F.) ;
#1007=ORIENTED_EDGE('',*,*,#351,.F.) ;
#1008=ORIENTED_EDGE('',*,*,#446,.F.) ;
#1009=ORIENTED_EDGE('',*,*,#470,.F.) ;
#1010=ORIENTED_EDGE('',*,*,#494,.F.) ;
#1011=ORIENTED_EDGE('',*,*,#878,.T.) ;
#1012=ORIENTED_EDGE('',*,*,#1000,.F.) ;
#1013=ORIENTED_EDGE('',*,*,#103,.T.) ;
#1014=ORIENTED_EDGE('',*,*,#335,.T.) ;
#1015=ORIENTED_EDGE('',*,*,#1005,.F.) ;
#1016=ORIENTED_EDGE('',*,*,#854,.T.) ;
#1017=ORIENTED_EDGE('',*,*,#520,.F.) ;
#1018=ORIENTED_EDGE('',*,*,#830,.T.) ;
#1019=ORIENTED_EDGE('',*,*,#813,.T.) ;
#1020=ORIENTED_EDGE('',*,*,#789,.T.) ;
#1021=ORIENTED_EDGE('',*,*,#755,.T.) ;
#1022=ORIENTED_EDGE('',*,*,#731,.T.) ;
#1031=ORIENTED_EDGE('',*,*,#1000,.T.) ;
#1032=ORIENTED_EDGE('',*,*,#873,.F.) ;
#1033=ORIENTED_EDGE('',*,*,#266,.F.) ;
#1034=ORIENTED_EDGE('',*,*,#84,.T.) ;
#1038=ORIENTED_EDGE('',*,*,#1005,.T.) ;
#1039=ORIENTED_EDGE('',*,*,#330,.F.) ;
#1040=ORIENTED_EDGE('',*,*,#254,.F.) ;
#1041=ORIENTED_EDGE('',*,*,#849,.T.) ;
#1049=ORIENTED_EDGE('',*,*,#63,.T.) ;
#1050=ORIENTED_EDGE('',*,*,#179,.T.) ;
#1051=ORIENTED_EDGE('',*,*,#983,.T.) ;
#1052=ORIENTED_EDGE('',*,*,#971,.T.) ;
#1053=ORIENTED_EDGE('',*,*,#947,.T.) ;
#1054=ORIENTED_EDGE('',*,*,#923,.T.) ;
#1055=ORIENTED_EDGE('',*,*,#904,.T.) ;
#1056=ORIENTED_EDGE('',*,*,#1047,.F.) ;
#1065=ORIENTED_EDGE('',*,*,#1047,.T.) ;
#1066=ORIENTED_EDGE('',*,*,#899,.F.) ;
#1067=ORIENTED_EDGE('',*,*,#116,.T.) ;
#1068=ORIENTED_EDGE('',*,*,#44,.T.) ;
#64=EDGE_LOOP('',(#65,#66,#67,#68)) ;
#104=EDGE_LOOP('',(#105,#106,#107,#108)) ;
#157=EDGE_LOOP('',(#158,#159,#160,#161,#162,#163,#164,#165)) ;
#185=EDGE_LOOP('',(#186,#187,#188,#189)) ;
#300=EDGE_LOOP('',(#301,#302,#303,#304,#305,#306,#307,#308,#309,#310,#311,#312,#313,#314,#315,#316)) ;
#336=EDGE_LOOP('',(#337,#338,#339,#340)) ;
#362=EDGE_LOOP('',(#363,#364,#365,#366)) ;
#424=EDGE_LOOP('',(#425,#426,#427,#428,#429,#430,#431,#432)) ;
#452=EDGE_LOOP('',(#453,#454,#455,#456)) ;
#476=EDGE_LOOP('',(#477,#478,#479,#480)) ;
#500=EDGE_LOOP('',(#501,#502,#503,#504)) ;
#531=EDGE_LOOP('',(#532,#533,#534,#535)) ;
#557=EDGE_LOOP('',(#558,#559,#560,#561)) ;
#581=EDGE_LOOP('',(#582,#583,#584,#585)) ;
#605=EDGE_LOOP('',(#606,#607,#608,#609)) ;
#629=EDGE_LOOP('',(#630,#631,#632,#633)) ;
#648=EDGE_LOOP('',(#649,#650,#651,#652)) ;
#672=EDGE_LOOP('',(#673,#674,#675,#676)) ;
#691=EDGE_LOOP('',(#692,#693,#694,#695)) ;
#708=EDGE_LOOP('',(#709,#710,#711,#712)) ;
#732=EDGE_LOOP('',(#733,#734,#735,#736)) ;
#756=EDGE_LOOP('',(#757,#758,#759,#760)) ;
#762=EDGE_LOOP('',(#763,#764,#765,#766,#767,#768,#769,#770)) ;
#790=EDGE_LOOP('',(#791,#792,#793,#794)) ;
#814=EDGE_LOOP('',(#815,#816,#817,#818)) ;
#831=EDGE_LOOP('',(#832,#833,#834,#835)) ;
#855=EDGE_LOOP('',(#856,#857,#858,#859)) ;
#879=EDGE_LOOP('',(#880,#881,#882,#883)) ;
#905=EDGE_LOOP('',(#906,#907,#908,#909)) ;
#929=EDGE_LOOP('',(#930,#931,#932,#933)) ;
#948=EDGE_LOOP('',(#949,#950,#951,#952)) ;
#972=EDGE_LOOP('',(#973,#974,#975,#976)) ;
#984=EDGE_LOOP('',(#985,#986,#987,#988)) ;
#1006=EDGE_LOOP('',(#1007,#1008,#1009,#1010,#1011,#1012,#1013,#1014,#1015,#1016,#1017,#1018,#1019,#1020,#1021,#1022)) ;
#1030=EDGE_LOOP('',(#1031,#1032,#1033,#1034)) ;
#1037=EDGE_LOOP('',(#1038,#1039,#1040,#1041)) ;
#1048=EDGE_LOOP('',(#1049,#1050,#1051,#1052,#1053,#1054,#1055,#1056)) ;
#1064=EDGE_LOOP('',(#1065,#1066,#1067,#1068)) ;
#21=MANIFOLD_SOLID_BREP('Corps principal',#30) ;
#41=VERTEX_POINT('',#40) ;
#43=VERTEX_POINT('',#42) ;
#50=VERTEX_POINT('',#49) ;
#57=VERTEX_POINT('',#56) ;
#81=VERTEX_POINT('',#80) ;
#83=VERTEX_POINT('',#82) ;
#90=VERTEX_POINT('',#89) ;
#97=VERTEX_POINT('',#96) ;
#115=VERTEX_POINT('',#114) ;
#122=VERTEX_POINT('',#121) ;
#129=VERTEX_POINT('',#128) ;
#136=VERTEX_POINT('',#135) ;
#143=VERTEX_POINT('',#142) ;
#150=VERTEX_POINT('',#149) ;
#178=VERTEX_POINT('',#177) ;
#202=VERTEX_POINT('',#201) ;
#204=VERTEX_POINT('',#203) ;
#211=VERTEX_POINT('',#210) ;
#218=VERTEX_POINT('',#217) ;
#225=VERTEX_POINT('',#224) ;
#232=VERTEX_POINT('',#231) ;
#239=VERTEX_POINT('',#238) ;
#246=VERTEX_POINT('',#245) ;
#253=VERTEX_POINT('',#252) ;
#265=VERTEX_POINT('',#264) ;
#272=VERTEX_POINT('',#271) ;
#279=VERTEX_POINT('',#278) ;
#286=VERTEX_POINT('',#285) ;
#293=VERTEX_POINT('',#292) ;
#329=VERTEX_POINT('',#328) ;
#348=VERTEX_POINT('',#347) ;
#350=VERTEX_POINT('',#349) ;
#373=VERTEX_POINT('',#372) ;
#375=VERTEX_POINT('',#374) ;
#382=VERTEX_POINT('',#381) ;
#389=VERTEX_POINT('',#388) ;
#396=VERTEX_POINT('',#395) ;
#403=VERTEX_POINT('',#402) ;
#410=VERTEX_POINT('',#409) ;
#417=VERTEX_POINT('',#416) ;
#445=VERTEX_POINT('',#444) ;
#469=VERTEX_POINT('',#468) ;
#493=VERTEX_POINT('',#492) ;
#517=VERTEX_POINT('',#516) ;
#519=VERTEX_POINT('',#518) ;
#543=VERTEX_POINT('',#542) ;
#550=VERTEX_POINT('',#549) ;
#574=VERTEX_POINT('',#573) ;
#598=VERTEX_POINT('',#597) ;
#622=VERTEX_POINT('',#621) ;
#641=VERTEX_POINT('',#640) ;
#665=VERTEX_POINT('',#664) ;
#684=VERTEX_POINT('',#683) ;
#725=VERTEX_POINT('',#724) ;
#749=VERTEX_POINT('',#748) ;
#783=VERTEX_POINT('',#782) ;
#807=VERTEX_POINT('',#806) ;
#848=VERTEX_POINT('',#847) ;
#872=VERTEX_POINT('',#871) ;
#891=VERTEX_POINT('',#890) ;
#898=VERTEX_POINT('',#897) ;
#922=VERTEX_POINT('',#921) ;
#941=VERTEX_POINT('',#940) ;
#965=VERTEX_POINT('',#964) ;
#1071=ADVANCED_BREP_SHAPE_REPRESENTATION('NONE',(#21),#16) ;
#70=ADVANCED_FACE('Corps principal',(#69),#35,.T.) ;
#167=ADVANCED_FACE('Corps principal',(#109,#166),#75,.F.) ;
#191=ADVANCED_FACE('Corps principal',(#190),#172,.F.) ;
#318=ADVANCED_FACE('Corps principal',(#317),#196,.F.) ;
#342=ADVANCED_FACE('Corps principal',(#341),#323,.T.) ;
#434=ADVANCED_FACE('Corps principal',(#367,#433),#75,.F.) ;
#458=ADVANCED_FACE('Corps principal',(#457),#439,.F.) ;
#482=ADVANCED_FACE('Corps principal',(#481),#463,.F.) ;
#506=ADVANCED_FACE('Corps principal',(#505),#487,.F.) ;
#537=ADVANCED_FACE('Corps principal',(#536),#511,.F.) ;
#563=ADVANCED_FACE('Corps principal',(#562),#35,.T.) ;
#587=ADVANCED_FACE('Corps principal',(#586),#568,.F.) ;
#611=ADVANCED_FACE('Corps principal',(#610),#592,.T.) ;
#635=ADVANCED_FACE('Corps principal',(#634),#616,.F.) ;
#654=ADVANCED_FACE('Corps principal',(#653),#592,.T.) ;
#678=ADVANCED_FACE('Corps principal',(#677),#659,.T.) ;
#697=ADVANCED_FACE('Corps principal',(#696),#35,.T.) ;
#714=ADVANCED_FACE('Corps principal',(#713),#702,.F.) ;
#738=ADVANCED_FACE('Corps principal',(#737),#719,.T.) ;
#772=ADVANCED_FACE('Corps principal',(#761,#771),#743,.F.) ;
#796=ADVANCED_FACE('Corps principal',(#795),#777,.T.) ;
#820=ADVANCED_FACE('Corps principal',(#819),#801,.T.) ;
#837=ADVANCED_FACE('Corps principal',(#836),#825,.T.) ;
#861=ADVANCED_FACE('Corps principal',(#860),#842,.T.) ;
#885=ADVANCED_FACE('Corps principal',(#884),#866,.T.) ;
#911=ADVANCED_FACE('Corps principal',(#910),#592,.T.) ;
#935=ADVANCED_FACE('Corps principal',(#934),#916,.F.) ;
#954=ADVANCED_FACE('Corps principal',(#953),#592,.T.) ;
#978=ADVANCED_FACE('Corps principal',(#977),#959,.T.) ;
#990=ADVANCED_FACE('Corps principal',(#989),#35,.T.) ;
#1024=ADVANCED_FACE('Corps principal',(#1023),#995,.T.) ;
#1036=ADVANCED_FACE('Corps principal',(#1035),#1029,.F.) ;
#1058=ADVANCED_FACE('Corps principal',(#1042,#1057),#743,.F.) ;
#1070=ADVANCED_FACE('Corps principal',(#1069),#1063,.F.) ;
#4=APPLICATION_PROTOCOL_DEFINITION('international standard','ap242_managed_model_based_3d_engineering',2014,#1) ;
#22=COLOUR_RGB('Colour',0.823529411765,0.823529411765,1.) ;
#69=FACE_OUTER_BOUND('',#64,.T.) ;
#109=FACE_OUTER_BOUND('',#104,.T.) ;
#190=FACE_OUTER_BOUND('',#185,.T.) ;
#317=FACE_OUTER_BOUND('',#300,.T.) ;
#341=FACE_OUTER_BOUND('',#336,.T.) ;
#367=FACE_OUTER_BOUND('',#362,.T.) ;
#457=FACE_OUTER_BOUND('',#452,.T.) ;
#481=FACE_OUTER_BOUND('',#476,.T.) ;
#505=FACE_OUTER_BOUND('',#500,.T.) ;
#536=FACE_OUTER_BOUND('',#531,.T.) ;
#562=FACE_OUTER_BOUND('',#557,.T.) ;
#586=FACE_OUTER_BOUND('',#581,.T.) ;
#610=FACE_OUTER_BOUND('',#605,.T.) ;
#634=FACE_OUTER_BOUND('',#629,.T.) ;
#653=FACE_OUTER_BOUND('',#648,.T.) ;
#677=FACE_OUTER_BOUND('',#672,.T.) ;
#696=FACE_OUTER_BOUND('',#691,.T.) ;
#713=FACE_OUTER_BOUND('',#708,.T.) ;
#737=FACE_OUTER_BOUND('',#732,.T.) ;
#761=FACE_OUTER_BOUND('',#756,.T.) ;
#795=FACE_OUTER_BOUND('',#790,.T.) ;
#819=FACE_OUTER_BOUND('',#814,.T.) ;
#836=FACE_OUTER_BOUND('',#831,.T.) ;
#860=FACE_OUTER_BOUND('',#855,.T.) ;
#884=FACE_OUTER_BOUND('',#879,.T.) ;
#910=FACE_OUTER_BOUND('',#905,.T.) ;
#934=FACE_OUTER_BOUND('',#929,.T.) ;
#953=FACE_OUTER_BOUND('',#948,.T.) ;
#977=FACE_OUTER_BOUND('',#972,.T.) ;
#989=FACE_OUTER_BOUND('',#984,.T.) ;
#1023=FACE_OUTER_BOUND('',#1006,.T.) ;
#1035=FACE_OUTER_BOUND('',#1030,.T.) ;
#1042=FACE_OUTER_BOUND('',#1037,.T.) ;
#1069=FACE_OUTER_BOUND('',#1064,.T.) ;
#9=PRODUCT_CATEGORY_RELATIONSHIP(' ',' ',#7,#8) ;
#6=PRODUCT_DEFINITION_FORMATION_WITH_SPECIFIED_SOURCE('',' ',#5,.NOT_KNOWN.) ;
#20=SHAPE_DEFINITION_REPRESENTATION(#11,#19) ;
#12=(LENGTH_UNIT()NAMED_UNIT(*)SI_UNIT(.MILLI.,.METRE.)) ;
#13=(NAMED_UNIT(*)PLANE_ANGLE_UNIT()SI_UNIT($,.RADIAN.)) ;
#14=(NAMED_UNIT(*)SI_UNIT($,.STERADIAN.)SOLID_ANGLE_UNIT()) ;
#16=(GEOMETRIC_REPRESENTATION_CONTEXT(3)GLOBAL_UNCERTAINTY_ASSIGNED_CONTEXT((#15))GLOBAL_UNIT_ASSIGNED_CONTEXT((#12,#13,#14))REPRESENTATION_CONTEXT(' ',' ')) ;
ENDSEC;
END-ISO-10303-21;
