ISO-10303-21;
HEADER;
FILE_DESCRIPTION(('CATIA V5 STEP Exchange','CAx-IF Rec.Pracs.--- Model Styling and Organization---1.5--- 2016-08-15','CAx-IF Rec.Pracs.---Supplemental Geometry---1.0---2011-11-01','CAx-IF Rec.Pracs.--- Composite Materials ---3.4---2017-06-13','CAx-IF Rec.Pracs.---Tessellated 3D Geometry---1.0---2015-12-17'),'2;1');

FILE_NAME('C:\\Users\\marti\\Documents\\Stage TV\\D\X2\00E9\X0\monstrateur\\Accu\\MEP+stp\\locking_pin.stp','2025-07-02T10:41:31+00:00',('none'),('none'),'CATIA Version 5-6 Release 2023 SP5','CATIA V5 STEP AP242 v3','none');

FILE_SCHEMA(('AP242_MANAGED_MODEL_BASED_3D_ENGINEERING_MIM_LF  {1 0 10303 442 1 1 4}'));

ENDSEC;
DATA;
#5=PRODUCT('locking_pin','','',(#2)) ;
#2=PRODUCT_CONTEXT(' ',#1,'mechanical') ;
#1=APPLICATION_CONTEXT('managed model based 3d engineering') ;
#10=PRODUCT_DEFINITION('',' ',#6,#3) ;
#3=PRODUCT_DEFINITION_CONTEXT('part definition',#1,' ') ;
#11=PRODUCT_DEFINITION_SHAPE(' ',' ',#10) ;
#947=MECHANICAL_DESIGN_GEOMETRIC_PRESENTATION_REPRESENTATION(' ',(#29),#16) ;
#7=PRODUCT_CATEGORY('part','specification') ;
#19=SHAPE_REPRESENTATION(' ',(#18),#16) ;
#17=CARTESIAN_POINT(' ',(0.,0.,0.)) ;
#31=CARTESIAN_POINT('Axis2P3D Location',(7.5,2.,1.33999999991)) ;
#36=CARTESIAN_POINT('Axis2P3D Location',(7.5,2.,2.5)) ;
#40=CARTESIAN_POINT('Vertex',(10.15,2.,2.5)) ;
#42=CARTESIAN_POINT('Vertex',(9.91091269025,0.9,2.5)) ;
#45=CARTESIAN_POINT('Line Origine',(9.91091269025,0.9,1.33999999991)) ;
#49=CARTESIAN_POINT('Vertex',(9.91091269025,0.9,0.)) ;
#52=CARTESIAN_POINT('Axis2P3D Location',(7.5,2.,0.)) ;
#56=CARTESIAN_POINT('Vertex',(5.08908730975,0.9,0.)) ;
#59=CARTESIAN_POINT('Line Origine',(5.08908730975,0.9,1.33999999991)) ;
#63=CARTESIAN_POINT('Vertex',(5.08908730975,0.9,2.5)) ;
#66=CARTESIAN_POINT('Axis2P3D Location',(7.5,2.,2.5)) ;
#70=CARTESIAN_POINT('Vertex',(4.85,2.,2.5)) ;
#73=CARTESIAN_POINT('Line Origine',(4.85,2.,1.33999999991)) ;
#77=CARTESIAN_POINT('Vertex',(4.85,2.,4.)) ;
#80=CARTESIAN_POINT('Axis2P3D Location',(7.5,2.,4.)) ;
#84=CARTESIAN_POINT('Vertex',(10.15,2.,4.)) ;
#87=CARTESIAN_POINT('Line Origine',(10.15,2.,1.33999999991)) ;
#103=CARTESIAN_POINT('Axis2P3D Location',(7.5,2.,2.5)) ;
#107=CARTESIAN_POINT('Vertex',(5.08908730975,3.1,2.5)) ;
#110=CARTESIAN_POINT('Line Origine',(5.08908730975,3.1,1.33999999991)) ;
#114=CARTESIAN_POINT('Vertex',(5.08908730975,3.1,0.)) ;
#117=CARTESIAN_POINT('Axis2P3D Location',(7.5,2.,0.)) ;
#121=CARTESIAN_POINT('Vertex',(9.91091269025,3.1,0.)) ;
#124=CARTESIAN_POINT('Line Origine',(9.91091269025,3.1,1.33999999991)) ;
#128=CARTESIAN_POINT('Vertex',(9.91091269025,3.1,2.5)) ;
#131=CARTESIAN_POINT('Axis2P3D Location',(7.5,2.,2.5)) ;
#136=CARTESIAN_POINT('Axis2P3D Location',(7.5,2.,4.)) ;
#152=CARTESIAN_POINT('Axis2P3D Location',(0.,0.,4.)) ;
#157=CARTESIAN_POINT('Axis2P3D Location',(2.25476406632,4.1,4.)) ;
#161=CARTESIAN_POINT('Vertex',(2.34760010054,4.06283185841,4.)) ;
#163=CARTESIAN_POINT('Vertex',(2.25476406632,4.,4.)) ;
#166=CARTESIAN_POINT('Line Origine',(2.43988203316,4.,4.)) ;
#170=CARTESIAN_POINT('Vertex',(2.625,4.,4.)) ;
#173=CARTESIAN_POINT('Line Origine',(2.625,2.,4.)) ;
#177=CARTESIAN_POINT('Vertex',(2.625,0.,4.)) ;
#180=CARTESIAN_POINT('Line Origine',(2.43988203316,0.,4.)) ;
#184=CARTESIAN_POINT('Vertex',(2.25476406632,0.,4.)) ;
#187=CARTESIAN_POINT('Axis2P3D Location',(2.25476406632,-0.1,4.)) ;
#191=CARTESIAN_POINT('Vertex',(2.34760010054,-0.0628318584071,4.)) ;
#194=CARTESIAN_POINT('Axis2P3D Location',(7.5,2.,4.)) ;
#198=CARTESIAN_POINT('Vertex',(12.6523998995,-0.0628318584071,4.)) ;
#201=CARTESIAN_POINT('Axis2P3D Location',(12.7452359337,-0.1,4.)) ;
#205=CARTESIAN_POINT('Vertex',(12.7452359337,1.69309011255E-15,4.)) ;
#208=CARTESIAN_POINT('Line Origine',(12.5601179668,0.,4.)) ;
#212=CARTESIAN_POINT('Vertex',(12.375,0.,4.)) ;
#215=CARTESIAN_POINT('Line Origine',(12.375,2.,4.)) ;
#219=CARTESIAN_POINT('Vertex',(12.375,4.,4.)) ;
#222=CARTESIAN_POINT('Line Origine',(12.5601179668,4.,4.)) ;
#226=CARTESIAN_POINT('Vertex',(12.7452359337,4.,4.)) ;
#229=CARTESIAN_POINT('Axis2P3D Location',(12.7452359337,4.1,4.)) ;
#233=CARTESIAN_POINT('Vertex',(12.6523998995,4.06283185841,4.)) ;
#236=CARTESIAN_POINT('Axis2P3D Location',(7.5,2.,4.)) ;
#260=CARTESIAN_POINT('Axis2P3D Location',(0.,0.,2.5)) ;
#265=CARTESIAN_POINT('Line Origine',(3.61954365488,0.9,2.5)) ;
#269=CARTESIAN_POINT('Vertex',(2.15,0.9,2.5)) ;
#272=CARTESIAN_POINT('Line Origine',(2.15,2.,2.5)) ;
#276=CARTESIAN_POINT('Vertex',(2.15,3.1,2.5)) ;
#279=CARTESIAN_POINT('Line Origine',(3.61954365488,3.1,2.5)) ;
#292=CARTESIAN_POINT('Axis2P3D Location',(2.15,0.9,0.)) ;
#297=CARTESIAN_POINT('Line Origine',(3.61954365488,0.9,0.)) ;
#301=CARTESIAN_POINT('Vertex',(2.15,0.9,0.)) ;
#304=CARTESIAN_POINT('Line Origine',(2.15,0.9,1.25)) ;
#316=CARTESIAN_POINT('Line Origine',(11.3804563451,3.1,2.5)) ;
#320=CARTESIAN_POINT('Vertex',(12.85,3.1,2.5)) ;
#323=CARTESIAN_POINT('Line Origine',(12.85,2.,2.5)) ;
#327=CARTESIAN_POINT('Vertex',(12.85,0.9,2.5)) ;
#330=CARTESIAN_POINT('Line Origine',(11.3804563451,0.9,2.5)) ;
#343=CARTESIAN_POINT('Axis2P3D Location',(12.85,3.1,0.)) ;
#348=CARTESIAN_POINT('Line Origine',(11.3804563451,3.1,0.)) ;
#352=CARTESIAN_POINT('Vertex',(12.85,3.1,0.)) ;
#355=CARTESIAN_POINT('Line Origine',(12.85,3.1,1.25)) ;
#367=CARTESIAN_POINT('Axis2P3D Location',(15.,4.,0.)) ;
#372=CARTESIAN_POINT('Line Origine',(12.375,4.,5.)) ;
#376=CARTESIAN_POINT('Vertex',(12.375,4.,6.)) ;
#379=CARTESIAN_POINT('Line Origine',(13.6875,4.,6.)) ;
#383=CARTESIAN_POINT('Vertex',(15.,4.,6.)) ;
#386=CARTESIAN_POINT('Line Origine',(15.,4.,3.)) ;
#390=CARTESIAN_POINT('Vertex',(15.,4.,0.)) ;
#393=CARTESIAN_POINT('Line Origine',(13.8726179668,4.,0.)) ;
#397=CARTESIAN_POINT('Vertex',(12.7452359337,4.,0.)) ;
#400=CARTESIAN_POINT('Line Origine',(12.7452359337,4.,2.)) ;
#414=CARTESIAN_POINT('Axis2P3D Location',(12.7452359337,4.1,3.)) ;
#419=CARTESIAN_POINT('Axis2P3D Location',(12.7452359337,4.1,-4.4408920985E-16)) ;
#423=CARTESIAN_POINT('Vertex',(12.6523998995,4.06283185841,0.)) ;
#426=CARTESIAN_POINT('Line Origine',(12.6523998995,4.06283185841,3.)) ;
#438=CARTESIAN_POINT('Axis2P3D Location',(7.5,2.,1.38999999995)) ;
#443=CARTESIAN_POINT('Axis2P3D Location',(7.5,2.,0.)) ;
#447=CARTESIAN_POINT('Vertex',(2.34760010054,4.06283185841,0.)) ;
#450=CARTESIAN_POINT('Line Origine',(2.34760010054,4.06283185841,1.38999999995)) ;
#462=CARTESIAN_POINT('Axis2P3D Location',(2.25476406632,4.1,3.)) ;
#467=CARTESIAN_POINT('Axis2P3D Location',(2.25476406632,4.1,0.)) ;
#471=CARTESIAN_POINT('Vertex',(2.25476406632,4.,0.)) ;
#474=CARTESIAN_POINT('Line Origine',(2.25476406632,4.,3.)) ;
#486=CARTESIAN_POINT('Line Origine',(1.12738203316,4.,0.)) ;
#490=CARTESIAN_POINT('Vertex',(0.,4.,0.)) ;
#493=CARTESIAN_POINT('Line Origine',(0.,4.,3.)) ;
#497=CARTESIAN_POINT('Vertex',(0.,4.,6.)) ;
#500=CARTESIAN_POINT('Line Origine',(1.3125,4.,6.)) ;
#504=CARTESIAN_POINT('Vertex',(2.625,4.,6.)) ;
#507=CARTESIAN_POINT('Line Origine',(2.625,4.,5.)) ;
#521=CARTESIAN_POINT('Axis2P3D Location',(0.,0.,0.)) ;
#526=CARTESIAN_POINT('Line Origine',(2.625,0.,5.)) ;
#530=CARTESIAN_POINT('Vertex',(2.625,0.,6.)) ;
#533=CARTESIAN_POINT('Line Origine',(1.3125,0.,6.)) ;
#537=CARTESIAN_POINT('Vertex',(0.,0.,6.)) ;
#540=CARTESIAN_POINT('Line Origine',(0.,0.,3.)) ;
#544=CARTESIAN_POINT('Vertex',(0.,0.,0.)) ;
#547=CARTESIAN_POINT('Line Origine',(1.12738203316,0.,0.)) ;
#551=CARTESIAN_POINT('Vertex',(2.25476406632,0.,0.)) ;
#554=CARTESIAN_POINT('Line Origine',(2.25476406632,0.,2.)) ;
#568=CARTESIAN_POINT('Axis2P3D Location',(2.25476406632,-0.1,3.)) ;
#573=CARTESIAN_POINT('Axis2P3D Location',(2.25476406632,-0.1,-4.4408920985E-16)) ;
#577=CARTESIAN_POINT('Vertex',(2.34760010054,-0.0628318584071,0.)) ;
#580=CARTESIAN_POINT('Line Origine',(2.34760010054,-0.0628318584071,3.)) ;
#592=CARTESIAN_POINT('Axis2P3D Location',(7.5,2.,1.38999999995)) ;
#597=CARTESIAN_POINT('Axis2P3D Location',(7.5,2.,0.)) ;
#601=CARTESIAN_POINT('Vertex',(12.6523998995,-0.0628318584071,0.)) ;
#604=CARTESIAN_POINT('Line Origine',(12.6523998995,-0.0628318584071,1.38999999995)) ;
#616=CARTESIAN_POINT('Axis2P3D Location',(12.7452359337,-0.1,3.)) ;
#621=CARTESIAN_POINT('Axis2P3D Location',(12.7452359337,-0.1,0.)) ;
#625=CARTESIAN_POINT('Vertex',(12.7452359337,0.,0.)) ;
#628=CARTESIAN_POINT('Line Origine',(12.7452359337,1.70696790036E-15,3.)) ;
#640=CARTESIAN_POINT('Line Origine',(13.8726179668,0.,0.)) ;
#644=CARTESIAN_POINT('Vertex',(15.,0.,0.)) ;
#647=CARTESIAN_POINT('Line Origine',(15.,0.,3.)) ;
#651=CARTESIAN_POINT('Vertex',(15.,0.,6.)) ;
#654=CARTESIAN_POINT('Line Origine',(13.6875,0.,6.)) ;
#658=CARTESIAN_POINT('Vertex',(12.375,0.,6.)) ;
#661=CARTESIAN_POINT('Line Origine',(12.375,0.,5.)) ;
#675=CARTESIAN_POINT('Axis2P3D Location',(2.15,0.9,0.)) ;
#680=CARTESIAN_POINT('Line Origine',(2.15,2.,0.)) ;
#684=CARTESIAN_POINT('Vertex',(2.15,3.1,0.)) ;
#687=CARTESIAN_POINT('Line Origine',(2.15,3.1,1.25)) ;
#699=CARTESIAN_POINT('Axis2P3D Location',(12.85,3.1,0.)) ;
#704=CARTESIAN_POINT('Line Origine',(12.85,2.,0.)) ;
#708=CARTESIAN_POINT('Vertex',(12.85,0.9,0.)) ;
#711=CARTESIAN_POINT('Line Origine',(12.85,0.9,1.25)) ;
#723=CARTESIAN_POINT('Axis2P3D Location',(0.,4.,0.)) ;
#728=CARTESIAN_POINT('Axis2P3D Location',(0.,2.,6.)) ;
#732=CARTESIAN_POINT('Vertex',(0.,2.,8.)) ;
#735=CARTESIAN_POINT('Line Origine',(0.,2.,0.)) ;
#740=CARTESIAN_POINT('Axis2P3D Location',(0.,2.,6.)) ;
#753=CARTESIAN_POINT('Axis2P3D Location',(7.5,2.,6.)) ;
#758=CARTESIAN_POINT('Axis2P3D Location',(15.,2.,6.)) ;
#762=CARTESIAN_POINT('Vertex',(15.,2.,8.)) ;
#765=CARTESIAN_POINT('Line Origine',(7.5,2.,8.)) ;
#769=CARTESIAN_POINT('Vertex',(12.375,2.,8.)) ;
#772=CARTESIAN_POINT('Axis2P3D Location',(12.375,2.,6.)) ;
#784=CARTESIAN_POINT('Axis2P3D Location',(7.5,2.,6.)) ;
#789=CARTESIAN_POINT('Axis2P3D Location',(2.625,2.,6.)) ;
#793=CARTESIAN_POINT('Vertex',(2.625,2.,8.)) ;
#796=CARTESIAN_POINT('Line Origine',(7.5,2.,8.)) ;
#808=CARTESIAN_POINT('Axis2P3D Location',(7.5,2.,6.)) ;
#813=CARTESIAN_POINT('Axis2P3D Location',(2.625,2.,6.)) ;
#825=CARTESIAN_POINT('Axis2P3D Location',(15.,0.,0.)) ;
#830=CARTESIAN_POINT('Line Origine',(15.,2.,0.)) ;
#835=CARTESIAN_POINT('Axis2P3D Location',(15.,2.,6.)) ;
#848=CARTESIAN_POINT('Axis2P3D Location',(7.5,2.,6.)) ;
#853=CARTESIAN_POINT('Axis2P3D Location',(12.375,2.,6.)) ;
#865=CARTESIAN_POINT('Axis2P3D Location',(2.625,0.,4.)) ;
#878=CARTESIAN_POINT('Axis2P3D Location',(12.375,0.,4.)) ;
#891=CARTESIAN_POINT('Line Origine',(3.61954365488,3.1,0.)) ;
#903=CARTESIAN_POINT('Line Origine',(11.3804563451,0.9,0.)) ;
#915=CARTESIAN_POINT('Axis2P3D Location',(0.,0.,0.)) ;
#8=PRODUCT_RELATED_PRODUCT_CATEGORY('part',$,(#5)) ;
#15=UNCERTAINTY_MEASURE_WITH_UNIT(LENGTH_MEASURE(0.005),#12,'distance_accuracy_value','CONFUSED CURVE UNCERTAINTY') ;
#29=STYLED_ITEM(' ',(#28),#21) ;
#28=PRESENTATION_STYLE_ASSIGNMENT((#27)) ;
#27=SURFACE_STYLE_USAGE(.BOTH.,#26) ;
#26=SURFACE_SIDE_STYLE(' ',(#25)) ;
#25=SURFACE_STYLE_FILL_AREA(#24) ;
#24=FILL_AREA_STYLE(' ',(#23)) ;
#23=FILL_AREA_STYLE_COLOUR(' ',#22) ;
#47=VECTOR('Line Direction',#46,1.) ;
#61=VECTOR('Line Direction',#60,1.) ;
#75=VECTOR('Line Direction',#74,1.) ;
#89=VECTOR('Line Direction',#88,1.) ;
#112=VECTOR('Line Direction',#111,1.) ;
#126=VECTOR('Line Direction',#125,1.) ;
#168=VECTOR('Line Direction',#167,1.) ;
#175=VECTOR('Line Direction',#174,1.) ;
#182=VECTOR('Line Direction',#181,1.) ;
#210=VECTOR('Line Direction',#209,1.) ;
#217=VECTOR('Line Direction',#216,1.) ;
#224=VECTOR('Line Direction',#223,1.) ;
#267=VECTOR('Line Direction',#266,1.) ;
#274=VECTOR('Line Direction',#273,1.) ;
#281=VECTOR('Line Direction',#280,1.) ;
#299=VECTOR('Line Direction',#298,1.) ;
#306=VECTOR('Line Direction',#305,1.) ;
#318=VECTOR('Line Direction',#317,1.) ;
#325=VECTOR('Line Direction',#324,1.) ;
#332=VECTOR('Line Direction',#331,1.) ;
#350=VECTOR('Line Direction',#349,1.) ;
#357=VECTOR('Line Direction',#356,1.) ;
#374=VECTOR('Line Direction',#373,1.) ;
#381=VECTOR('Line Direction',#380,1.) ;
#388=VECTOR('Line Direction',#387,1.) ;
#395=VECTOR('Line Direction',#394,1.) ;
#402=VECTOR('Line Direction',#401,1.) ;
#428=VECTOR('Line Direction',#427,1.) ;
#452=VECTOR('Line Direction',#451,1.) ;
#476=VECTOR('Line Direction',#475,1.) ;
#488=VECTOR('Line Direction',#487,1.) ;
#495=VECTOR('Line Direction',#494,1.) ;
#502=VECTOR('Line Direction',#501,1.) ;
#509=VECTOR('Line Direction',#508,1.) ;
#528=VECTOR('Line Direction',#527,1.) ;
#535=VECTOR('Line Direction',#534,1.) ;
#542=VECTOR('Line Direction',#541,1.) ;
#549=VECTOR('Line Direction',#548,1.) ;
#556=VECTOR('Line Direction',#555,1.) ;
#582=VECTOR('Line Direction',#581,1.) ;
#606=VECTOR('Line Direction',#605,1.) ;
#630=VECTOR('Line Direction',#629,1.) ;
#642=VECTOR('Line Direction',#641,1.) ;
#649=VECTOR('Line Direction',#648,1.) ;
#656=VECTOR('Line Direction',#655,1.) ;
#663=VECTOR('Line Direction',#662,1.) ;
#682=VECTOR('Line Direction',#681,1.) ;
#689=VECTOR('Line Direction',#688,1.) ;
#706=VECTOR('Line Direction',#705,1.) ;
#713=VECTOR('Line Direction',#712,1.) ;
#737=VECTOR('Line Direction',#736,1.) ;
#767=VECTOR('Line Direction',#766,1.) ;
#798=VECTOR('Line Direction',#797,1.) ;
#832=VECTOR('Line Direction',#831,1.) ;
#893=VECTOR('Line Direction',#892,1.) ;
#905=VECTOR('Line Direction',#904,1.) ;
#32=DIRECTION('Axis2P3D Direction',(0.,0.,1.)) ;
#33=DIRECTION('Axis2P3D XDirection',(1.,0.,0.)) ;
#37=DIRECTION('Axis2P3D Direction',(0.,0.,1.)) ;
#46=DIRECTION('Vector Direction',(0.,0.,1.)) ;
#53=DIRECTION('Axis2P3D Direction',(0.,0.,1.)) ;
#60=DIRECTION('Vector Direction',(0.,0.,1.)) ;
#67=DIRECTION('Axis2P3D Direction',(0.,0.,1.)) ;
#74=DIRECTION('Vector Direction',(0.,0.,1.)) ;
#81=DIRECTION('Axis2P3D Direction',(0.,0.,1.)) ;
#88=DIRECTION('Vector Direction',(0.,0.,1.)) ;
#104=DIRECTION('Axis2P3D Direction',(0.,0.,1.)) ;
#111=DIRECTION('Vector Direction',(0.,0.,1.)) ;
#118=DIRECTION('Axis2P3D Direction',(0.,0.,1.)) ;
#125=DIRECTION('Vector Direction',(0.,0.,1.)) ;
#132=DIRECTION('Axis2P3D Direction',(0.,0.,1.)) ;
#137=DIRECTION('Axis2P3D Direction',(0.,0.,1.)) ;
#153=DIRECTION('Axis2P3D Direction',(0.,0.,1.)) ;
#154=DIRECTION('Axis2P3D XDirection',(1.,0.,0.)) ;
#158=DIRECTION('Axis2P3D Direction',(0.,0.,1.)) ;
#167=DIRECTION('Vector Direction',(1.,0.,0.)) ;
#174=DIRECTION('Vector Direction',(0.,1.,0.)) ;
#181=DIRECTION('Vector Direction',(-1.,0.,0.)) ;
#188=DIRECTION('Axis2P3D Direction',(0.,0.,1.)) ;
#195=DIRECTION('Axis2P3D Direction',(0.,0.,1.)) ;
#202=DIRECTION('Axis2P3D Direction',(0.,0.,1.)) ;
#209=DIRECTION('Vector Direction',(-1.,0.,0.)) ;
#216=DIRECTION('Vector Direction',(0.,1.,0.)) ;
#223=DIRECTION('Vector Direction',(1.,0.,0.)) ;
#230=DIRECTION('Axis2P3D Direction',(0.,0.,1.)) ;
#237=DIRECTION('Axis2P3D Direction',(0.,0.,1.)) ;
#261=DIRECTION('Axis2P3D Direction',(0.,0.,-1.)) ;
#262=DIRECTION('Axis2P3D XDirection',(1.,0.,0.)) ;
#266=DIRECTION('Vector Direction',(1.,0.,0.)) ;
#273=DIRECTION('Vector Direction',(0.,1.,0.)) ;
#280=DIRECTION('Vector Direction',(-1.,0.,0.)) ;
#293=DIRECTION('Axis2P3D Direction',(0.,-1.,0.)) ;
#294=DIRECTION('Axis2P3D XDirection',(1.,0.,0.)) ;
#298=DIRECTION('Vector Direction',(1.,0.,0.)) ;
#305=DIRECTION('Vector Direction',(0.,0.,1.)) ;
#317=DIRECTION('Vector Direction',(-1.,0.,0.)) ;
#324=DIRECTION('Vector Direction',(0.,-1.,0.)) ;
#331=DIRECTION('Vector Direction',(1.,0.,0.)) ;
#344=DIRECTION('Axis2P3D Direction',(0.,1.,-0.)) ;
#345=DIRECTION('Axis2P3D XDirection',(-1.,0.,0.)) ;
#349=DIRECTION('Vector Direction',(-1.,0.,0.)) ;
#356=DIRECTION('Vector Direction',(0.,0.,1.)) ;
#368=DIRECTION('Axis2P3D Direction',(0.,1.,-0.)) ;
#369=DIRECTION('Axis2P3D XDirection',(-1.,0.,0.)) ;
#373=DIRECTION('Vector Direction',(0.,0.,1.)) ;
#380=DIRECTION('Vector Direction',(1.,0.,0.)) ;
#387=DIRECTION('Vector Direction',(0.,0.,1.)) ;
#394=DIRECTION('Vector Direction',(-1.,0.,0.)) ;
#401=DIRECTION('Vector Direction',(0.,0.,-1.)) ;
#415=DIRECTION('Axis2P3D Direction',(0.,0.,-1.)) ;
#416=DIRECTION('Axis2P3D XDirection',(0.,-1.,0.)) ;
#420=DIRECTION('Axis2P3D Direction',(0.,0.,-1.)) ;
#427=DIRECTION('Vector Direction',(0.,0.,-1.)) ;
#439=DIRECTION('Axis2P3D Direction',(0.,0.,1.)) ;
#440=DIRECTION('Axis2P3D XDirection',(0.932813170298,0.36036036036,0.)) ;
#444=DIRECTION('Axis2P3D Direction',(0.,0.,1.)) ;
#451=DIRECTION('Vector Direction',(0.,0.,1.)) ;
#463=DIRECTION('Axis2P3D Direction',(0.,0.,-1.)) ;
#464=DIRECTION('Axis2P3D XDirection',(0.928360342245,-0.371681415929,0.)) ;
#468=DIRECTION('Axis2P3D Direction',(0.,0.,-1.)) ;
#475=DIRECTION('Vector Direction',(0.,0.,-1.)) ;
#487=DIRECTION('Vector Direction',(-1.,0.,0.)) ;
#494=DIRECTION('Vector Direction',(0.,0.,1.)) ;
#501=DIRECTION('Vector Direction',(-1.,0.,0.)) ;
#508=DIRECTION('Vector Direction',(0.,0.,1.)) ;
#522=DIRECTION('Axis2P3D Direction',(0.,-1.,0.)) ;
#523=DIRECTION('Axis2P3D XDirection',(1.,0.,0.)) ;
#527=DIRECTION('Vector Direction',(0.,0.,1.)) ;
#534=DIRECTION('Vector Direction',(1.,0.,0.)) ;
#541=DIRECTION('Vector Direction',(0.,0.,1.)) ;
#548=DIRECTION('Vector Direction',(1.,0.,0.)) ;
#555=DIRECTION('Vector Direction',(0.,0.,-1.)) ;
#569=DIRECTION('Axis2P3D Direction',(0.,0.,-1.)) ;
#570=DIRECTION('Axis2P3D XDirection',(0.,1.,0.)) ;
#574=DIRECTION('Axis2P3D Direction',(0.,0.,-1.)) ;
#581=DIRECTION('Vector Direction',(0.,0.,-1.)) ;
#593=DIRECTION('Axis2P3D Direction',(0.,0.,1.)) ;
#594=DIRECTION('Axis2P3D XDirection',(-0.932813170298,-0.36036036036,-0.)) ;
#598=DIRECTION('Axis2P3D Direction',(0.,0.,1.)) ;
#605=DIRECTION('Vector Direction',(0.,0.,1.)) ;
#617=DIRECTION('Axis2P3D Direction',(0.,0.,-1.)) ;
#618=DIRECTION('Axis2P3D XDirection',(-0.928360342245,0.371681415929,0.)) ;
#622=DIRECTION('Axis2P3D Direction',(0.,0.,-1.)) ;
#629=DIRECTION('Vector Direction',(0.,0.,-1.)) ;
#641=DIRECTION('Vector Direction',(1.,0.,0.)) ;
#648=DIRECTION('Vector Direction',(0.,0.,1.)) ;
#655=DIRECTION('Vector Direction',(-1.,0.,0.)) ;
#662=DIRECTION('Vector Direction',(0.,0.,1.)) ;
#676=DIRECTION('Axis2P3D Direction',(1.,0.,0.)) ;
#677=DIRECTION('Axis2P3D XDirection',(0.,1.,0.)) ;
#681=DIRECTION('Vector Direction',(0.,1.,0.)) ;
#688=DIRECTION('Vector Direction',(0.,0.,1.)) ;
#700=DIRECTION('Axis2P3D Direction',(-1.,0.,0.)) ;
#701=DIRECTION('Axis2P3D XDirection',(0.,-1.,0.)) ;
#705=DIRECTION('Vector Direction',(0.,-1.,0.)) ;
#712=DIRECTION('Vector Direction',(0.,0.,1.)) ;
#724=DIRECTION('Axis2P3D Direction',(-1.,0.,0.)) ;
#725=DIRECTION('Axis2P3D XDirection',(0.,-1.,0.)) ;
#729=DIRECTION('Axis2P3D Direction',(-1.,0.,0.)) ;
#736=DIRECTION('Vector Direction',(0.,-1.,0.)) ;
#741=DIRECTION('Axis2P3D Direction',(-1.,0.,0.)) ;
#754=DIRECTION('Axis2P3D Direction',(-1.,0.,0.)) ;
#755=DIRECTION('Axis2P3D XDirection',(0.,-1.,0.)) ;
#759=DIRECTION('Axis2P3D Direction',(-1.,0.,0.)) ;
#766=DIRECTION('Vector Direction',(-1.,0.,0.)) ;
#773=DIRECTION('Axis2P3D Direction',(-1.,0.,0.)) ;
#785=DIRECTION('Axis2P3D Direction',(1.,0.,0.)) ;
#786=DIRECTION('Axis2P3D XDirection',(-0.,1.83697019872E-16,1.)) ;
#790=DIRECTION('Axis2P3D Direction',(1.,0.,0.)) ;
#797=DIRECTION('Vector Direction',(1.,0.,0.)) ;
#809=DIRECTION('Axis2P3D Direction',(-1.,0.,0.)) ;
#810=DIRECTION('Axis2P3D XDirection',(-0.,-1.83697019872E-16,1.)) ;
#814=DIRECTION('Axis2P3D Direction',(-1.,0.,0.)) ;
#826=DIRECTION('Axis2P3D Direction',(1.,0.,0.)) ;
#827=DIRECTION('Axis2P3D XDirection',(0.,1.,0.)) ;
#831=DIRECTION('Vector Direction',(0.,1.,0.)) ;
#836=DIRECTION('Axis2P3D Direction',(1.,0.,0.)) ;
#849=DIRECTION('Axis2P3D Direction',(1.,0.,0.)) ;
#850=DIRECTION('Axis2P3D XDirection',(0.,1.,0.)) ;
#854=DIRECTION('Axis2P3D Direction',(1.,0.,0.)) ;
#866=DIRECTION('Axis2P3D Direction',(1.,0.,0.)) ;
#867=DIRECTION('Axis2P3D XDirection',(0.,1.,0.)) ;
#879=DIRECTION('Axis2P3D Direction',(1.,0.,0.)) ;
#880=DIRECTION('Axis2P3D XDirection',(0.,1.,0.)) ;
#892=DIRECTION('Vector Direction',(-1.,0.,0.)) ;
#904=DIRECTION('Vector Direction',(1.,0.,0.)) ;
#916=DIRECTION('Axis2P3D Direction',(0.,0.,1.)) ;
#917=DIRECTION('Axis2P3D XDirection',(1.,0.,0.)) ;
#946=SHAPE_REPRESENTATION_RELATIONSHIP(' ',' ',#19,#945) ;
#18=AXIS2_PLACEMENT_3D(' ',#17,$,$) ;
#34=AXIS2_PLACEMENT_3D('Cylinder Axis2P3D',#31,#32,#33) ;
#38=AXIS2_PLACEMENT_3D('Circle Axis2P3D',#36,#37,$) ;
#54=AXIS2_PLACEMENT_3D('Circle Axis2P3D',#52,#53,$) ;
#68=AXIS2_PLACEMENT_3D('Circle Axis2P3D',#66,#67,$) ;
#82=AXIS2_PLACEMENT_3D('Circle Axis2P3D',#80,#81,$) ;
#105=AXIS2_PLACEMENT_3D('Circle Axis2P3D',#103,#104,$) ;
#119=AXIS2_PLACEMENT_3D('Circle Axis2P3D',#117,#118,$) ;
#133=AXIS2_PLACEMENT_3D('Circle Axis2P3D',#131,#132,$) ;
#138=AXIS2_PLACEMENT_3D('Circle Axis2P3D',#136,#137,$) ;
#155=AXIS2_PLACEMENT_3D('Plane Axis2P3D',#152,#153,#154) ;
#159=AXIS2_PLACEMENT_3D('Circle Axis2P3D',#157,#158,$) ;
#189=AXIS2_PLACEMENT_3D('Circle Axis2P3D',#187,#188,$) ;
#196=AXIS2_PLACEMENT_3D('Circle Axis2P3D',#194,#195,$) ;
#203=AXIS2_PLACEMENT_3D('Circle Axis2P3D',#201,#202,$) ;
#231=AXIS2_PLACEMENT_3D('Circle Axis2P3D',#229,#230,$) ;
#238=AXIS2_PLACEMENT_3D('Circle Axis2P3D',#236,#237,$) ;
#263=AXIS2_PLACEMENT_3D('Plane Axis2P3D',#260,#261,#262) ;
#295=AXIS2_PLACEMENT_3D('Plane Axis2P3D',#292,#293,#294) ;
#346=AXIS2_PLACEMENT_3D('Plane Axis2P3D',#343,#344,#345) ;
#370=AXIS2_PLACEMENT_3D('Plane Axis2P3D',#367,#368,#369) ;
#417=AXIS2_PLACEMENT_3D('Cylinder Axis2P3D',#414,#415,#416) ;
#421=AXIS2_PLACEMENT_3D('Circle Axis2P3D',#419,#420,$) ;
#441=AXIS2_PLACEMENT_3D('Cylinder Axis2P3D',#438,#439,#440) ;
#445=AXIS2_PLACEMENT_3D('Circle Axis2P3D',#443,#444,$) ;
#465=AXIS2_PLACEMENT_3D('Cylinder Axis2P3D',#462,#463,#464) ;
#469=AXIS2_PLACEMENT_3D('Circle Axis2P3D',#467,#468,$) ;
#524=AXIS2_PLACEMENT_3D('Plane Axis2P3D',#521,#522,#523) ;
#571=AXIS2_PLACEMENT_3D('Cylinder Axis2P3D',#568,#569,#570) ;
#575=AXIS2_PLACEMENT_3D('Circle Axis2P3D',#573,#574,$) ;
#595=AXIS2_PLACEMENT_3D('Cylinder Axis2P3D',#592,#593,#594) ;
#599=AXIS2_PLACEMENT_3D('Circle Axis2P3D',#597,#598,$) ;
#619=AXIS2_PLACEMENT_3D('Cylinder Axis2P3D',#616,#617,#618) ;
#623=AXIS2_PLACEMENT_3D('Circle Axis2P3D',#621,#622,$) ;
#678=AXIS2_PLACEMENT_3D('Plane Axis2P3D',#675,#676,#677) ;
#702=AXIS2_PLACEMENT_3D('Plane Axis2P3D',#699,#700,#701) ;
#726=AXIS2_PLACEMENT_3D('Plane Axis2P3D',#723,#724,#725) ;
#730=AXIS2_PLACEMENT_3D('Circle Axis2P3D',#728,#729,$) ;
#742=AXIS2_PLACEMENT_3D('Circle Axis2P3D',#740,#741,$) ;
#756=AXIS2_PLACEMENT_3D('Cylinder Axis2P3D',#753,#754,#755) ;
#760=AXIS2_PLACEMENT_3D('Circle Axis2P3D',#758,#759,$) ;
#774=AXIS2_PLACEMENT_3D('Circle Axis2P3D',#772,#773,$) ;
#787=AXIS2_PLACEMENT_3D('Cylinder Axis2P3D',#784,#785,#786) ;
#791=AXIS2_PLACEMENT_3D('Circle Axis2P3D',#789,#790,$) ;
#811=AXIS2_PLACEMENT_3D('Cylinder Axis2P3D',#808,#809,#810) ;
#815=AXIS2_PLACEMENT_3D('Circle Axis2P3D',#813,#814,$) ;
#828=AXIS2_PLACEMENT_3D('Plane Axis2P3D',#825,#826,#827) ;
#837=AXIS2_PLACEMENT_3D('Circle Axis2P3D',#835,#836,$) ;
#851=AXIS2_PLACEMENT_3D('Cylinder Axis2P3D',#848,#849,#850) ;
#855=AXIS2_PLACEMENT_3D('Circle Axis2P3D',#853,#854,$) ;
#868=AXIS2_PLACEMENT_3D('Plane Axis2P3D',#865,#866,#867) ;
#881=AXIS2_PLACEMENT_3D('Plane Axis2P3D',#878,#879,#880) ;
#918=AXIS2_PLACEMENT_3D('Plane Axis2P3D',#915,#916,#917) ;
#48=LINE('Line',#45,#47) ;
#62=LINE('Line',#59,#61) ;
#76=LINE('Line',#73,#75) ;
#90=LINE('Line',#87,#89) ;
#113=LINE('Line',#110,#112) ;
#127=LINE('Line',#124,#126) ;
#169=LINE('Line',#166,#168) ;
#176=LINE('Line',#173,#175) ;
#183=LINE('Line',#180,#182) ;
#211=LINE('Line',#208,#210) ;
#218=LINE('Line',#215,#217) ;
#225=LINE('Line',#222,#224) ;
#268=LINE('Line',#265,#267) ;
#275=LINE('Line',#272,#274) ;
#282=LINE('Line',#279,#281) ;
#300=LINE('Line',#297,#299) ;
#307=LINE('Line',#304,#306) ;
#319=LINE('Line',#316,#318) ;
#326=LINE('Line',#323,#325) ;
#333=LINE('Line',#330,#332) ;
#351=LINE('Line',#348,#350) ;
#358=LINE('Line',#355,#357) ;
#375=LINE('Line',#372,#374) ;
#382=LINE('Line',#379,#381) ;
#389=LINE('Line',#386,#388) ;
#396=LINE('Line',#393,#395) ;
#403=LINE('Line',#400,#402) ;
#429=LINE('Line',#426,#428) ;
#453=LINE('Line',#450,#452) ;
#477=LINE('Line',#474,#476) ;
#489=LINE('Line',#486,#488) ;
#496=LINE('Line',#493,#495) ;
#503=LINE('Line',#500,#502) ;
#510=LINE('Line',#507,#509) ;
#529=LINE('Line',#526,#528) ;
#536=LINE('Line',#533,#535) ;
#543=LINE('Line',#540,#542) ;
#550=LINE('Line',#547,#549) ;
#557=LINE('Line',#554,#556) ;
#583=LINE('Line',#580,#582) ;
#607=LINE('Line',#604,#606) ;
#631=LINE('Line',#628,#630) ;
#643=LINE('Line',#640,#642) ;
#650=LINE('Line',#647,#649) ;
#657=LINE('Line',#654,#656) ;
#664=LINE('Line',#661,#663) ;
#683=LINE('Line',#680,#682) ;
#690=LINE('Line',#687,#689) ;
#707=LINE('Line',#704,#706) ;
#714=LINE('Line',#711,#713) ;
#738=LINE('Line',#735,#737) ;
#768=LINE('Line',#765,#767) ;
#799=LINE('Line',#796,#798) ;
#833=LINE('Line',#830,#832) ;
#894=LINE('Line',#891,#893) ;
#906=LINE('Line',#903,#905) ;
#39=CIRCLE('generated circle',#38,2.65) ;
#55=CIRCLE('generated circle',#54,2.65) ;
#69=CIRCLE('generated circle',#68,2.65) ;
#83=CIRCLE('generated circle',#82,2.65) ;
#106=CIRCLE('generated circle',#105,2.65) ;
#120=CIRCLE('generated circle',#119,2.65) ;
#134=CIRCLE('generated circle',#133,2.65) ;
#139=CIRCLE('generated circle',#138,2.65) ;
#160=CIRCLE('generated circle',#159,0.1) ;
#190=CIRCLE('generated circle',#189,0.1) ;
#197=CIRCLE('generated circle',#196,5.55) ;
#204=CIRCLE('generated circle',#203,0.1) ;
#232=CIRCLE('generated circle',#231,0.1) ;
#239=CIRCLE('generated circle',#238,5.55) ;
#422=CIRCLE('generated circle',#421,0.1) ;
#446=CIRCLE('generated circle',#445,5.55) ;
#470=CIRCLE('generated circle',#469,0.1) ;
#576=CIRCLE('generated circle',#575,0.1) ;
#600=CIRCLE('generated circle',#599,5.55) ;
#624=CIRCLE('generated circle',#623,0.1) ;
#731=CIRCLE('generated circle',#730,2.) ;
#743=CIRCLE('generated circle',#742,2.) ;
#761=CIRCLE('generated circle',#760,2.) ;
#775=CIRCLE('generated circle',#774,2.) ;
#792=CIRCLE('generated circle',#791,2.) ;
#816=CIRCLE('generated circle',#815,2.) ;
#838=CIRCLE('generated circle',#837,2.) ;
#856=CIRCLE('generated circle',#855,2.) ;
#156=PLANE('',#155) ;
#264=PLANE('',#263) ;
#296=PLANE('',#295) ;
#347=PLANE('',#346) ;
#371=PLANE('',#370) ;
#525=PLANE('',#524) ;
#679=PLANE('',#678) ;
#703=PLANE('',#702) ;
#727=PLANE('',#726) ;
#829=PLANE('',#828) ;
#869=PLANE('',#868) ;
#882=PLANE('',#881) ;
#919=PLANE('',#918) ;
#35=CYLINDRICAL_SURFACE('generated cylinder',#34,2.65) ;
#418=CYLINDRICAL_SURFACE('generated cylinder',#417,0.1) ;
#442=CYLINDRICAL_SURFACE('generated cylinder',#441,5.55) ;
#466=CYLINDRICAL_SURFACE('generated cylinder',#465,0.1) ;
#572=CYLINDRICAL_SURFACE('generated cylinder',#571,0.1) ;
#596=CYLINDRICAL_SURFACE('generated cylinder',#595,5.55) ;
#620=CYLINDRICAL_SURFACE('generated cylinder',#619,0.1) ;
#757=CYLINDRICAL_SURFACE('generated cylinder',#756,2.) ;
#788=CYLINDRICAL_SURFACE('generated cylinder',#787,2.) ;
#812=CYLINDRICAL_SURFACE('generated cylinder',#811,2.) ;
#852=CYLINDRICAL_SURFACE('generated cylinder',#851,2.) ;
#258=FACE_BOUND('',#255,.T.) ;
#943=FACE_BOUND('',#934,.T.) ;
#44=EDGE_CURVE('',#41,#43,#39,.F.) ;
#51=EDGE_CURVE('',#50,#43,#48,.T.) ;
#58=EDGE_CURVE('',#57,#50,#55,.T.) ;
#65=EDGE_CURVE('',#57,#64,#62,.T.) ;
#72=EDGE_CURVE('',#64,#71,#69,.F.) ;
#79=EDGE_CURVE('',#78,#71,#76,.F.) ;
#86=EDGE_CURVE('',#78,#85,#83,.T.) ;
#91=EDGE_CURVE('',#85,#41,#90,.F.) ;
#109=EDGE_CURVE('',#71,#108,#106,.F.) ;
#116=EDGE_CURVE('',#115,#108,#113,.T.) ;
#123=EDGE_CURVE('',#122,#115,#120,.T.) ;
#130=EDGE_CURVE('',#122,#129,#127,.T.) ;
#135=EDGE_CURVE('',#129,#41,#134,.F.) ;
#140=EDGE_CURVE('',#85,#78,#139,.T.) ;
#165=EDGE_CURVE('',#162,#164,#160,.F.) ;
#172=EDGE_CURVE('',#171,#164,#169,.F.) ;
#179=EDGE_CURVE('',#178,#171,#176,.T.) ;
#186=EDGE_CURVE('',#185,#178,#183,.F.) ;
#193=EDGE_CURVE('',#185,#192,#190,.F.) ;
#200=EDGE_CURVE('',#192,#199,#197,.T.) ;
#207=EDGE_CURVE('',#199,#206,#204,.F.) ;
#214=EDGE_CURVE('',#213,#206,#211,.F.) ;
#221=EDGE_CURVE('',#220,#213,#218,.F.) ;
#228=EDGE_CURVE('',#227,#220,#225,.F.) ;
#235=EDGE_CURVE('',#227,#234,#232,.F.) ;
#240=EDGE_CURVE('',#234,#162,#239,.T.) ;
#271=EDGE_CURVE('',#64,#270,#268,.F.) ;
#278=EDGE_CURVE('',#270,#277,#275,.T.) ;
#283=EDGE_CURVE('',#277,#108,#282,.F.) ;
#303=EDGE_CURVE('',#57,#302,#300,.F.) ;
#308=EDGE_CURVE('',#302,#270,#307,.T.) ;
#322=EDGE_CURVE('',#129,#321,#319,.F.) ;
#329=EDGE_CURVE('',#321,#328,#326,.T.) ;
#334=EDGE_CURVE('',#328,#43,#333,.F.) ;
#354=EDGE_CURVE('',#122,#353,#351,.F.) ;
#359=EDGE_CURVE('',#353,#321,#358,.T.) ;
#378=EDGE_CURVE('',#220,#377,#375,.T.) ;
#385=EDGE_CURVE('',#384,#377,#382,.F.) ;
#392=EDGE_CURVE('',#391,#384,#389,.T.) ;
#399=EDGE_CURVE('',#391,#398,#396,.T.) ;
#404=EDGE_CURVE('',#398,#227,#403,.F.) ;
#425=EDGE_CURVE('',#424,#398,#422,.F.) ;
#430=EDGE_CURVE('',#424,#234,#429,.F.) ;
#449=EDGE_CURVE('',#424,#448,#446,.T.) ;
#454=EDGE_CURVE('',#448,#162,#453,.T.) ;
#473=EDGE_CURVE('',#472,#448,#470,.F.) ;
#478=EDGE_CURVE('',#472,#164,#477,.F.) ;
#492=EDGE_CURVE('',#472,#491,#489,.T.) ;
#499=EDGE_CURVE('',#491,#498,#496,.T.) ;
#506=EDGE_CURVE('',#505,#498,#503,.T.) ;
#511=EDGE_CURVE('',#171,#505,#510,.T.) ;
#532=EDGE_CURVE('',#178,#531,#529,.T.) ;
#539=EDGE_CURVE('',#538,#531,#536,.T.) ;
#546=EDGE_CURVE('',#545,#538,#543,.T.) ;
#553=EDGE_CURVE('',#545,#552,#550,.T.) ;
#558=EDGE_CURVE('',#552,#185,#557,.F.) ;
#579=EDGE_CURVE('',#578,#552,#576,.F.) ;
#584=EDGE_CURVE('',#578,#192,#583,.F.) ;
#603=EDGE_CURVE('',#578,#602,#600,.T.) ;
#608=EDGE_CURVE('',#602,#199,#607,.T.) ;
#627=EDGE_CURVE('',#626,#602,#624,.F.) ;
#632=EDGE_CURVE('',#626,#206,#631,.F.) ;
#646=EDGE_CURVE('',#626,#645,#643,.T.) ;
#653=EDGE_CURVE('',#645,#652,#650,.T.) ;
#660=EDGE_CURVE('',#659,#652,#657,.F.) ;
#665=EDGE_CURVE('',#213,#659,#664,.T.) ;
#686=EDGE_CURVE('',#302,#685,#683,.T.) ;
#691=EDGE_CURVE('',#685,#277,#690,.T.) ;
#710=EDGE_CURVE('',#353,#709,#707,.T.) ;
#715=EDGE_CURVE('',#709,#328,#714,.T.) ;
#734=EDGE_CURVE('',#498,#733,#731,.F.) ;
#739=EDGE_CURVE('',#491,#545,#738,.T.) ;
#744=EDGE_CURVE('',#733,#538,#743,.F.) ;
#764=EDGE_CURVE('',#652,#763,#761,.T.) ;
#771=EDGE_CURVE('',#770,#763,#768,.F.) ;
#776=EDGE_CURVE('',#770,#659,#775,.F.) ;
#795=EDGE_CURVE('',#531,#794,#792,.F.) ;
#800=EDGE_CURVE('',#733,#794,#799,.T.) ;
#817=EDGE_CURVE('',#794,#505,#816,.T.) ;
#834=EDGE_CURVE('',#645,#391,#833,.T.) ;
#839=EDGE_CURVE('',#763,#384,#838,.F.) ;
#857=EDGE_CURVE('',#377,#770,#856,.T.) ;
#895=EDGE_CURVE('',#685,#115,#894,.F.) ;
#907=EDGE_CURVE('',#709,#50,#906,.F.) ;
#30=CLOSED_SHELL('Closed Shell',(#102,#151,#259,#291,#315,#342,#366,#413,#437,#461,#485,#520,#567,#591,#615,#639,#674,#698,#722,#752,#783,#807,#824,#847,#864,#877,#890,#902,#914,#944)) ;
#93=ORIENTED_EDGE('',*,*,#44,.T.) ;
#94=ORIENTED_EDGE('',*,*,#51,.F.) ;
#95=ORIENTED_EDGE('',*,*,#58,.F.) ;
#96=ORIENTED_EDGE('',*,*,#65,.T.) ;
#97=ORIENTED_EDGE('',*,*,#72,.T.) ;
#98=ORIENTED_EDGE('',*,*,#79,.F.) ;
#99=ORIENTED_EDGE('',*,*,#86,.T.) ;
#100=ORIENTED_EDGE('',*,*,#91,.T.) ;
#142=ORIENTED_EDGE('',*,*,#109,.T.) ;
#143=ORIENTED_EDGE('',*,*,#116,.F.) ;
#144=ORIENTED_EDGE('',*,*,#123,.F.) ;
#145=ORIENTED_EDGE('',*,*,#130,.T.) ;
#146=ORIENTED_EDGE('',*,*,#135,.T.) ;
#147=ORIENTED_EDGE('',*,*,#91,.F.) ;
#148=ORIENTED_EDGE('',*,*,#140,.T.) ;
#149=ORIENTED_EDGE('',*,*,#79,.T.) ;
#242=ORIENTED_EDGE('',*,*,#165,.T.) ;
#243=ORIENTED_EDGE('',*,*,#172,.F.) ;
#244=ORIENTED_EDGE('',*,*,#179,.F.) ;
#245=ORIENTED_EDGE('',*,*,#186,.F.) ;
#246=ORIENTED_EDGE('',*,*,#193,.T.) ;
#247=ORIENTED_EDGE('',*,*,#200,.T.) ;
#248=ORIENTED_EDGE('',*,*,#207,.T.) ;
#249=ORIENTED_EDGE('',*,*,#214,.F.) ;
#250=ORIENTED_EDGE('',*,*,#221,.F.) ;
#251=ORIENTED_EDGE('',*,*,#228,.F.) ;
#252=ORIENTED_EDGE('',*,*,#235,.T.) ;
#253=ORIENTED_EDGE('',*,*,#240,.T.) ;
#256=ORIENTED_EDGE('',*,*,#140,.F.) ;
#257=ORIENTED_EDGE('',*,*,#86,.F.) ;
#285=ORIENTED_EDGE('',*,*,#271,.T.) ;
#286=ORIENTED_EDGE('',*,*,#278,.T.) ;
#287=ORIENTED_EDGE('',*,*,#283,.T.) ;
#288=ORIENTED_EDGE('',*,*,#109,.F.) ;
#289=ORIENTED_EDGE('',*,*,#72,.F.) ;
#310=ORIENTED_EDGE('',*,*,#65,.F.) ;
#311=ORIENTED_EDGE('',*,*,#303,.T.) ;
#312=ORIENTED_EDGE('',*,*,#308,.T.) ;
#313=ORIENTED_EDGE('',*,*,#271,.F.) ;
#336=ORIENTED_EDGE('',*,*,#322,.T.) ;
#337=ORIENTED_EDGE('',*,*,#329,.T.) ;
#338=ORIENTED_EDGE('',*,*,#334,.T.) ;
#339=ORIENTED_EDGE('',*,*,#44,.F.) ;
#340=ORIENTED_EDGE('',*,*,#135,.F.) ;
#361=ORIENTED_EDGE('',*,*,#130,.F.) ;
#362=ORIENTED_EDGE('',*,*,#354,.T.) ;
#363=ORIENTED_EDGE('',*,*,#359,.T.) ;
#364=ORIENTED_EDGE('',*,*,#322,.F.) ;
#406=ORIENTED_EDGE('',*,*,#228,.T.) ;
#407=ORIENTED_EDGE('',*,*,#378,.T.) ;
#408=ORIENTED_EDGE('',*,*,#385,.F.) ;
#409=ORIENTED_EDGE('',*,*,#392,.F.) ;
#410=ORIENTED_EDGE('',*,*,#399,.T.) ;
#411=ORIENTED_EDGE('',*,*,#404,.T.) ;
#432=ORIENTED_EDGE('',*,*,#404,.F.) ;
#433=ORIENTED_EDGE('',*,*,#425,.F.) ;
#434=ORIENTED_EDGE('',*,*,#430,.T.) ;
#435=ORIENTED_EDGE('',*,*,#235,.F.) ;
#456=ORIENTED_EDGE('',*,*,#240,.F.) ;
#457=ORIENTED_EDGE('',*,*,#430,.F.) ;
#458=ORIENTED_EDGE('',*,*,#449,.T.) ;
#459=ORIENTED_EDGE('',*,*,#454,.T.) ;
#480=ORIENTED_EDGE('',*,*,#454,.F.) ;
#481=ORIENTED_EDGE('',*,*,#473,.F.) ;
#482=ORIENTED_EDGE('',*,*,#478,.T.) ;
#483=ORIENTED_EDGE('',*,*,#165,.F.) ;
#513=ORIENTED_EDGE('',*,*,#492,.T.) ;
#514=ORIENTED_EDGE('',*,*,#499,.T.) ;
#515=ORIENTED_EDGE('',*,*,#506,.F.) ;
#516=ORIENTED_EDGE('',*,*,#511,.F.) ;
#517=ORIENTED_EDGE('',*,*,#172,.T.) ;
#518=ORIENTED_EDGE('',*,*,#478,.F.) ;
#560=ORIENTED_EDGE('',*,*,#186,.T.) ;
#561=ORIENTED_EDGE('',*,*,#532,.T.) ;
#562=ORIENTED_EDGE('',*,*,#539,.F.) ;
#563=ORIENTED_EDGE('',*,*,#546,.F.) ;
#564=ORIENTED_EDGE('',*,*,#553,.T.) ;
#565=ORIENTED_EDGE('',*,*,#558,.T.) ;
#586=ORIENTED_EDGE('',*,*,#558,.F.) ;
#587=ORIENTED_EDGE('',*,*,#579,.F.) ;
#588=ORIENTED_EDGE('',*,*,#584,.T.) ;
#589=ORIENTED_EDGE('',*,*,#193,.F.) ;
#610=ORIENTED_EDGE('',*,*,#200,.F.) ;
#611=ORIENTED_EDGE('',*,*,#584,.F.) ;
#612=ORIENTED_EDGE('',*,*,#603,.T.) ;
#613=ORIENTED_EDGE('',*,*,#608,.T.) ;
#634=ORIENTED_EDGE('',*,*,#608,.F.) ;
#635=ORIENTED_EDGE('',*,*,#627,.F.) ;
#636=ORIENTED_EDGE('',*,*,#632,.T.) ;
#637=ORIENTED_EDGE('',*,*,#207,.F.) ;
#667=ORIENTED_EDGE('',*,*,#646,.T.) ;
#668=ORIENTED_EDGE('',*,*,#653,.T.) ;
#669=ORIENTED_EDGE('',*,*,#660,.F.) ;
#670=ORIENTED_EDGE('',*,*,#665,.F.) ;
#671=ORIENTED_EDGE('',*,*,#214,.T.) ;
#672=ORIENTED_EDGE('',*,*,#632,.F.) ;
#693=ORIENTED_EDGE('',*,*,#308,.F.) ;
#694=ORIENTED_EDGE('',*,*,#686,.T.) ;
#695=ORIENTED_EDGE('',*,*,#691,.T.) ;
#696=ORIENTED_EDGE('',*,*,#278,.F.) ;
#717=ORIENTED_EDGE('',*,*,#359,.F.) ;
#718=ORIENTED_EDGE('',*,*,#710,.T.) ;
#719=ORIENTED_EDGE('',*,*,#715,.T.) ;
#720=ORIENTED_EDGE('',*,*,#329,.F.) ;
#746=ORIENTED_EDGE('',*,*,#734,.F.) ;
#747=ORIENTED_EDGE('',*,*,#499,.F.) ;
#748=ORIENTED_EDGE('',*,*,#739,.T.) ;
#749=ORIENTED_EDGE('',*,*,#546,.T.) ;
#750=ORIENTED_EDGE('',*,*,#744,.F.) ;
#778=ORIENTED_EDGE('',*,*,#764,.T.) ;
#779=ORIENTED_EDGE('',*,*,#771,.F.) ;
#780=ORIENTED_EDGE('',*,*,#776,.T.) ;
#781=ORIENTED_EDGE('',*,*,#660,.T.) ;
#802=ORIENTED_EDGE('',*,*,#795,.T.) ;
#803=ORIENTED_EDGE('',*,*,#800,.F.) ;
#804=ORIENTED_EDGE('',*,*,#744,.T.) ;
#805=ORIENTED_EDGE('',*,*,#539,.T.) ;
#819=ORIENTED_EDGE('',*,*,#734,.T.) ;
#820=ORIENTED_EDGE('',*,*,#800,.T.) ;
#821=ORIENTED_EDGE('',*,*,#817,.T.) ;
#822=ORIENTED_EDGE('',*,*,#506,.T.) ;
#841=ORIENTED_EDGE('',*,*,#653,.F.) ;
#842=ORIENTED_EDGE('',*,*,#834,.T.) ;
#843=ORIENTED_EDGE('',*,*,#392,.T.) ;
#844=ORIENTED_EDGE('',*,*,#839,.F.) ;
#845=ORIENTED_EDGE('',*,*,#764,.F.) ;
#859=ORIENTED_EDGE('',*,*,#857,.T.) ;
#860=ORIENTED_EDGE('',*,*,#771,.T.) ;
#861=ORIENTED_EDGE('',*,*,#839,.T.) ;
#862=ORIENTED_EDGE('',*,*,#385,.T.) ;
#871=ORIENTED_EDGE('',*,*,#532,.F.) ;
#872=ORIENTED_EDGE('',*,*,#179,.T.) ;
#873=ORIENTED_EDGE('',*,*,#511,.T.) ;
#874=ORIENTED_EDGE('',*,*,#817,.F.) ;
#875=ORIENTED_EDGE('',*,*,#795,.F.) ;
#884=ORIENTED_EDGE('',*,*,#776,.F.) ;
#885=ORIENTED_EDGE('',*,*,#857,.F.) ;
#886=ORIENTED_EDGE('',*,*,#378,.F.) ;
#887=ORIENTED_EDGE('',*,*,#221,.T.) ;
#888=ORIENTED_EDGE('',*,*,#665,.T.) ;
#897=ORIENTED_EDGE('',*,*,#116,.T.) ;
#898=ORIENTED_EDGE('',*,*,#283,.F.) ;
#899=ORIENTED_EDGE('',*,*,#691,.F.) ;
#900=ORIENTED_EDGE('',*,*,#895,.T.) ;
#909=ORIENTED_EDGE('',*,*,#51,.T.) ;
#910=ORIENTED_EDGE('',*,*,#334,.F.) ;
#911=ORIENTED_EDGE('',*,*,#715,.F.) ;
#912=ORIENTED_EDGE('',*,*,#907,.T.) ;
#921=ORIENTED_EDGE('',*,*,#449,.F.) ;
#922=ORIENTED_EDGE('',*,*,#425,.T.) ;
#923=ORIENTED_EDGE('',*,*,#399,.F.) ;
#924=ORIENTED_EDGE('',*,*,#834,.F.) ;
#925=ORIENTED_EDGE('',*,*,#646,.F.) ;
#926=ORIENTED_EDGE('',*,*,#627,.T.) ;
#927=ORIENTED_EDGE('',*,*,#603,.F.) ;
#928=ORIENTED_EDGE('',*,*,#579,.T.) ;
#929=ORIENTED_EDGE('',*,*,#553,.F.) ;
#930=ORIENTED_EDGE('',*,*,#739,.F.) ;
#931=ORIENTED_EDGE('',*,*,#492,.F.) ;
#932=ORIENTED_EDGE('',*,*,#473,.T.) ;
#935=ORIENTED_EDGE('',*,*,#895,.F.) ;
#936=ORIENTED_EDGE('',*,*,#686,.F.) ;
#937=ORIENTED_EDGE('',*,*,#303,.F.) ;
#938=ORIENTED_EDGE('',*,*,#58,.T.) ;
#939=ORIENTED_EDGE('',*,*,#907,.F.) ;
#940=ORIENTED_EDGE('',*,*,#710,.F.) ;
#941=ORIENTED_EDGE('',*,*,#354,.F.) ;
#942=ORIENTED_EDGE('',*,*,#123,.T.) ;
#92=EDGE_LOOP('',(#93,#94,#95,#96,#97,#98,#99,#100)) ;
#141=EDGE_LOOP('',(#142,#143,#144,#145,#146,#147,#148,#149)) ;
#241=EDGE_LOOP('',(#242,#243,#244,#245,#246,#247,#248,#249,#250,#251,#252,#253)) ;
#255=EDGE_LOOP('',(#256,#257)) ;
#284=EDGE_LOOP('',(#285,#286,#287,#288,#289)) ;
#309=EDGE_LOOP('',(#310,#311,#312,#313)) ;
#335=EDGE_LOOP('',(#336,#337,#338,#339,#340)) ;
#360=EDGE_LOOP('',(#361,#362,#363,#364)) ;
#405=EDGE_LOOP('',(#406,#407,#408,#409,#410,#411)) ;
#431=EDGE_LOOP('',(#432,#433,#434,#435)) ;
#455=EDGE_LOOP('',(#456,#457,#458,#459)) ;
#479=EDGE_LOOP('',(#480,#481,#482,#483)) ;
#512=EDGE_LOOP('',(#513,#514,#515,#516,#517,#518)) ;
#559=EDGE_LOOP('',(#560,#561,#562,#563,#564,#565)) ;
#585=EDGE_LOOP('',(#586,#587,#588,#589)) ;
#609=EDGE_LOOP('',(#610,#611,#612,#613)) ;
#633=EDGE_LOOP('',(#634,#635,#636,#637)) ;
#666=EDGE_LOOP('',(#667,#668,#669,#670,#671,#672)) ;
#692=EDGE_LOOP('',(#693,#694,#695,#696)) ;
#716=EDGE_LOOP('',(#717,#718,#719,#720)) ;
#745=EDGE_LOOP('',(#746,#747,#748,#749,#750)) ;
#777=EDGE_LOOP('',(#778,#779,#780,#781)) ;
#801=EDGE_LOOP('',(#802,#803,#804,#805)) ;
#818=EDGE_LOOP('',(#819,#820,#821,#822)) ;
#840=EDGE_LOOP('',(#841,#842,#843,#844,#845)) ;
#858=EDGE_LOOP('',(#859,#860,#861,#862)) ;
#870=EDGE_LOOP('',(#871,#872,#873,#874,#875)) ;
#883=EDGE_LOOP('',(#884,#885,#886,#887,#888)) ;
#896=EDGE_LOOP('',(#897,#898,#899,#900)) ;
#908=EDGE_LOOP('',(#909,#910,#911,#912)) ;
#920=EDGE_LOOP('',(#921,#922,#923,#924,#925,#926,#927,#928,#929,#930,#931,#932)) ;
#934=EDGE_LOOP('',(#935,#936,#937,#938,#939,#940,#941,#942)) ;
#21=MANIFOLD_SOLID_BREP('Corps principal',#30) ;
#41=VERTEX_POINT('',#40) ;
#43=VERTEX_POINT('',#42) ;
#50=VERTEX_POINT('',#49) ;
#57=VERTEX_POINT('',#56) ;
#64=VERTEX_POINT('',#63) ;
#71=VERTEX_POINT('',#70) ;
#78=VERTEX_POINT('',#77) ;
#85=VERTEX_POINT('',#84) ;
#108=VERTEX_POINT('',#107) ;
#115=VERTEX_POINT('',#114) ;
#122=VERTEX_POINT('',#121) ;
#129=VERTEX_POINT('',#128) ;
#162=VERTEX_POINT('',#161) ;
#164=VERTEX_POINT('',#163) ;
#171=VERTEX_POINT('',#170) ;
#178=VERTEX_POINT('',#177) ;
#185=VERTEX_POINT('',#184) ;
#192=VERTEX_POINT('',#191) ;
#199=VERTEX_POINT('',#198) ;
#206=VERTEX_POINT('',#205) ;
#213=VERTEX_POINT('',#212) ;
#220=VERTEX_POINT('',#219) ;
#227=VERTEX_POINT('',#226) ;
#234=VERTEX_POINT('',#233) ;
#270=VERTEX_POINT('',#269) ;
#277=VERTEX_POINT('',#276) ;
#302=VERTEX_POINT('',#301) ;
#321=VERTEX_POINT('',#320) ;
#328=VERTEX_POINT('',#327) ;
#353=VERTEX_POINT('',#352) ;
#377=VERTEX_POINT('',#376) ;
#384=VERTEX_POINT('',#383) ;
#391=VERTEX_POINT('',#390) ;
#398=VERTEX_POINT('',#397) ;
#424=VERTEX_POINT('',#423) ;
#448=VERTEX_POINT('',#447) ;
#472=VERTEX_POINT('',#471) ;
#491=VERTEX_POINT('',#490) ;
#498=VERTEX_POINT('',#497) ;
#505=VERTEX_POINT('',#504) ;
#531=VERTEX_POINT('',#530) ;
#538=VERTEX_POINT('',#537) ;
#545=VERTEX_POINT('',#544) ;
#552=VERTEX_POINT('',#551) ;
#578=VERTEX_POINT('',#577) ;
#602=VERTEX_POINT('',#601) ;
#626=VERTEX_POINT('',#625) ;
#645=VERTEX_POINT('',#644) ;
#652=VERTEX_POINT('',#651) ;
#659=VERTEX_POINT('',#658) ;
#685=VERTEX_POINT('',#684) ;
#709=VERTEX_POINT('',#708) ;
#733=VERTEX_POINT('',#732) ;
#763=VERTEX_POINT('',#762) ;
#770=VERTEX_POINT('',#769) ;
#794=VERTEX_POINT('',#793) ;
#945=ADVANCED_BREP_SHAPE_REPRESENTATION('NONE',(#21),#16) ;
#102=ADVANCED_FACE('Corps principal',(#101),#35,.F.) ;
#151=ADVANCED_FACE('Corps principal',(#150),#35,.F.) ;
#259=ADVANCED_FACE('Corps principal',(#254,#258),#156,.T.) ;
#291=ADVANCED_FACE('Corps principal',(#290),#264,.T.) ;
#315=ADVANCED_FACE('Corps principal',(#314),#296,.F.) ;
#342=ADVANCED_FACE('Corps principal',(#341),#264,.T.) ;
#366=ADVANCED_FACE('Corps principal',(#365),#347,.F.) ;
#413=ADVANCED_FACE('Corps principal',(#412),#371,.T.) ;
#437=ADVANCED_FACE('Corps principal',(#436),#418,.F.) ;
#461=ADVANCED_FACE('Corps principal',(#460),#442,.T.) ;
#485=ADVANCED_FACE('Corps principal',(#484),#466,.F.) ;
#520=ADVANCED_FACE('Corps principal',(#519),#371,.T.) ;
#567=ADVANCED_FACE('Corps principal',(#566),#525,.T.) ;
#591=ADVANCED_FACE('Corps principal',(#590),#572,.F.) ;
#615=ADVANCED_FACE('Corps principal',(#614),#596,.T.) ;
#639=ADVANCED_FACE('Corps principal',(#638),#620,.F.) ;
#674=ADVANCED_FACE('Corps principal',(#673),#525,.T.) ;
#698=ADVANCED_FACE('Corps principal',(#697),#679,.T.) ;
#722=ADVANCED_FACE('Corps principal',(#721),#703,.T.) ;
#752=ADVANCED_FACE('Corps principal',(#751),#727,.T.) ;
#783=ADVANCED_FACE('Corps principal',(#782),#757,.T.) ;
#807=ADVANCED_FACE('Corps principal',(#806),#788,.T.) ;
#824=ADVANCED_FACE('Corps principal',(#823),#812,.T.) ;
#847=ADVANCED_FACE('Corps principal',(#846),#829,.T.) ;
#864=ADVANCED_FACE('Corps principal',(#863),#852,.T.) ;
#877=ADVANCED_FACE('Corps principal',(#876),#869,.T.) ;
#890=ADVANCED_FACE('Corps principal',(#889),#882,.F.) ;
#902=ADVANCED_FACE('Corps principal',(#901),#347,.F.) ;
#914=ADVANCED_FACE('Corps principal',(#913),#296,.F.) ;
#944=ADVANCED_FACE('Corps principal',(#933,#943),#919,.F.) ;
#4=APPLICATION_PROTOCOL_DEFINITION('international standard','ap242_managed_model_based_3d_engineering',2014,#1) ;
#22=COLOUR_RGB('Colour',0.823529411765,0.823529411765,1.) ;
#101=FACE_OUTER_BOUND('',#92,.T.) ;
#150=FACE_OUTER_BOUND('',#141,.T.) ;
#254=FACE_OUTER_BOUND('',#241,.T.) ;
#290=FACE_OUTER_BOUND('',#284,.T.) ;
#314=FACE_OUTER_BOUND('',#309,.T.) ;
#341=FACE_OUTER_BOUND('',#335,.T.) ;
#365=FACE_OUTER_BOUND('',#360,.T.) ;
#412=FACE_OUTER_BOUND('',#405,.T.) ;
#436=FACE_OUTER_BOUND('',#431,.T.) ;
#460=FACE_OUTER_BOUND('',#455,.T.) ;
#484=FACE_OUTER_BOUND('',#479,.T.) ;
#519=FACE_OUTER_BOUND('',#512,.T.) ;
#566=FACE_OUTER_BOUND('',#559,.T.) ;
#590=FACE_OUTER_BOUND('',#585,.T.) ;
#614=FACE_OUTER_BOUND('',#609,.T.) ;
#638=FACE_OUTER_BOUND('',#633,.T.) ;
#673=FACE_OUTER_BOUND('',#666,.T.) ;
#697=FACE_OUTER_BOUND('',#692,.T.) ;
#721=FACE_OUTER_BOUND('',#716,.T.) ;
#751=FACE_OUTER_BOUND('',#745,.T.) ;
#782=FACE_OUTER_BOUND('',#777,.T.) ;
#806=FACE_OUTER_BOUND('',#801,.T.) ;
#823=FACE_OUTER_BOUND('',#818,.T.) ;
#846=FACE_OUTER_BOUND('',#840,.T.) ;
#863=FACE_OUTER_BOUND('',#858,.T.) ;
#876=FACE_OUTER_BOUND('',#870,.T.) ;
#889=FACE_OUTER_BOUND('',#883,.T.) ;
#901=FACE_OUTER_BOUND('',#896,.T.) ;
#913=FACE_OUTER_BOUND('',#908,.T.) ;
#933=FACE_OUTER_BOUND('',#920,.T.) ;
#9=PRODUCT_CATEGORY_RELATIONSHIP(' ',' ',#7,#8) ;
#6=PRODUCT_DEFINITION_FORMATION_WITH_SPECIFIED_SOURCE('',' ',#5,.NOT_KNOWN.) ;
#20=SHAPE_DEFINITION_REPRESENTATION(#11,#19) ;
#12=(LENGTH_UNIT()NAMED_UNIT(*)SI_UNIT(.MILLI.,.METRE.)) ;
#13=(NAMED_UNIT(*)PLANE_ANGLE_UNIT()SI_UNIT($,.RADIAN.)) ;
#14=(NAMED_UNIT(*)SI_UNIT($,.STERADIAN.)SOLID_ANGLE_UNIT()) ;
#16=(GEOMETRIC_REPRESENTATION_CONTEXT(3)GLOBAL_UNCERTAINTY_ASSIGNED_CONTEXT((#15))GLOBAL_UNIT_ASSIGNED_CONTEXT((#12,#13,#14))REPRESENTATION_CONTEXT(' ',' ')) ;
ENDSEC;
END-ISO-10303-21;
